<svg xmlns="http://www.w3.org/2000/svg" viewBox="0 0 980 580" width="100%" height="auto" style="background-color: #FFFFFF; border: 1px solid #E5E7EB; border-radius: 4px; font-family: 'Times New Roman', Times, 'DejaVu Serif', 'TeX Gyre Termes', Georgia, serif;">

        <defs>
          <clipPath id="plotClip">
            <rect x="105" y="75" width="820" height="420" />
          </clipPath>
        </defs>
        
<rect x="0" y="0" width="980" height="580" fill="#FFFFFF" />
<text x="105" y="34" fill="#111827" font-size="18" font-weight="bold" letter-spacing="-0.01em">Predicted vs. Actual Parity: Bulk Modulus (K) [GPa]</text>
<text x="105" y="54" fill="#4B5563" font-size="12" font-style="italic">Zero-Parameter First-Principles Multiscale Predictions vs. Experimental Benchmark (N = 24)</text>
<g transform="translate(735, 90)"><rect width="175" height="92" rx="3" fill="#F9FAFB" stroke="#D1D5DB" stroke-width="1.2" /><text x="14" y="22" fill="#111827" font-size="12" font-weight="bold">Statistical Summary</text><line x1="14" y1="28" x2="161" y2="28" stroke="#D1D5DB" stroke-width="0.8" /><text x="14" y="44" fill="#111827" font-size="11.5">Sample Size: <tspan font-weight="bold">N = 24</tspan></text><text x="14" y="60" fill="#111827" font-size="11.5">Determination: <tspan font-weight="bold">R² = 0.2245</tspan></text><text x="14" y="76" fill="#111827" font-size="11.5">Mean Abs % Err: <tspan font-weight="bold">MAPE = 26.49%</tspan></text></g>
<line x1="105.0" y1="75" x2="105.0" y2="495" stroke="#E5E7EB" stroke-width="0.8" stroke-dasharray="2,2" />
<line x1="105" y1="495.0" x2="925" y2="495.0" stroke="#E5E7EB" stroke-width="0.8" stroke-dasharray="2,2" />
<line x1="100" y1="495.0" x2="105" y2="495.0" stroke="#111827" stroke-width="1.2" />
<text x="95" y="499.0" fill="#111827" font-size="12" font-weight="500" text-anchor="end">0</text>
<line x1="105.0" y1="495" x2="105.0" y2="500" stroke="#111827" stroke-width="1.2" />
<text x="105.0" y="517.0" fill="#111827" font-size="12" font-weight="500" text-anchor="middle">0</text>
<line x1="310.0" y1="75" x2="310.0" y2="495" stroke="#E5E7EB" stroke-width="0.8" stroke-dasharray="2,2" />
<line x1="105" y1="390.0" x2="925" y2="390.0" stroke="#E5E7EB" stroke-width="0.8" stroke-dasharray="2,2" />
<line x1="100" y1="390.0" x2="105" y2="390.0" stroke="#111827" stroke-width="1.2" />
<text x="95" y="394.0" fill="#111827" font-size="12" font-weight="500" text-anchor="end">102</text>
<line x1="310.0" y1="495" x2="310.0" y2="500" stroke="#111827" stroke-width="1.2" />
<text x="310.0" y="517.0" fill="#111827" font-size="12" font-weight="500" text-anchor="middle">102</text>
<line x1="515.0" y1="75" x2="515.0" y2="495" stroke="#E5E7EB" stroke-width="0.8" stroke-dasharray="2,2" />
<line x1="105" y1="285.0" x2="925" y2="285.0" stroke="#E5E7EB" stroke-width="0.8" stroke-dasharray="2,2" />
<line x1="100" y1="285.0" x2="105" y2="285.0" stroke="#111827" stroke-width="1.2" />
<text x="95" y="289.0" fill="#111827" font-size="12" font-weight="500" text-anchor="end">203</text>
<line x1="515.0" y1="495" x2="515.0" y2="500" stroke="#111827" stroke-width="1.2" />
<text x="515.0" y="517.0" fill="#111827" font-size="12" font-weight="500" text-anchor="middle">203</text>
<line x1="720.0" y1="75" x2="720.0" y2="495" stroke="#E5E7EB" stroke-width="0.8" stroke-dasharray="2,2" />
<line x1="105" y1="180.0" x2="925" y2="180.0" stroke="#E5E7EB" stroke-width="0.8" stroke-dasharray="2,2" />
<line x1="100" y1="180.0" x2="105" y2="180.0" stroke="#111827" stroke-width="1.2" />
<text x="95" y="184.0" fill="#111827" font-size="12" font-weight="500" text-anchor="end">304</text>
<line x1="720.0" y1="495" x2="720.0" y2="500" stroke="#111827" stroke-width="1.2" />
<text x="720.0" y="517.0" fill="#111827" font-size="12" font-weight="500" text-anchor="middle">304</text>
<line x1="925.0" y1="75" x2="925.0" y2="495" stroke="#E5E7EB" stroke-width="0.8" stroke-dasharray="2,2" />
<line x1="105" y1="75.0" x2="925" y2="75.0" stroke="#E5E7EB" stroke-width="0.8" stroke-dasharray="2,2" />
<line x1="100" y1="75.0" x2="105" y2="75.0" stroke="#111827" stroke-width="1.2" />
<text x="95" y="79.0" fill="#111827" font-size="12" font-weight="500" text-anchor="end">406</text>
<line x1="925.0" y1="495" x2="925.0" y2="500" stroke="#111827" stroke-width="1.2" />
<text x="925.0" y="517.0" fill="#111827" font-size="12" font-weight="500" text-anchor="middle">406</text>
<polygon points="105.0,495.0 925.0,33.0 925.0,117.0 105.0,495.0" fill="rgba(0, 0, 0, 0.04)" clip-path="url(#plotClip)" />
<line x1="105.0" y1="495.0" x2="925.0" y2="33.0" stroke="#9CA3AF" stroke-width="1.0" stroke-dasharray="3,3" clip-path="url(#plotClip)" />
<line x1="105.0" y1="495.0" x2="925.0" y2="117.0" stroke="#9CA3AF" stroke-width="1.0" stroke-dasharray="3,3" clip-path="url(#plotClip)" />
<line x1="105.0" y1="495.0" x2="925.0" y2="75.0" stroke="#111827" stroke-width="1.6" stroke-dasharray="6,4" clip-path="url(#plotClip)" />
<text x="535.0" y="273.0" fill="#6B7280" font-size="11" font-style="italic" transform="rotate(-34 515.0 285.0)">Ideal 1:1 Parity (y = x)</text>
<rect x="105" y="75" width="820" height="420" fill="none" stroke="#111827" stroke-width="1.4" />
<text x="515.0" y="547.0" fill="#111827" font-size="14.5" font-weight="bold" text-anchor="middle">Experimental / Literature Ground Truth Value [GPa]</text>
<text x="32" y="285.0" fill="#111827" font-size="14.5" font-weight="bold" text-anchor="middle" transform="rotate(-90 32 285.0)">Penziv First-Principles Predicted Value [GPa]</text>
<line x1="387.8" y1="350.2" x2="387.8" y2="305.8" stroke="#6B7280" stroke-width="1.2" stroke-dasharray="2,2" opacity="0.75" clip-path="url(#plotClip)" />
<circle cx="387.8" cy="305.8" r="5.5" fill="#1F2937" stroke="#FFFFFF" stroke-width="1.5" />
<circle cx="387.8" cy="305.8" r="5.5" fill="none" stroke="#000000" stroke-width="1.2" />
<text x="395.8" y="298.8" fill="#111827" font-size="10.5" font-weight="600" text-anchor="start">Cu <tspan fill="#6B7280" font-size="9.5">(+30.6%)</tspan></text>
<line x1="258.5" y1="416.4" x2="258.5" y2="433.2" stroke="#6B7280" stroke-width="1.2" stroke-dasharray="2,2" opacity="0.75" clip-path="url(#plotClip)" />
<circle cx="258.5" cy="433.2" r="5.5" fill="#1F2937" stroke="#FFFFFF" stroke-width="1.5" />
<circle cx="258.5" cy="433.2" r="5.5" fill="none" stroke="#000000" stroke-width="1.2" />
<text x="266.5" y="446.2" fill="#111827" font-size="10.5" font-weight="600" text-anchor="start">Al <tspan fill="#6B7280" font-size="9.5">(-21.4%)</tspan></text>
<line x1="468.5" y1="308.8" x2="468.5" y2="311.6" stroke="#6B7280" stroke-width="1.2" stroke-dasharray="2,2" opacity="0.75" clip-path="url(#plotClip)" />
<circle cx="468.5" cy="311.6" r="5.5" fill="#1F2937" stroke="#FFFFFF" stroke-width="1.5" />
<circle cx="468.5" cy="311.6" r="5.5" fill="none" stroke="#000000" stroke-width="1.2" />
<text x="476.5" y="324.6" fill="#111827" font-size="10.5" font-weight="600" text-anchor="start">Ni <tspan fill="#6B7280" font-size="9.5">(-1.5%)</tspan></text>
<line x1="327.2" y1="381.2" x2="327.2" y2="398.3" stroke="#6B7280" stroke-width="1.2" stroke-dasharray="2,2" opacity="0.75" clip-path="url(#plotClip)" />
<circle cx="327.2" cy="398.3" r="5.5" fill="#1F2937" stroke="#FFFFFF" stroke-width="1.5" />
<circle cx="327.2" cy="398.3" r="5.5" fill="none" stroke="#000000" stroke-width="1.2" />
<text x="335.2" y="411.3" fill="#111827" font-size="10.5" font-weight="600" text-anchor="start">Ti <tspan fill="#6B7280" font-size="9.5">(-15.0%)</tspan></text>
<line x1="731.1" y1="174.3" x2="731.1" y2="132.9" stroke="#6B7280" stroke-width="1.2" stroke-dasharray="2,2" opacity="0.75" clip-path="url(#plotClip)" />
<circle cx="731.1" cy="132.9" r="5.5" fill="#1F2937" stroke="#FFFFFF" stroke-width="1.5" />
<circle cx="731.1" cy="132.9" r="5.5" fill="none" stroke="#000000" stroke-width="1.2" />
<text x="739.1" y="125.9" fill="#111827" font-size="10.5" font-weight="600" text-anchor="start">W <tspan fill="#6B7280" font-size="9.5">(+12.9%)</tspan></text>
<line x1="448.3" y1="319.1" x2="448.3" y2="322.4" stroke="#6B7280" stroke-width="1.2" stroke-dasharray="2,2" opacity="0.75" clip-path="url(#plotClip)" />
<circle cx="448.3" cy="322.4" r="5.5" fill="#1F2937" stroke="#FFFFFF" stroke-width="1.5" />
<circle cx="448.3" cy="322.4" r="5.5" fill="none" stroke="#000000" stroke-width="1.2" />
<text x="456.3" y="335.4" fill="#111827" font-size="10.5" font-weight="600" text-anchor="start">Fe <tspan fill="#6B7280" font-size="9.5">(-1.9%)</tspan></text>
<line x1="428.2" y1="329.5" x2="428.2" y2="220.4" stroke="#6B7280" stroke-width="1.2" stroke-dasharray="2,2" opacity="0.75" clip-path="url(#plotClip)" />
<circle cx="428.2" cy="220.4" r="5.5" fill="#1F2937" stroke="#FFFFFF" stroke-width="1.5" />
<circle cx="428.2" cy="220.4" r="5.5" fill="none" stroke="#000000" stroke-width="1.2" />
<text x="436.2" y="213.4" fill="#111827" font-size="10.5" font-weight="600" text-anchor="start">Fe0.70Cr0.18Ni0.10Mo0.02 <tspan fill="#6B7280" font-size="9.5">(+65.9%)</tspan></text>
<line x1="452.4" y1="317.1" x2="452.4" y2="161.8" stroke="#6B7280" stroke-width="1.2" stroke-dasharray="2,2" opacity="0.75" clip-path="url(#plotClip)" />
<circle cx="452.4" cy="161.8" r="5.5" fill="#1F2937" stroke="#FFFFFF" stroke-width="1.5" />
<circle cx="452.4" cy="161.8" r="5.5" fill="none" stroke="#000000" stroke-width="1.2" />
<text x="460.4" y="154.8" fill="#111827" font-size="10.5" font-weight="600" text-anchor="start">Ni0.53Cr0.19Fe0.18Nb0.05Mo0.03 <tspan fill="#6B7280" font-size="9.5">(+87.3%)</tspan></text>
<line x1="327.2" y1="381.2" x2="327.2" y2="288.2" stroke="#6B7280" stroke-width="1.2" stroke-dasharray="2,2" opacity="0.75" clip-path="url(#plotClip)" />
<circle cx="327.2" cy="288.2" r="5.5" fill="#1F2937" stroke="#FFFFFF" stroke-width="1.5" />
<circle cx="327.2" cy="288.2" r="5.5" fill="none" stroke="#000000" stroke-width="1.2" />
<text x="335.2" y="281.2" fill="#111827" font-size="10.5" font-weight="600" text-anchor="start">Ti0.90Al0.06V0.04 <tspan fill="#6B7280" font-size="9.5">(+81.7%)</tspan></text>
<line x1="508.9" y1="288.1" x2="508.9" y2="183.2" stroke="#6B7280" stroke-width="1.2" stroke-dasharray="2,2" opacity="0.75" clip-path="url(#plotClip)" />
<circle cx="508.9" cy="183.2" r="5.5" fill="#1F2937" stroke="#FFFFFF" stroke-width="1.5" />
<circle cx="508.9" cy="183.2" r="5.5" fill="none" stroke="#000000" stroke-width="1.2" />
<text x="516.9" y="176.2" fill="#111827" font-size="10.5" font-weight="600" text-anchor="start">Nb0.25Mo0.25Ta0.25W0.25 <tspan fill="#6B7280" font-size="9.5">(+50.7%)</tspan></text>
<line x1="438.3" y1="324.3" x2="438.3" y2="345.0" stroke="#6B7280" stroke-width="1.2" stroke-dasharray="2,2" opacity="0.75" clip-path="url(#plotClip)" />
<circle cx="438.3" cy="345.0" r="5.5" fill="#1F2937" stroke="#FFFFFF" stroke-width="1.5" />
<circle cx="438.3" cy="345.0" r="5.5" fill="none" stroke="#000000" stroke-width="1.2" />
<text x="446.3" y="358.0" fill="#111827" font-size="10.5" font-weight="600" text-anchor="start">Ti3SiC2 <tspan fill="#6B7280" font-size="9.5">(-12.1%)</tspan></text>
<line x1="387.8" y1="350.2" x2="387.8" y2="345.0" stroke="#6B7280" stroke-width="1.2" stroke-dasharray="2,2" opacity="0.75" clip-path="url(#plotClip)" />
<circle cx="387.8" cy="345.0" r="5.5" fill="#1F2937" stroke="#FFFFFF" stroke-width="1.5" />
<circle cx="387.8" cy="345.0" r="5.5" fill="none" stroke="#000000" stroke-width="1.2" />
<text x="395.8" y="338.0" fill="#111827" font-size="10.5" font-weight="600" text-anchor="start">Ti2AlC <tspan fill="#6B7280" font-size="9.5">(+3.6%)</tspan></text>
<line x1="327.2" y1="381.2" x2="327.2" y2="428.8" stroke="#6B7280" stroke-width="1.2" stroke-dasharray="2,2" opacity="0.75" clip-path="url(#plotClip)" />
<circle cx="327.2" cy="428.8" r="5.5" fill="#1F2937" stroke="#FFFFFF" stroke-width="1.5" />
<circle cx="327.2" cy="428.8" r="5.5" fill="none" stroke="#000000" stroke-width="1.2" />
<text x="335.2" y="441.8" fill="#111827" font-size="10.5" font-weight="600" text-anchor="start">CaO <tspan fill="#6B7280" font-size="9.5">(-41.8%)</tspan></text>
<line x1="428.2" y1="329.5" x2="428.2" y2="410.0" stroke="#6B7280" stroke-width="1.2" stroke-dasharray="2,2" opacity="0.75" clip-path="url(#plotClip)" />
<circle cx="428.2" cy="410.0" r="5.5" fill="#1F2937" stroke="#FFFFFF" stroke-width="1.5" />
<circle cx="428.2" cy="410.0" r="5.5" fill="none" stroke="#000000" stroke-width="1.2" />
<text x="436.2" y="423.0" fill="#111827" font-size="10.5" font-weight="600" text-anchor="start">MgO <tspan fill="#6B7280" font-size="9.5">(-48.6%)</tspan></text>
<line x1="589.7" y1="246.7" x2="589.7" y2="391.6" stroke="#6B7280" stroke-width="1.2" stroke-dasharray="2,2" opacity="0.75" clip-path="url(#plotClip)" />
<circle cx="589.7" cy="391.6" r="5.5" fill="#1F2937" stroke="#FFFFFF" stroke-width="1.5" />
<circle cx="589.7" cy="391.6" r="5.5" fill="none" stroke="#000000" stroke-width="1.2" />
<text x="597.7" y="404.6" fill="#111827" font-size="10.5" font-weight="600" text-anchor="start">Al2O3 <tspan fill="#6B7280" font-size="9.5">(-58.3%)</tspan></text>
<line x1="529.1" y1="277.8" x2="529.1" y2="333.6" stroke="#6B7280" stroke-width="1.2" stroke-dasharray="2,2" opacity="0.75" clip-path="url(#plotClip)" />
<circle cx="529.1" cy="333.6" r="5.5" fill="#1F2937" stroke="#FFFFFF" stroke-width="1.5" />
<circle cx="529.1" cy="333.6" r="5.5" fill="none" stroke="#000000" stroke-width="1.2" />
<text x="537.1" y="346.6" fill="#111827" font-size="10.5" font-weight="600" text-anchor="start">TiO2 <tspan fill="#6B7280" font-size="9.5">(-25.7%)</tspan></text>
<line x1="549.3" y1="267.4" x2="549.3" y2="296.8" stroke="#6B7280" stroke-width="1.2" stroke-dasharray="2,2" opacity="0.75" clip-path="url(#plotClip)" />
<circle cx="549.3" cy="296.8" r="5.5" fill="#1F2937" stroke="#FFFFFF" stroke-width="1.5" />
<circle cx="549.3" cy="296.8" r="5.5" fill="none" stroke="#000000" stroke-width="1.2" />
<text x="557.3" y="309.8" fill="#111827" font-size="10.5" font-weight="600" text-anchor="start">SiC <tspan fill="#6B7280" font-size="9.5">(-12.9%)</tspan></text>
<line x1="488.7" y1="298.4" x2="488.7" y2="227.9" stroke="#6B7280" stroke-width="1.2" stroke-dasharray="2,2" opacity="0.75" clip-path="url(#plotClip)" />
<circle cx="488.7" cy="227.9" r="5.5" fill="#1F2937" stroke="#FFFFFF" stroke-width="1.5" />
<circle cx="488.7" cy="227.9" r="5.5" fill="none" stroke="#000000" stroke-width="1.2" />
<text x="496.7" y="220.9" fill="#111827" font-size="10.5" font-weight="600" text-anchor="start">GaN <tspan fill="#6B7280" font-size="9.5">(+35.9%)</tspan></text>
<line x1="302.9" y1="393.6" x2="302.9" y2="385.6" stroke="#6B7280" stroke-width="1.2" stroke-dasharray="2,2" opacity="0.75" clip-path="url(#plotClip)" />
<circle cx="302.9" cy="385.6" r="5.5" fill="#1F2937" stroke="#FFFFFF" stroke-width="1.5" />
<circle cx="302.9" cy="385.6" r="5.5" fill="none" stroke="#000000" stroke-width="1.2" />
<text x="310.9" y="378.6" fill="#111827" font-size="10.5" font-weight="600" text-anchor="start">Si <tspan fill="#6B7280" font-size="9.5">(+8.0%)</tspan></text>
<line x1="257.5" y1="416.9" x2="257.5" y2="408.0" stroke="#6B7280" stroke-width="1.2" stroke-dasharray="2,2" opacity="0.75" clip-path="url(#plotClip)" />
<circle cx="257.5" cy="408.0" r="5.5" fill="#1F2937" stroke="#FFFFFF" stroke-width="1.5" />
<circle cx="257.5" cy="408.0" r="5.5" fill="none" stroke="#000000" stroke-width="1.2" />
<text x="265.5" y="401.0" fill="#111827" font-size="10.5" font-weight="600" text-anchor="start">GaAs <tspan fill="#6B7280" font-size="9.5">(+11.4%)</tspan></text>
<line x1="189.8" y1="451.6" x2="189.8" y2="447.8" stroke="#6B7280" stroke-width="1.2" stroke-dasharray="2,2" opacity="0.75" clip-path="url(#plotClip)" />
<circle cx="189.8" cy="447.8" r="5.5" fill="#1F2937" stroke="#FFFFFF" stroke-width="1.5" />
<circle cx="189.8" cy="447.8" r="5.5" fill="none" stroke="#000000" stroke-width="1.2" />
<text x="197.8" y="440.8" fill="#111827" font-size="10.5" font-weight="600" text-anchor="start">CdTe <tspan fill="#6B7280" font-size="9.5">(+8.6%)</tspan></text>
<line x1="181.7" y1="455.7" x2="181.7" y2="455.7" stroke="#6B7280" stroke-width="1.2" stroke-dasharray="2,2" opacity="0.75" clip-path="url(#plotClip)" />
<circle cx="181.7" cy="455.7" r="5.5" fill="#1F2937" stroke="#FFFFFF" stroke-width="1.5" />
<circle cx="181.7" cy="455.7" r="5.5" fill="none" stroke="#000000" stroke-width="1.2" />
<text x="189.7" y="448.7" fill="#111827" font-size="10.5" font-weight="600" text-anchor="start">Bi2Te3 <tspan fill="#6B7280" font-size="9.5">(0.0%)</tspan></text>
<line x1="169.6" y1="461.9" x2="169.6" y2="461.9" stroke="#6B7280" stroke-width="1.2" stroke-dasharray="2,2" opacity="0.75" clip-path="url(#plotClip)" />
<circle cx="169.6" cy="461.9" r="5.5" fill="#1F2937" stroke="#FFFFFF" stroke-width="1.5" />
<circle cx="169.6" cy="461.9" r="5.5" fill="none" stroke="#000000" stroke-width="1.2" />
<text x="177.6" y="454.9" fill="#111827" font-size="10.5" font-weight="600" text-anchor="start">Mg1.10Sc0.20Zr1.80(PS4)3 <tspan fill="#6B7280" font-size="9.5">(0.0%)</tspan></text>
<line x1="149.4" y1="472.2" x2="149.4" y2="472.2" stroke="#6B7280" stroke-width="1.2" stroke-dasharray="2,2" opacity="0.75" clip-path="url(#plotClip)" />
<circle cx="149.4" cy="472.2" r="5.5" fill="#1F2937" stroke="#FFFFFF" stroke-width="1.5" />
<circle cx="149.4" cy="472.2" r="5.5" fill="none" stroke="#000000" stroke-width="1.2" />
<text x="157.4" y="465.2" fill="#111827" font-size="10.5" font-weight="600" text-anchor="start">Li10GeP2S12 <tspan fill="#6B7280" font-size="9.5">(0.0%)</tspan></text>
<g transform="translate(105, 564)" font-size="11" fill="#4B5563"><circle cx="6" cy="-4" r="5" fill="#1F2937" stroke="#000000" stroke-width="1.0" /><text x="18" y="0">First-Principles Evaluation Point</text><line x1="210" y1="-4" x2="235" y2="-4" stroke="#111827" stroke-dasharray="5,3" stroke-width="1.5" /><text x="242" y="0">Ideal 1:1 Parity Line</text><rect x="380" y="-8" width="18" height="10" fill="rgba(0, 0, 0, 0.04)" stroke="#9CA3AF" stroke-dasharray="2,2" stroke-width="0.8" /><text x="405" y="0">±10% Confidence Interval</text><line x1="560" y1="-4" x2="585" y2="-4" stroke="#6B7280" stroke-dasharray="2,2" stroke-width="1.2" /><text x="592" y="0">Residual Drop Stem</text></g>
</svg>