<svg xmlns="http://www.w3.org/2000/svg" viewBox="0 0 980 580" width="100%" height="auto" style="background-color: #FFFFFF; border: 1px solid #E5E7EB; border-radius: 4px; font-family: 'Times New Roman', Times, 'DejaVu Serif', 'TeX Gyre Termes', Georgia, serif;">

        <defs>
          <clipPath id="plotClip">
            <rect x="105" y="75" width="820" height="420" />
          </clipPath>
        </defs>
        
<rect x="0" y="0" width="980" height="580" fill="#FFFFFF" />
<text x="105" y="34" fill="#111827" font-size="18" font-weight="bold" letter-spacing="-0.01em">Predicted vs. Actual Parity (Log-Log): Fracture Toughness (K_Ic) [MPa√m]</text>
<text x="105" y="54" fill="#4B5563" font-size="12" font-style="italic">Zero-Parameter First-Principles Multiscale Predictions vs. Experimental Benchmark (Logarithmic Axes, N = 24)</text>
<g transform="translate(735, 90)"><rect width="175" height="92" rx="3" fill="#F9FAFB" stroke="#D1D5DB" stroke-width="1.2" /><text x="14" y="22" fill="#111827" font-size="12" font-weight="bold">Statistical Summary</text><line x1="14" y1="28" x2="161" y2="28" stroke="#D1D5DB" stroke-width="0.8" /><text x="14" y="44" fill="#111827" font-size="11.5">Sample Size: <tspan font-weight="bold">N = 24</tspan></text><text x="14" y="60" fill="#111827" font-size="11.5">Determination: <tspan font-weight="bold">R² = 0.5944</tspan></text><text x="14" y="76" fill="#111827" font-size="11.5">Mean Abs % Err: <tspan font-weight="bold">MAPE = 55.35%</tspan></text></g>
<line x1="187.3" y1="75" x2="187.3" y2="495" stroke="#F3F4F6" stroke-width="0.6" />
<line x1="105" y1="452.9" x2="925" y2="452.9" stroke="#F3F4F6" stroke-width="0.6" />
<line x1="102" y1="452.9" x2="105" y2="452.9" stroke="#111827" stroke-width="0.8" opacity="0.6" />
<line x1="187.3" y1="495" x2="187.3" y2="498" stroke="#111827" stroke-width="0.8" opacity="0.6" />
<line x1="235.4" y1="75" x2="235.4" y2="495" stroke="#F3F4F6" stroke-width="0.6" />
<line x1="105" y1="428.2" x2="925" y2="428.2" stroke="#F3F4F6" stroke-width="0.6" />
<line x1="102" y1="428.2" x2="105" y2="428.2" stroke="#111827" stroke-width="0.8" opacity="0.6" />
<line x1="235.4" y1="495" x2="235.4" y2="498" stroke="#111827" stroke-width="0.8" opacity="0.6" />
<line x1="269.6" y1="75" x2="269.6" y2="495" stroke="#F3F4F6" stroke-width="0.6" />
<line x1="105" y1="410.7" x2="925" y2="410.7" stroke="#F3F4F6" stroke-width="0.6" />
<line x1="102" y1="410.7" x2="105" y2="410.7" stroke="#111827" stroke-width="0.8" opacity="0.6" />
<line x1="269.6" y1="495" x2="269.6" y2="498" stroke="#111827" stroke-width="0.8" opacity="0.6" />
<line x1="296.1" y1="75" x2="296.1" y2="495" stroke="#F3F4F6" stroke-width="0.6" />
<line x1="105" y1="397.1" x2="925" y2="397.1" stroke="#F3F4F6" stroke-width="0.6" />
<line x1="102" y1="397.1" x2="105" y2="397.1" stroke="#111827" stroke-width="0.8" opacity="0.6" />
<line x1="296.1" y1="495" x2="296.1" y2="498" stroke="#111827" stroke-width="0.8" opacity="0.6" />
<line x1="317.7" y1="75" x2="317.7" y2="495" stroke="#F3F4F6" stroke-width="0.6" />
<line x1="105" y1="386.1" x2="925" y2="386.1" stroke="#F3F4F6" stroke-width="0.6" />
<line x1="102" y1="386.1" x2="105" y2="386.1" stroke="#111827" stroke-width="0.8" opacity="0.6" />
<line x1="317.7" y1="495" x2="317.7" y2="498" stroke="#111827" stroke-width="0.8" opacity="0.6" />
<line x1="336.0" y1="75" x2="336.0" y2="495" stroke="#F3F4F6" stroke-width="0.6" />
<line x1="105" y1="376.7" x2="925" y2="376.7" stroke="#F3F4F6" stroke-width="0.6" />
<line x1="102" y1="376.7" x2="105" y2="376.7" stroke="#111827" stroke-width="0.8" opacity="0.6" />
<line x1="336.0" y1="495" x2="336.0" y2="498" stroke="#111827" stroke-width="0.8" opacity="0.6" />
<line x1="351.8" y1="75" x2="351.8" y2="495" stroke="#F3F4F6" stroke-width="0.6" />
<line x1="105" y1="368.6" x2="925" y2="368.6" stroke="#F3F4F6" stroke-width="0.6" />
<line x1="102" y1="368.6" x2="105" y2="368.6" stroke="#111827" stroke-width="0.8" opacity="0.6" />
<line x1="351.8" y1="495" x2="351.8" y2="498" stroke="#111827" stroke-width="0.8" opacity="0.6" />
<line x1="365.8" y1="75" x2="365.8" y2="495" stroke="#F3F4F6" stroke-width="0.6" />
<line x1="105" y1="361.4" x2="925" y2="361.4" stroke="#F3F4F6" stroke-width="0.6" />
<line x1="102" y1="361.4" x2="105" y2="361.4" stroke="#111827" stroke-width="0.8" opacity="0.6" />
<line x1="365.8" y1="495" x2="365.8" y2="498" stroke="#111827" stroke-width="0.8" opacity="0.6" />
<line x1="460.6" y1="75" x2="460.6" y2="495" stroke="#F3F4F6" stroke-width="0.6" />
<line x1="105" y1="312.9" x2="925" y2="312.9" stroke="#F3F4F6" stroke-width="0.6" />
<line x1="102" y1="312.9" x2="105" y2="312.9" stroke="#111827" stroke-width="0.8" opacity="0.6" />
<line x1="460.6" y1="495" x2="460.6" y2="498" stroke="#111827" stroke-width="0.8" opacity="0.6" />
<line x1="508.7" y1="75" x2="508.7" y2="495" stroke="#F3F4F6" stroke-width="0.6" />
<line x1="105" y1="288.2" x2="925" y2="288.2" stroke="#F3F4F6" stroke-width="0.6" />
<line x1="102" y1="288.2" x2="105" y2="288.2" stroke="#111827" stroke-width="0.8" opacity="0.6" />
<line x1="508.7" y1="495" x2="508.7" y2="498" stroke="#111827" stroke-width="0.8" opacity="0.6" />
<line x1="542.9" y1="75" x2="542.9" y2="495" stroke="#F3F4F6" stroke-width="0.6" />
<line x1="105" y1="270.7" x2="925" y2="270.7" stroke="#F3F4F6" stroke-width="0.6" />
<line x1="102" y1="270.7" x2="105" y2="270.7" stroke="#111827" stroke-width="0.8" opacity="0.6" />
<line x1="542.9" y1="495" x2="542.9" y2="498" stroke="#111827" stroke-width="0.8" opacity="0.6" />
<line x1="569.4" y1="75" x2="569.4" y2="495" stroke="#F3F4F6" stroke-width="0.6" />
<line x1="105" y1="257.1" x2="925" y2="257.1" stroke="#F3F4F6" stroke-width="0.6" />
<line x1="102" y1="257.1" x2="105" y2="257.1" stroke="#111827" stroke-width="0.8" opacity="0.6" />
<line x1="569.4" y1="495" x2="569.4" y2="498" stroke="#111827" stroke-width="0.8" opacity="0.6" />
<line x1="591.0" y1="75" x2="591.0" y2="495" stroke="#F3F4F6" stroke-width="0.6" />
<line x1="105" y1="246.1" x2="925" y2="246.1" stroke="#F3F4F6" stroke-width="0.6" />
<line x1="102" y1="246.1" x2="105" y2="246.1" stroke="#111827" stroke-width="0.8" opacity="0.6" />
<line x1="591.0" y1="495" x2="591.0" y2="498" stroke="#111827" stroke-width="0.8" opacity="0.6" />
<line x1="609.3" y1="75" x2="609.3" y2="495" stroke="#F3F4F6" stroke-width="0.6" />
<line x1="105" y1="236.7" x2="925" y2="236.7" stroke="#F3F4F6" stroke-width="0.6" />
<line x1="102" y1="236.7" x2="105" y2="236.7" stroke="#111827" stroke-width="0.8" opacity="0.6" />
<line x1="609.3" y1="495" x2="609.3" y2="498" stroke="#111827" stroke-width="0.8" opacity="0.6" />
<line x1="625.2" y1="75" x2="625.2" y2="495" stroke="#F3F4F6" stroke-width="0.6" />
<line x1="105" y1="228.6" x2="925" y2="228.6" stroke="#F3F4F6" stroke-width="0.6" />
<line x1="102" y1="228.6" x2="105" y2="228.6" stroke="#111827" stroke-width="0.8" opacity="0.6" />
<line x1="625.2" y1="495" x2="625.2" y2="498" stroke="#111827" stroke-width="0.8" opacity="0.6" />
<line x1="639.2" y1="75" x2="639.2" y2="495" stroke="#F3F4F6" stroke-width="0.6" />
<line x1="105" y1="221.4" x2="925" y2="221.4" stroke="#F3F4F6" stroke-width="0.6" />
<line x1="102" y1="221.4" x2="105" y2="221.4" stroke="#111827" stroke-width="0.8" opacity="0.6" />
<line x1="639.2" y1="495" x2="639.2" y2="498" stroke="#111827" stroke-width="0.8" opacity="0.6" />
<line x1="733.9" y1="75" x2="733.9" y2="495" stroke="#F3F4F6" stroke-width="0.6" />
<line x1="105" y1="172.9" x2="925" y2="172.9" stroke="#F3F4F6" stroke-width="0.6" />
<line x1="102" y1="172.9" x2="105" y2="172.9" stroke="#111827" stroke-width="0.8" opacity="0.6" />
<line x1="733.9" y1="495" x2="733.9" y2="498" stroke="#111827" stroke-width="0.8" opacity="0.6" />
<line x1="782.1" y1="75" x2="782.1" y2="495" stroke="#F3F4F6" stroke-width="0.6" />
<line x1="105" y1="148.2" x2="925" y2="148.2" stroke="#F3F4F6" stroke-width="0.6" />
<line x1="102" y1="148.2" x2="105" y2="148.2" stroke="#111827" stroke-width="0.8" opacity="0.6" />
<line x1="782.1" y1="495" x2="782.1" y2="498" stroke="#111827" stroke-width="0.8" opacity="0.6" />
<line x1="816.2" y1="75" x2="816.2" y2="495" stroke="#F3F4F6" stroke-width="0.6" />
<line x1="105" y1="130.7" x2="925" y2="130.7" stroke="#F3F4F6" stroke-width="0.6" />
<line x1="102" y1="130.7" x2="105" y2="130.7" stroke="#111827" stroke-width="0.8" opacity="0.6" />
<line x1="816.2" y1="495" x2="816.2" y2="498" stroke="#111827" stroke-width="0.8" opacity="0.6" />
<line x1="842.7" y1="75" x2="842.7" y2="495" stroke="#F3F4F6" stroke-width="0.6" />
<line x1="105" y1="117.1" x2="925" y2="117.1" stroke="#F3F4F6" stroke-width="0.6" />
<line x1="102" y1="117.1" x2="105" y2="117.1" stroke="#111827" stroke-width="0.8" opacity="0.6" />
<line x1="842.7" y1="495" x2="842.7" y2="498" stroke="#111827" stroke-width="0.8" opacity="0.6" />
<line x1="864.4" y1="75" x2="864.4" y2="495" stroke="#F3F4F6" stroke-width="0.6" />
<line x1="105" y1="106.1" x2="925" y2="106.1" stroke="#F3F4F6" stroke-width="0.6" />
<line x1="102" y1="106.1" x2="105" y2="106.1" stroke="#111827" stroke-width="0.8" opacity="0.6" />
<line x1="864.4" y1="495" x2="864.4" y2="498" stroke="#111827" stroke-width="0.8" opacity="0.6" />
<line x1="882.7" y1="75" x2="882.7" y2="495" stroke="#F3F4F6" stroke-width="0.6" />
<line x1="105" y1="96.7" x2="925" y2="96.7" stroke="#F3F4F6" stroke-width="0.6" />
<line x1="102" y1="96.7" x2="105" y2="96.7" stroke="#111827" stroke-width="0.8" opacity="0.6" />
<line x1="882.7" y1="495" x2="882.7" y2="498" stroke="#111827" stroke-width="0.8" opacity="0.6" />
<line x1="898.5" y1="75" x2="898.5" y2="495" stroke="#F3F4F6" stroke-width="0.6" />
<line x1="105" y1="88.6" x2="925" y2="88.6" stroke="#F3F4F6" stroke-width="0.6" />
<line x1="102" y1="88.6" x2="105" y2="88.6" stroke="#111827" stroke-width="0.8" opacity="0.6" />
<line x1="898.5" y1="495" x2="898.5" y2="498" stroke="#111827" stroke-width="0.8" opacity="0.6" />
<line x1="912.5" y1="75" x2="912.5" y2="495" stroke="#F3F4F6" stroke-width="0.6" />
<line x1="105" y1="81.4" x2="925" y2="81.4" stroke="#F3F4F6" stroke-width="0.6" />
<line x1="102" y1="81.4" x2="105" y2="81.4" stroke="#111827" stroke-width="0.8" opacity="0.6" />
<line x1="912.5" y1="495" x2="912.5" y2="498" stroke="#111827" stroke-width="0.8" opacity="0.6" />
<line x1="105.0" y1="75" x2="105.0" y2="495" stroke="#E5E7EB" stroke-width="1.0" stroke-dasharray="3,3" />
<line x1="105" y1="495.0" x2="925" y2="495.0" stroke="#E5E7EB" stroke-width="1.0" stroke-dasharray="3,3" />
<line x1="99" y1="495.0" x2="105" y2="495.0" stroke="#111827" stroke-width="1.3" />
<text x="95" y="499.0" fill="#111827" font-size="12.5" font-weight="bold" text-anchor="end">0.1</text>
<line x1="105.0" y1="495" x2="105.0" y2="501" stroke="#111827" stroke-width="1.3" />
<text x="105.0" y="518.0" fill="#111827" font-size="12.5" font-weight="bold" text-anchor="middle">0.1</text>
<line x1="378.3" y1="75" x2="378.3" y2="495" stroke="#E5E7EB" stroke-width="1.0" stroke-dasharray="3,3" />
<line x1="105" y1="355.0" x2="925" y2="355.0" stroke="#E5E7EB" stroke-width="1.0" stroke-dasharray="3,3" />
<line x1="99" y1="355.0" x2="105" y2="355.0" stroke="#111827" stroke-width="1.3" />
<text x="95" y="359.0" fill="#111827" font-size="12.5" font-weight="bold" text-anchor="end">1</text>
<line x1="378.3" y1="495" x2="378.3" y2="501" stroke="#111827" stroke-width="1.3" />
<text x="378.3" y="518.0" fill="#111827" font-size="12.5" font-weight="bold" text-anchor="middle">1</text>
<line x1="651.7" y1="75" x2="651.7" y2="495" stroke="#E5E7EB" stroke-width="1.0" stroke-dasharray="3,3" />
<line x1="105" y1="215.0" x2="925" y2="215.0" stroke="#E5E7EB" stroke-width="1.0" stroke-dasharray="3,3" />
<line x1="99" y1="215.0" x2="105" y2="215.0" stroke="#111827" stroke-width="1.3" />
<text x="95" y="219.0" fill="#111827" font-size="12.5" font-weight="bold" text-anchor="end">10</text>
<line x1="651.7" y1="495" x2="651.7" y2="501" stroke="#111827" stroke-width="1.3" />
<text x="651.7" y="518.0" fill="#111827" font-size="12.5" font-weight="bold" text-anchor="middle">10</text>
<line x1="925.0" y1="75" x2="925.0" y2="495" stroke="#E5E7EB" stroke-width="1.0" stroke-dasharray="3,3" />
<line x1="105" y1="75.0" x2="925" y2="75.0" stroke="#E5E7EB" stroke-width="1.0" stroke-dasharray="3,3" />
<line x1="99" y1="75.0" x2="105" y2="75.0" stroke="#111827" stroke-width="1.3" />
<text x="95" y="79.0" fill="#111827" font-size="12.5" font-weight="bold" text-anchor="end">100</text>
<line x1="925.0" y1="495" x2="925.0" y2="501" stroke="#111827" stroke-width="1.3" />
<text x="925.0" y="518.0" fill="#111827" font-size="12.5" font-weight="bold" text-anchor="middle">100</text>
<polygon points="105.0,489.2 925.0,69.2 925.0,81.4 105.0,501.4" fill="rgba(0, 0, 0, 0.04)" clip-path="url(#plotClip)" />
<line x1="105.0" y1="489.2" x2="925.0" y2="69.2" stroke="#9CA3AF" stroke-width="1.0" stroke-dasharray="3,3" clip-path="url(#plotClip)" />
<line x1="105.0" y1="501.4" x2="925.0" y2="81.4" stroke="#9CA3AF" stroke-width="1.0" stroke-dasharray="3,3" clip-path="url(#plotClip)" />
<line x1="105.0" y1="495.0" x2="925.0" y2="75.0" stroke="#111827" stroke-width="1.6" stroke-dasharray="6,4" clip-path="url(#plotClip)" />
<text x="535.0" y="273.0" fill="#6B7280" font-size="11" font-style="italic" transform="rotate(-34 515.0 285.0)">Ideal 1:1 Parity (y = x)</text>
<rect x="105" y="75" width="820" height="420" fill="none" stroke="#111827" stroke-width="1.4" />
<text x="515.0" y="547.0" fill="#111827" font-size="14.5" font-weight="bold" text-anchor="middle">Experimental Ground Truth Value [MPa√m] [Log₁₀ Scale]</text>
<text x="32" y="285.0" fill="#111827" font-size="14.5" font-weight="bold" text-anchor="middle" transform="rotate(-90 32 285.0)">Penziv Predicted Value [MPa√m] [Log₁₀ Scale]</text>
<line x1="873.9" y1="101.2" x2="873.9" y2="131.5" stroke="#6B7280" stroke-width="1.2" stroke-dasharray="2,2" opacity="0.75" clip-path="url(#plotClip)" />
<circle cx="873.9" cy="131.5" r="5.5" fill="#1F2937" stroke="#FFFFFF" stroke-width="1.5" />
<circle cx="873.9" cy="131.5" r="5.5" fill="none" stroke="#000000" stroke-width="1.2" />
<text x="865.9" y="144.5" fill="#111827" font-size="10.5" font-weight="600" text-anchor="end">Cu <tspan fill="#6B7280" font-size="9.5">(-39.2%)</tspan></text>
<line x1="800.4" y1="138.8" x2="800.4" y2="149.8" stroke="#6B7280" stroke-width="1.2" stroke-dasharray="2,2" opacity="0.75" clip-path="url(#plotClip)" />
<circle cx="800.4" cy="149.8" r="5.5" fill="#1F2937" stroke="#FFFFFF" stroke-width="1.5" />
<circle cx="800.4" cy="149.8" r="5.5" fill="none" stroke="#000000" stroke-width="1.2" />
<text x="808.4" y="162.8" fill="#111827" font-size="10.5" font-weight="600" text-anchor="start">Al <tspan fill="#6B7280" font-size="9.5">(-16.6%)</tspan></text>
<line x1="912.5" y1="81.4" x2="912.5" y2="122.7" stroke="#6B7280" stroke-width="1.2" stroke-dasharray="2,2" opacity="0.75" clip-path="url(#plotClip)" />
<circle cx="912.5" cy="122.7" r="5.5" fill="#1F2937" stroke="#FFFFFF" stroke-width="1.5" />
<circle cx="912.5" cy="122.7" r="5.5" fill="none" stroke="#000000" stroke-width="1.2" />
<text x="904.5" y="135.7" fill="#111827" font-size="10.5" font-weight="600" text-anchor="end">Ni <tspan fill="#6B7280" font-size="9.5">(-49.3%)</tspan></text>
<line x1="854.0" y1="111.3" x2="854.0" y2="138.1" stroke="#6B7280" stroke-width="1.2" stroke-dasharray="2,2" opacity="0.75" clip-path="url(#plotClip)" />
<circle cx="854.0" cy="138.1" r="5.5" fill="#1F2937" stroke="#FFFFFF" stroke-width="1.5" />
<circle cx="854.0" cy="138.1" r="5.5" fill="none" stroke="#000000" stroke-width="1.2" />
<text x="846.0" y="151.1" fill="#111827" font-size="10.5" font-weight="600" text-anchor="end">Ti <tspan fill="#6B7280" font-size="9.5">(-35.6%)</tspan></text>
<line x1="782.1" y1="148.2" x2="782.1" y2="86.5" stroke="#6B7280" stroke-width="1.2" stroke-dasharray="2,2" opacity="0.75" clip-path="url(#plotClip)" />
<circle cx="782.1" cy="86.5" r="5.5" fill="#1F2937" stroke="#FFFFFF" stroke-width="1.5" />
<circle cx="782.1" cy="86.5" r="5.5" fill="none" stroke="#000000" stroke-width="1.2" />
<text x="790.1" y="79.5" fill="#111827" font-size="10.5" font-weight="600" text-anchor="start">W <tspan fill="#6B7280" font-size="9.5">(+176.0%)</tspan></text>
<line x1="842.7" y1="117.1" x2="842.7" y2="94.6" stroke="#6B7280" stroke-width="1.2" stroke-dasharray="2,2" opacity="0.75" clip-path="url(#plotClip)" />
<circle cx="842.7" cy="94.6" r="5.5" fill="#1F2937" stroke="#FFFFFF" stroke-width="1.5" />
<circle cx="842.7" cy="94.6" r="5.5" fill="none" stroke="#000000" stroke-width="1.2" />
<text x="850.7" y="87.6" fill="#111827" font-size="10.5" font-weight="600" text-anchor="start">Fe <tspan fill="#6B7280" font-size="9.5">(+45.0%)</tspan></text>
<line x1="925.0" y1="75.0" x2="925.0" y2="89.3" stroke="#6B7280" stroke-width="1.2" stroke-dasharray="2,2" opacity="0.75" clip-path="url(#plotClip)" />
<circle cx="925.0" cy="89.3" r="5.5" fill="#1F2937" stroke="#FFFFFF" stroke-width="1.5" />
<circle cx="925.0" cy="89.3" r="5.5" fill="none" stroke="#000000" stroke-width="1.2" />
<text x="917.0" y="102.3" fill="#111827" font-size="10.5" font-weight="600" text-anchor="end">Fe0.70Cr0.18Ni0.10Mo0.02 <tspan fill="#6B7280" font-size="9.5">(-20.9%)</tspan></text>
<line x1="918.9" y1="78.1" x2="918.9" y2="82.9" stroke="#6B7280" stroke-width="1.2" stroke-dasharray="2,2" opacity="0.75" clip-path="url(#plotClip)" />
<circle cx="918.9" cy="82.9" r="5.5" fill="#1F2937" stroke="#FFFFFF" stroke-width="1.5" />
<circle cx="918.9" cy="82.9" r="5.5" fill="none" stroke="#000000" stroke-width="1.2" />
<text x="910.9" y="95.9" fill="#111827" font-size="10.5" font-weight="600" text-anchor="end">Ni0.53Cr0.19Fe0.18Nb0.05Mo0.03 <tspan fill="#6B7280" font-size="9.5">(-7.6%)</tspan></text>
<line x1="890.9" y1="92.5" x2="890.9" y2="120.4" stroke="#6B7280" stroke-width="1.2" stroke-dasharray="2,2" opacity="0.75" clip-path="url(#plotClip)" />
<circle cx="890.9" cy="120.4" r="5.5" fill="#1F2937" stroke="#FFFFFF" stroke-width="1.5" />
<circle cx="890.9" cy="120.4" r="5.5" fill="none" stroke="#000000" stroke-width="1.2" />
<text x="882.9" y="133.4" fill="#111827" font-size="10.5" font-weight="600" text-anchor="end">Ti0.90Al0.06V0.04 <tspan fill="#6B7280" font-size="9.5">(-36.8%)</tspan></text>
<line x1="782.1" y1="148.2" x2="782.1" y2="82.5" stroke="#6B7280" stroke-width="1.2" stroke-dasharray="2,2" opacity="0.75" clip-path="url(#plotClip)" />
<circle cx="782.1" cy="82.5" r="5.5" fill="#1F2937" stroke="#FFFFFF" stroke-width="1.5" />
<circle cx="782.1" cy="82.5" r="5.5" fill="none" stroke="#000000" stroke-width="1.2" />
<text x="790.1" y="75.5" fill="#111827" font-size="10.5" font-weight="600" text-anchor="start">Nb0.25Mo0.25Ta0.25W0.25 <tspan fill="#6B7280" font-size="9.5">(+194.7%)</tspan></text>
<line x1="632.4" y1="224.9" x2="632.4" y2="343.9" stroke="#6B7280" stroke-width="1.2" stroke-dasharray="2,2" opacity="0.75" clip-path="url(#plotClip)" />
<circle cx="632.4" cy="343.9" r="5.5" fill="#1F2937" stroke="#FFFFFF" stroke-width="1.5" />
<circle cx="632.4" cy="343.9" r="5.5" fill="none" stroke="#000000" stroke-width="1.2" />
<text x="640.4" y="356.9" fill="#111827" font-size="10.5" font-weight="600" text-anchor="start">Ti3SiC2 <tspan fill="#6B7280" font-size="9.5">(-85.9%)</tspan></text>
<line x1="609.3" y1="236.7" x2="609.3" y2="349.2" stroke="#6B7280" stroke-width="1.2" stroke-dasharray="2,2" opacity="0.75" clip-path="url(#plotClip)" />
<circle cx="609.3" cy="349.2" r="5.5" fill="#1F2937" stroke="#FFFFFF" stroke-width="1.5" />
<circle cx="609.3" cy="349.2" r="5.5" fill="none" stroke="#000000" stroke-width="1.2" />
<text x="617.3" y="362.2" fill="#111827" font-size="10.5" font-weight="600" text-anchor="start">Ti2AlC <tspan fill="#6B7280" font-size="9.5">(-84.3%)</tspan></text>
<line x1="448.1" y1="319.3" x2="448.1" y2="316.0" stroke="#6B7280" stroke-width="1.2" stroke-dasharray="2,2" opacity="0.75" clip-path="url(#plotClip)" />
<circle cx="448.1" cy="316.0" r="5.5" fill="#1F2937" stroke="#FFFFFF" stroke-width="1.5" />
<circle cx="448.1" cy="316.0" r="5.5" fill="none" stroke="#000000" stroke-width="1.2" />
<text x="456.1" y="309.0" fill="#111827" font-size="10.5" font-weight="600" text-anchor="start">CaO <tspan fill="#6B7280" font-size="9.5">(+5.6%)</tspan></text>
<line x1="487.1" y1="299.3" x2="487.1" y2="284.3" stroke="#6B7280" stroke-width="1.2" stroke-dasharray="2,2" opacity="0.75" clip-path="url(#plotClip)" />
<circle cx="487.1" cy="284.3" r="5.5" fill="#1F2937" stroke="#FFFFFF" stroke-width="1.5" />
<circle cx="487.1" cy="284.3" r="5.5" fill="none" stroke="#000000" stroke-width="1.2" />
<text x="495.1" y="277.3" fill="#111827" font-size="10.5" font-weight="600" text-anchor="start">MgO <tspan fill="#6B7280" font-size="9.5">(+28.0%)</tspan></text>
<line x1="542.9" y1="270.7" x2="542.9" y2="262.2" stroke="#6B7280" stroke-width="1.2" stroke-dasharray="2,2" opacity="0.75" clip-path="url(#plotClip)" />
<circle cx="542.9" cy="262.2" r="5.5" fill="#1F2937" stroke="#FFFFFF" stroke-width="1.5" />
<circle cx="542.9" cy="262.2" r="5.5" fill="none" stroke="#000000" stroke-width="1.2" />
<text x="550.9" y="255.2" fill="#111827" font-size="10.5" font-weight="600" text-anchor="start">Al2O3 <tspan fill="#6B7280" font-size="9.5">(+15.0%)</tspan></text>
<line x1="500.6" y1="292.4" x2="500.6" y2="260.9" stroke="#6B7280" stroke-width="1.2" stroke-dasharray="2,2" opacity="0.75" clip-path="url(#plotClip)" />
<circle cx="500.6" cy="260.9" r="5.5" fill="#1F2937" stroke="#FFFFFF" stroke-width="1.5" />
<circle cx="500.6" cy="260.9" r="5.5" fill="none" stroke="#000000" stroke-width="1.2" />
<text x="508.6" y="253.9" fill="#111827" font-size="10.5" font-weight="600" text-anchor="start">TiO2 <tspan fill="#6B7280" font-size="9.5">(+67.9%)</tspan></text>
<line x1="556.9" y1="263.6" x2="556.9" y2="272.3" stroke="#6B7280" stroke-width="1.2" stroke-dasharray="2,2" opacity="0.75" clip-path="url(#plotClip)" />
<circle cx="556.9" cy="272.3" r="5.5" fill="#1F2937" stroke="#FFFFFF" stroke-width="1.5" />
<circle cx="556.9" cy="272.3" r="5.5" fill="none" stroke="#000000" stroke-width="1.2" />
<text x="564.9" y="285.3" fill="#111827" font-size="10.5" font-weight="600" text-anchor="start">SiC <tspan fill="#6B7280" font-size="9.5">(-13.3%)</tspan></text>
<line x1="460.6" y1="312.9" x2="460.6" y2="275.5" stroke="#6B7280" stroke-width="1.2" stroke-dasharray="2,2" opacity="0.75" clip-path="url(#plotClip)" />
<circle cx="460.6" cy="275.5" r="5.5" fill="#1F2937" stroke="#FFFFFF" stroke-width="1.5" />
<circle cx="460.6" cy="275.5" r="5.5" fill="none" stroke="#000000" stroke-width="1.2" />
<text x="468.6" y="268.5" fill="#111827" font-size="10.5" font-weight="600" text-anchor="start">GaN <tspan fill="#6B7280" font-size="9.5">(+85.0%)</tspan></text>
<line x1="365.8" y1="361.4" x2="365.8" y2="326.4" stroke="#6B7280" stroke-width="1.2" stroke-dasharray="2,2" opacity="0.75" clip-path="url(#plotClip)" />
<circle cx="365.8" cy="326.4" r="5.5" fill="#1F2937" stroke="#FFFFFF" stroke-width="1.5" />
<circle cx="365.8" cy="326.4" r="5.5" fill="none" stroke="#000000" stroke-width="1.2" />
<text x="373.8" y="319.4" fill="#111827" font-size="10.5" font-weight="600" text-anchor="start">Si <tspan fill="#6B7280" font-size="9.5">(+77.8%)</tspan></text>
<line x1="365.8" y1="361.4" x2="365.8" y2="334.5" stroke="#6B7280" stroke-width="1.2" stroke-dasharray="2,2" opacity="0.75" clip-path="url(#plotClip)" />
<circle cx="365.8" cy="334.5" r="5.5" fill="#1F2937" stroke="#FFFFFF" stroke-width="1.5" />
<circle cx="365.8" cy="334.5" r="5.5" fill="none" stroke="#000000" stroke-width="1.2" />
<text x="373.8" y="327.5" fill="#111827" font-size="10.5" font-weight="600" text-anchor="start">GaAs <tspan fill="#6B7280" font-size="9.5">(+55.6%)</tspan></text>
<line x1="336.0" y1="376.7" x2="336.0" y2="361.4" stroke="#6B7280" stroke-width="1.2" stroke-dasharray="2,2" opacity="0.75" clip-path="url(#plotClip)" />
<circle cx="336.0" cy="361.4" r="5.5" fill="#1F2937" stroke="#FFFFFF" stroke-width="1.5" />
<circle cx="336.0" cy="361.4" r="5.5" fill="none" stroke="#000000" stroke-width="1.2" />
<text x="344.0" y="354.4" fill="#111827" font-size="10.5" font-weight="600" text-anchor="start">CdTe <tspan fill="#6B7280" font-size="9.5">(+28.6%)</tspan></text>
<line x1="389.6" y1="349.2" x2="389.6" y2="361.4" stroke="#6B7280" stroke-width="1.2" stroke-dasharray="2,2" opacity="0.75" clip-path="url(#plotClip)" />
<circle cx="389.6" cy="361.4" r="5.5" fill="#1F2937" stroke="#FFFFFF" stroke-width="1.5" />
<circle cx="389.6" cy="361.4" r="5.5" fill="none" stroke="#000000" stroke-width="1.2" />
<text x="397.6" y="374.4" fill="#111827" font-size="10.5" font-weight="600" text-anchor="start">Bi2Te3 <tspan fill="#6B7280" font-size="9.5">(-18.2%)</tspan></text>
<line x1="400.0" y1="343.9" x2="400.0" y2="428.2" stroke="#6B7280" stroke-width="1.2" stroke-dasharray="2,2" opacity="0.75" clip-path="url(#plotClip)" />
<circle cx="400.0" cy="428.2" r="5.5" fill="#1F2937" stroke="#FFFFFF" stroke-width="1.5" />
<circle cx="400.0" cy="428.2" r="5.5" fill="none" stroke="#000000" stroke-width="1.2" />
<text x="408.0" y="441.2" fill="#111827" font-size="10.5" font-weight="600" text-anchor="start">Mg1.10Sc0.20Zr1.80(PS4)3 <tspan fill="#6B7280" font-size="9.5">(-75.0%)</tspan></text>
<line x1="365.8" y1="361.4" x2="365.8" y2="428.2" stroke="#6B7280" stroke-width="1.2" stroke-dasharray="2,2" opacity="0.75" clip-path="url(#plotClip)" />
<circle cx="365.8" cy="428.2" r="5.5" fill="#1F2937" stroke="#FFFFFF" stroke-width="1.5" />
<circle cx="365.8" cy="428.2" r="5.5" fill="none" stroke="#000000" stroke-width="1.2" />
<text x="373.8" y="441.2" fill="#111827" font-size="10.5" font-weight="600" text-anchor="start">Li10GeP2S12 <tspan fill="#6B7280" font-size="9.5">(-66.7%)</tspan></text>
<g transform="translate(105, 564)" font-size="11" fill="#4B5563"><circle cx="6" cy="-4" r="5" fill="#1F2937" stroke="#000000" stroke-width="1.0" /><text x="18" y="0">First-Principles Evaluation Point</text><line x1="210" y1="-4" x2="235" y2="-4" stroke="#111827" stroke-dasharray="5,3" stroke-width="1.5" /><text x="242" y="0">Ideal 1:1 Parity Line</text><rect x="380" y="-8" width="18" height="10" fill="rgba(0, 0, 0, 0.04)" stroke="#9CA3AF" stroke-dasharray="2,2" stroke-width="0.8" /><text x="405" y="0">±10% Confidence Interval</text><line x1="560" y1="-4" x2="585" y2="-4" stroke="#6B7280" stroke-dasharray="2,2" stroke-width="1.2" /><text x="592" y="0">Residual Drop Stem</text></g>
</svg>