<svg xmlns="http://www.w3.org/2000/svg" viewBox="0 0 980 580" width="100%" height="auto" style="background-color: #FFFFFF; border: 1px solid #E5E7EB; border-radius: 4px; font-family: 'Times New Roman', Times, 'DejaVu Serif', 'TeX Gyre Termes', Georgia, serif;">

        <defs>
          <clipPath id="plotClip">
            <rect x="105" y="75" width="820" height="420" />
          </clipPath>
        </defs>
        
<rect x="0" y="0" width="980" height="580" fill="#FFFFFF" />
<text x="105" y="34" fill="#111827" font-size="18" font-weight="bold" letter-spacing="-0.01em">Predicted vs. Actual Parity (Log-Log): Bulk Modulus (K) [GPa]</text>
<text x="105" y="54" fill="#4B5563" font-size="12" font-style="italic">Zero-Parameter First-Principles Multiscale Predictions vs. Experimental Benchmark (Logarithmic Axes, N = 24)</text>
<g transform="translate(735, 90)"><rect width="175" height="92" rx="3" fill="#F9FAFB" stroke="#D1D5DB" stroke-width="1.2" /><text x="14" y="22" fill="#111827" font-size="12" font-weight="bold">Statistical Summary</text><line x1="14" y1="28" x2="161" y2="28" stroke="#D1D5DB" stroke-width="0.8" /><text x="14" y="44" fill="#111827" font-size="11.5">Sample Size: <tspan font-weight="bold">N = 24</tspan></text><text x="14" y="60" fill="#111827" font-size="11.5">Determination: <tspan font-weight="bold">R² = 0.0000</tspan></text><text x="14" y="76" fill="#111827" font-size="11.5">Mean Abs % Err: <tspan font-weight="bold">MAPE = 58.35%</tspan></text></g>
<line x1="187.3" y1="75" x2="187.3" y2="495" stroke="#F3F4F6" stroke-width="0.6" />
<line x1="105" y1="452.9" x2="925" y2="452.9" stroke="#F3F4F6" stroke-width="0.6" />
<line x1="102" y1="452.9" x2="105" y2="452.9" stroke="#111827" stroke-width="0.8" opacity="0.6" />
<line x1="187.3" y1="495" x2="187.3" y2="498" stroke="#111827" stroke-width="0.8" opacity="0.6" />
<line x1="235.4" y1="75" x2="235.4" y2="495" stroke="#F3F4F6" stroke-width="0.6" />
<line x1="105" y1="428.2" x2="925" y2="428.2" stroke="#F3F4F6" stroke-width="0.6" />
<line x1="102" y1="428.2" x2="105" y2="428.2" stroke="#111827" stroke-width="0.8" opacity="0.6" />
<line x1="235.4" y1="495" x2="235.4" y2="498" stroke="#111827" stroke-width="0.8" opacity="0.6" />
<line x1="269.6" y1="75" x2="269.6" y2="495" stroke="#F3F4F6" stroke-width="0.6" />
<line x1="105" y1="410.7" x2="925" y2="410.7" stroke="#F3F4F6" stroke-width="0.6" />
<line x1="102" y1="410.7" x2="105" y2="410.7" stroke="#111827" stroke-width="0.8" opacity="0.6" />
<line x1="269.6" y1="495" x2="269.6" y2="498" stroke="#111827" stroke-width="0.8" opacity="0.6" />
<line x1="296.1" y1="75" x2="296.1" y2="495" stroke="#F3F4F6" stroke-width="0.6" />
<line x1="105" y1="397.1" x2="925" y2="397.1" stroke="#F3F4F6" stroke-width="0.6" />
<line x1="102" y1="397.1" x2="105" y2="397.1" stroke="#111827" stroke-width="0.8" opacity="0.6" />
<line x1="296.1" y1="495" x2="296.1" y2="498" stroke="#111827" stroke-width="0.8" opacity="0.6" />
<line x1="317.7" y1="75" x2="317.7" y2="495" stroke="#F3F4F6" stroke-width="0.6" />
<line x1="105" y1="386.1" x2="925" y2="386.1" stroke="#F3F4F6" stroke-width="0.6" />
<line x1="102" y1="386.1" x2="105" y2="386.1" stroke="#111827" stroke-width="0.8" opacity="0.6" />
<line x1="317.7" y1="495" x2="317.7" y2="498" stroke="#111827" stroke-width="0.8" opacity="0.6" />
<line x1="336.0" y1="75" x2="336.0" y2="495" stroke="#F3F4F6" stroke-width="0.6" />
<line x1="105" y1="376.7" x2="925" y2="376.7" stroke="#F3F4F6" stroke-width="0.6" />
<line x1="102" y1="376.7" x2="105" y2="376.7" stroke="#111827" stroke-width="0.8" opacity="0.6" />
<line x1="336.0" y1="495" x2="336.0" y2="498" stroke="#111827" stroke-width="0.8" opacity="0.6" />
<line x1="351.8" y1="75" x2="351.8" y2="495" stroke="#F3F4F6" stroke-width="0.6" />
<line x1="105" y1="368.6" x2="925" y2="368.6" stroke="#F3F4F6" stroke-width="0.6" />
<line x1="102" y1="368.6" x2="105" y2="368.6" stroke="#111827" stroke-width="0.8" opacity="0.6" />
<line x1="351.8" y1="495" x2="351.8" y2="498" stroke="#111827" stroke-width="0.8" opacity="0.6" />
<line x1="365.8" y1="75" x2="365.8" y2="495" stroke="#F3F4F6" stroke-width="0.6" />
<line x1="105" y1="361.4" x2="925" y2="361.4" stroke="#F3F4F6" stroke-width="0.6" />
<line x1="102" y1="361.4" x2="105" y2="361.4" stroke="#111827" stroke-width="0.8" opacity="0.6" />
<line x1="365.8" y1="495" x2="365.8" y2="498" stroke="#111827" stroke-width="0.8" opacity="0.6" />
<line x1="460.6" y1="75" x2="460.6" y2="495" stroke="#F3F4F6" stroke-width="0.6" />
<line x1="105" y1="312.9" x2="925" y2="312.9" stroke="#F3F4F6" stroke-width="0.6" />
<line x1="102" y1="312.9" x2="105" y2="312.9" stroke="#111827" stroke-width="0.8" opacity="0.6" />
<line x1="460.6" y1="495" x2="460.6" y2="498" stroke="#111827" stroke-width="0.8" opacity="0.6" />
<line x1="508.7" y1="75" x2="508.7" y2="495" stroke="#F3F4F6" stroke-width="0.6" />
<line x1="105" y1="288.2" x2="925" y2="288.2" stroke="#F3F4F6" stroke-width="0.6" />
<line x1="102" y1="288.2" x2="105" y2="288.2" stroke="#111827" stroke-width="0.8" opacity="0.6" />
<line x1="508.7" y1="495" x2="508.7" y2="498" stroke="#111827" stroke-width="0.8" opacity="0.6" />
<line x1="542.9" y1="75" x2="542.9" y2="495" stroke="#F3F4F6" stroke-width="0.6" />
<line x1="105" y1="270.7" x2="925" y2="270.7" stroke="#F3F4F6" stroke-width="0.6" />
<line x1="102" y1="270.7" x2="105" y2="270.7" stroke="#111827" stroke-width="0.8" opacity="0.6" />
<line x1="542.9" y1="495" x2="542.9" y2="498" stroke="#111827" stroke-width="0.8" opacity="0.6" />
<line x1="569.4" y1="75" x2="569.4" y2="495" stroke="#F3F4F6" stroke-width="0.6" />
<line x1="105" y1="257.1" x2="925" y2="257.1" stroke="#F3F4F6" stroke-width="0.6" />
<line x1="102" y1="257.1" x2="105" y2="257.1" stroke="#111827" stroke-width="0.8" opacity="0.6" />
<line x1="569.4" y1="495" x2="569.4" y2="498" stroke="#111827" stroke-width="0.8" opacity="0.6" />
<line x1="591.0" y1="75" x2="591.0" y2="495" stroke="#F3F4F6" stroke-width="0.6" />
<line x1="105" y1="246.1" x2="925" y2="246.1" stroke="#F3F4F6" stroke-width="0.6" />
<line x1="102" y1="246.1" x2="105" y2="246.1" stroke="#111827" stroke-width="0.8" opacity="0.6" />
<line x1="591.0" y1="495" x2="591.0" y2="498" stroke="#111827" stroke-width="0.8" opacity="0.6" />
<line x1="609.3" y1="75" x2="609.3" y2="495" stroke="#F3F4F6" stroke-width="0.6" />
<line x1="105" y1="236.7" x2="925" y2="236.7" stroke="#F3F4F6" stroke-width="0.6" />
<line x1="102" y1="236.7" x2="105" y2="236.7" stroke="#111827" stroke-width="0.8" opacity="0.6" />
<line x1="609.3" y1="495" x2="609.3" y2="498" stroke="#111827" stroke-width="0.8" opacity="0.6" />
<line x1="625.2" y1="75" x2="625.2" y2="495" stroke="#F3F4F6" stroke-width="0.6" />
<line x1="105" y1="228.6" x2="925" y2="228.6" stroke="#F3F4F6" stroke-width="0.6" />
<line x1="102" y1="228.6" x2="105" y2="228.6" stroke="#111827" stroke-width="0.8" opacity="0.6" />
<line x1="625.2" y1="495" x2="625.2" y2="498" stroke="#111827" stroke-width="0.8" opacity="0.6" />
<line x1="639.2" y1="75" x2="639.2" y2="495" stroke="#F3F4F6" stroke-width="0.6" />
<line x1="105" y1="221.4" x2="925" y2="221.4" stroke="#F3F4F6" stroke-width="0.6" />
<line x1="102" y1="221.4" x2="105" y2="221.4" stroke="#111827" stroke-width="0.8" opacity="0.6" />
<line x1="639.2" y1="495" x2="639.2" y2="498" stroke="#111827" stroke-width="0.8" opacity="0.6" />
<line x1="733.9" y1="75" x2="733.9" y2="495" stroke="#F3F4F6" stroke-width="0.6" />
<line x1="105" y1="172.9" x2="925" y2="172.9" stroke="#F3F4F6" stroke-width="0.6" />
<line x1="102" y1="172.9" x2="105" y2="172.9" stroke="#111827" stroke-width="0.8" opacity="0.6" />
<line x1="733.9" y1="495" x2="733.9" y2="498" stroke="#111827" stroke-width="0.8" opacity="0.6" />
<line x1="782.1" y1="75" x2="782.1" y2="495" stroke="#F3F4F6" stroke-width="0.6" />
<line x1="105" y1="148.2" x2="925" y2="148.2" stroke="#F3F4F6" stroke-width="0.6" />
<line x1="102" y1="148.2" x2="105" y2="148.2" stroke="#111827" stroke-width="0.8" opacity="0.6" />
<line x1="782.1" y1="495" x2="782.1" y2="498" stroke="#111827" stroke-width="0.8" opacity="0.6" />
<line x1="816.2" y1="75" x2="816.2" y2="495" stroke="#F3F4F6" stroke-width="0.6" />
<line x1="105" y1="130.7" x2="925" y2="130.7" stroke="#F3F4F6" stroke-width="0.6" />
<line x1="102" y1="130.7" x2="105" y2="130.7" stroke="#111827" stroke-width="0.8" opacity="0.6" />
<line x1="816.2" y1="495" x2="816.2" y2="498" stroke="#111827" stroke-width="0.8" opacity="0.6" />
<line x1="842.7" y1="75" x2="842.7" y2="495" stroke="#F3F4F6" stroke-width="0.6" />
<line x1="105" y1="117.1" x2="925" y2="117.1" stroke="#F3F4F6" stroke-width="0.6" />
<line x1="102" y1="117.1" x2="105" y2="117.1" stroke="#111827" stroke-width="0.8" opacity="0.6" />
<line x1="842.7" y1="495" x2="842.7" y2="498" stroke="#111827" stroke-width="0.8" opacity="0.6" />
<line x1="864.4" y1="75" x2="864.4" y2="495" stroke="#F3F4F6" stroke-width="0.6" />
<line x1="105" y1="106.1" x2="925" y2="106.1" stroke="#F3F4F6" stroke-width="0.6" />
<line x1="102" y1="106.1" x2="105" y2="106.1" stroke="#111827" stroke-width="0.8" opacity="0.6" />
<line x1="864.4" y1="495" x2="864.4" y2="498" stroke="#111827" stroke-width="0.8" opacity="0.6" />
<line x1="882.7" y1="75" x2="882.7" y2="495" stroke="#F3F4F6" stroke-width="0.6" />
<line x1="105" y1="96.7" x2="925" y2="96.7" stroke="#F3F4F6" stroke-width="0.6" />
<line x1="102" y1="96.7" x2="105" y2="96.7" stroke="#111827" stroke-width="0.8" opacity="0.6" />
<line x1="882.7" y1="495" x2="882.7" y2="498" stroke="#111827" stroke-width="0.8" opacity="0.6" />
<line x1="898.5" y1="75" x2="898.5" y2="495" stroke="#F3F4F6" stroke-width="0.6" />
<line x1="105" y1="88.6" x2="925" y2="88.6" stroke="#F3F4F6" stroke-width="0.6" />
<line x1="102" y1="88.6" x2="105" y2="88.6" stroke="#111827" stroke-width="0.8" opacity="0.6" />
<line x1="898.5" y1="495" x2="898.5" y2="498" stroke="#111827" stroke-width="0.8" opacity="0.6" />
<line x1="912.5" y1="75" x2="912.5" y2="495" stroke="#F3F4F6" stroke-width="0.6" />
<line x1="105" y1="81.4" x2="925" y2="81.4" stroke="#F3F4F6" stroke-width="0.6" />
<line x1="102" y1="81.4" x2="105" y2="81.4" stroke="#111827" stroke-width="0.8" opacity="0.6" />
<line x1="912.5" y1="495" x2="912.5" y2="498" stroke="#111827" stroke-width="0.8" opacity="0.6" />
<line x1="105.0" y1="75" x2="105.0" y2="495" stroke="#E5E7EB" stroke-width="1.0" stroke-dasharray="3,3" />
<line x1="105" y1="495.0" x2="925" y2="495.0" stroke="#E5E7EB" stroke-width="1.0" stroke-dasharray="3,3" />
<line x1="99" y1="495.0" x2="105" y2="495.0" stroke="#111827" stroke-width="1.3" />
<text x="95" y="499.0" fill="#111827" font-size="12.5" font-weight="bold" text-anchor="end">1</text>
<line x1="105.0" y1="495" x2="105.0" y2="501" stroke="#111827" stroke-width="1.3" />
<text x="105.0" y="518.0" fill="#111827" font-size="12.5" font-weight="bold" text-anchor="middle">1</text>
<line x1="378.3" y1="75" x2="378.3" y2="495" stroke="#E5E7EB" stroke-width="1.0" stroke-dasharray="3,3" />
<line x1="105" y1="355.0" x2="925" y2="355.0" stroke="#E5E7EB" stroke-width="1.0" stroke-dasharray="3,3" />
<line x1="99" y1="355.0" x2="105" y2="355.0" stroke="#111827" stroke-width="1.3" />
<text x="95" y="359.0" fill="#111827" font-size="12.5" font-weight="bold" text-anchor="end">10</text>
<line x1="378.3" y1="495" x2="378.3" y2="501" stroke="#111827" stroke-width="1.3" />
<text x="378.3" y="518.0" fill="#111827" font-size="12.5" font-weight="bold" text-anchor="middle">10</text>
<line x1="651.7" y1="75" x2="651.7" y2="495" stroke="#E5E7EB" stroke-width="1.0" stroke-dasharray="3,3" />
<line x1="105" y1="215.0" x2="925" y2="215.0" stroke="#E5E7EB" stroke-width="1.0" stroke-dasharray="3,3" />
<line x1="99" y1="215.0" x2="105" y2="215.0" stroke="#111827" stroke-width="1.3" />
<text x="95" y="219.0" fill="#111827" font-size="12.5" font-weight="bold" text-anchor="end">100</text>
<line x1="651.7" y1="495" x2="651.7" y2="501" stroke="#111827" stroke-width="1.3" />
<text x="651.7" y="518.0" fill="#111827" font-size="12.5" font-weight="bold" text-anchor="middle">100</text>
<line x1="925.0" y1="75" x2="925.0" y2="495" stroke="#E5E7EB" stroke-width="1.0" stroke-dasharray="3,3" />
<line x1="105" y1="75.0" x2="925" y2="75.0" stroke="#E5E7EB" stroke-width="1.0" stroke-dasharray="3,3" />
<line x1="99" y1="75.0" x2="105" y2="75.0" stroke="#111827" stroke-width="1.3" />
<text x="95" y="79.0" fill="#111827" font-size="12.5" font-weight="bold" text-anchor="end">10³</text>
<line x1="925.0" y1="495" x2="925.0" y2="501" stroke="#111827" stroke-width="1.3" />
<text x="925.0" y="518.0" fill="#111827" font-size="12.5" font-weight="bold" text-anchor="middle">10³</text>
<polygon points="105.0,489.2 925.0,69.2 925.0,81.4 105.0,501.4" fill="rgba(0, 0, 0, 0.04)" clip-path="url(#plotClip)" />
<line x1="105.0" y1="489.2" x2="925.0" y2="69.2" stroke="#9CA3AF" stroke-width="1.0" stroke-dasharray="3,3" clip-path="url(#plotClip)" />
<line x1="105.0" y1="501.4" x2="925.0" y2="81.4" stroke="#9CA3AF" stroke-width="1.0" stroke-dasharray="3,3" clip-path="url(#plotClip)" />
<line x1="105.0" y1="495.0" x2="925.0" y2="75.0" stroke="#111827" stroke-width="1.6" stroke-dasharray="6,4" clip-path="url(#plotClip)" />
<text x="535.0" y="273.0" fill="#6B7280" font-size="11" font-style="italic" transform="rotate(-34 515.0 285.0)">Ideal 1:1 Parity (y = x)</text>
<rect x="105" y="75" width="820" height="420" fill="none" stroke="#111827" stroke-width="1.4" />
<text x="515.0" y="547.0" fill="#111827" font-size="14.5" font-weight="bold" text-anchor="middle">Experimental Ground Truth Value [GPa] [Log₁₀ Scale]</text>
<text x="32" y="285.0" fill="#111827" font-size="14.5" font-weight="bold" text-anchor="middle" transform="rotate(-90 32 285.0)">Penziv Predicted Value [GPa] [Log₁₀ Scale]</text>
<line x1="691.6" y1="194.5" x2="691.6" y2="199.5" stroke="#6B7280" stroke-width="1.2" stroke-dasharray="2,2" opacity="0.75" clip-path="url(#plotClip)" />
<circle cx="691.6" cy="199.5" r="5.5" fill="#1F2937" stroke="#FFFFFF" stroke-width="1.5" />
<circle cx="691.6" cy="199.5" r="5.5" fill="none" stroke="#000000" stroke-width="1.2" />
<text x="699.6" y="212.5" fill="#111827" font-size="10.5" font-weight="600" text-anchor="start">Cu <tspan fill="#6B7280" font-size="9.5">(-7.9%)</tspan></text>
<line x1="619.1" y1="231.7" x2="619.1" y2="216.7" stroke="#6B7280" stroke-width="1.2" stroke-dasharray="2,2" opacity="0.75" clip-path="url(#plotClip)" />
<circle cx="619.1" cy="216.7" r="5.5" fill="#1F2937" stroke="#FFFFFF" stroke-width="1.5" />
<circle cx="619.1" cy="216.7" r="5.5" fill="none" stroke="#000000" stroke-width="1.2" />
<text x="627.1" y="209.7" fill="#111827" font-size="10.5" font-weight="600" text-anchor="start">Al <tspan fill="#6B7280" font-size="9.5">(+27.9%)</tspan></text>
<line x1="721.4" y1="179.3" x2="721.4" y2="191.7" stroke="#6B7280" stroke-width="1.2" stroke-dasharray="2,2" opacity="0.75" clip-path="url(#plotClip)" />
<circle cx="721.4" cy="191.7" r="5.5" fill="#1F2937" stroke="#FFFFFF" stroke-width="1.5" />
<circle cx="721.4" cy="191.7" r="5.5" fill="none" stroke="#000000" stroke-width="1.2" />
<text x="729.4" y="204.7" fill="#111827" font-size="10.5" font-weight="600" text-anchor="start">Ni <tspan fill="#6B7280" font-size="9.5">(-18.6%)</tspan></text>
<line x1="663.0" y1="209.2" x2="663.0" y2="217.2" stroke="#6B7280" stroke-width="1.2" stroke-dasharray="2,2" opacity="0.75" clip-path="url(#plotClip)" />
<circle cx="663.0" cy="217.2" r="5.5" fill="#1F2937" stroke="#FFFFFF" stroke-width="1.5" />
<circle cx="663.0" cy="217.2" r="5.5" fill="none" stroke="#000000" stroke-width="1.2" />
<text x="671.0" y="230.2" fill="#111827" font-size="10.5" font-weight="600" text-anchor="start">Ti <tspan fill="#6B7280" font-size="9.5">(-12.4%)</tspan></text>
<line x1="786.0" y1="146.2" x2="786.0" y2="168.0" stroke="#6B7280" stroke-width="1.2" stroke-dasharray="2,2" opacity="0.75" clip-path="url(#plotClip)" />
<circle cx="786.0" cy="168.0" r="5.5" fill="#1F2937" stroke="#FFFFFF" stroke-width="1.5" />
<circle cx="786.0" cy="168.0" r="5.5" fill="none" stroke="#000000" stroke-width="1.2" />
<text x="794.0" y="181.0" fill="#111827" font-size="10.5" font-weight="600" text-anchor="start">W <tspan fill="#6B7280" font-size="9.5">(-30.1%)</tspan></text>
<line x1="714.7" y1="182.7" x2="714.7" y2="183.0" stroke="#6B7280" stroke-width="1.2" stroke-dasharray="2,2" opacity="0.75" clip-path="url(#plotClip)" />
<circle cx="714.7" cy="183.0" r="5.5" fill="#1F2937" stroke="#FFFFFF" stroke-width="1.5" />
<circle cx="714.7" cy="183.0" r="5.5" fill="none" stroke="#000000" stroke-width="1.2" />
<text x="722.7" y="196.0" fill="#111827" font-size="10.5" font-weight="600" text-anchor="start">Fe <tspan fill="#6B7280" font-size="9.5">(-0.5%)</tspan></text>
<line x1="707.5" y1="186.4" x2="707.5" y2="183.3" stroke="#6B7280" stroke-width="1.2" stroke-dasharray="2,2" opacity="0.75" clip-path="url(#plotClip)" />
<circle cx="707.5" cy="183.3" r="5.5" fill="#1F2937" stroke="#FFFFFF" stroke-width="1.5" />
<circle cx="707.5" cy="183.3" r="5.5" fill="none" stroke="#000000" stroke-width="1.2" />
<text x="715.5" y="176.3" fill="#111827" font-size="10.5" font-weight="600" text-anchor="start">Fe0.70Cr0.18Ni0.10Mo0.02 <tspan fill="#6B7280" font-size="9.5">(+5.2%)</tspan></text>
<line x1="716.0" y1="182.0" x2="716.0" y2="187.8" stroke="#6B7280" stroke-width="1.2" stroke-dasharray="2,2" opacity="0.75" clip-path="url(#plotClip)" />
<circle cx="716.0" cy="187.8" r="5.5" fill="#1F2937" stroke="#FFFFFF" stroke-width="1.5" />
<circle cx="716.0" cy="187.8" r="5.5" fill="none" stroke="#000000" stroke-width="1.2" />
<text x="724.0" y="200.8" fill="#111827" font-size="10.5" font-weight="600" text-anchor="start">Ni0.53Cr0.19Fe0.18Nb0.05Mo0.03 <tspan fill="#6B7280" font-size="9.5">(-9.1%)</tspan></text>
<line x1="663.0" y1="209.2" x2="663.0" y2="217.5" stroke="#6B7280" stroke-width="1.2" stroke-dasharray="2,2" opacity="0.75" clip-path="url(#plotClip)" />
<circle cx="663.0" cy="217.5" r="5.5" fill="#1F2937" stroke="#FFFFFF" stroke-width="1.5" />
<circle cx="663.0" cy="217.5" r="5.5" fill="none" stroke="#000000" stroke-width="1.2" />
<text x="671.0" y="230.5" fill="#111827" font-size="10.5" font-weight="600" text-anchor="start">Ti0.90Al0.06V0.04 <tspan fill="#6B7280" font-size="9.5">(-12.8%)</tspan></text>
<line x1="733.9" y1="172.9" x2="733.9" y2="175.7" stroke="#6B7280" stroke-width="1.2" stroke-dasharray="2,2" opacity="0.75" clip-path="url(#plotClip)" />
<circle cx="733.9" cy="175.7" r="5.5" fill="#1F2937" stroke="#FFFFFF" stroke-width="1.5" />
<circle cx="733.9" cy="175.7" r="5.5" fill="none" stroke="#000000" stroke-width="1.2" />
<text x="741.9" y="188.7" fill="#111827" font-size="10.5" font-weight="600" text-anchor="start">Nb0.25Mo0.25Ta0.25W0.25 <tspan fill="#6B7280" font-size="9.5">(-4.6%)</tspan></text>
<line x1="711.1" y1="184.6" x2="711.1" y2="199.0" stroke="#6B7280" stroke-width="1.2" stroke-dasharray="2,2" opacity="0.75" clip-path="url(#plotClip)" />
<circle cx="711.1" cy="199.0" r="5.5" fill="#1F2937" stroke="#FFFFFF" stroke-width="1.5" />
<circle cx="711.1" cy="199.0" r="5.5" fill="none" stroke="#000000" stroke-width="1.2" />
<text x="719.1" y="212.0" fill="#111827" font-size="10.5" font-weight="600" text-anchor="start">Ti3SiC2 <tspan fill="#6B7280" font-size="9.5">(-21.1%)</tspan></text>
<line x1="691.6" y1="194.5" x2="691.6" y2="205.8" stroke="#6B7280" stroke-width="1.2" stroke-dasharray="2,2" opacity="0.75" clip-path="url(#plotClip)" />
<circle cx="691.6" cy="205.8" r="5.5" fill="#1F2937" stroke="#FFFFFF" stroke-width="1.5" />
<circle cx="691.6" cy="205.8" r="5.5" fill="none" stroke="#000000" stroke-width="1.2" />
<text x="699.6" y="218.8" fill="#111827" font-size="10.5" font-weight="600" text-anchor="start">Ti2AlC <tspan fill="#6B7280" font-size="9.5">(-16.9%)</tspan></text>
<line x1="663.0" y1="209.2" x2="663.0" y2="245.0" stroke="#6B7280" stroke-width="1.2" stroke-dasharray="2,2" opacity="0.75" clip-path="url(#plotClip)" />
<circle cx="663.0" cy="245.0" r="5.5" fill="#1F2937" stroke="#FFFFFF" stroke-width="1.5" />
<circle cx="663.0" cy="245.0" r="5.5" fill="none" stroke="#000000" stroke-width="1.2" />
<text x="671.0" y="258.0" fill="#111827" font-size="10.5" font-weight="600" text-anchor="start">CaO <tspan fill="#6B7280" font-size="9.5">(-44.5%)</tspan></text>
<line x1="707.5" y1="186.4" x2="707.5" y2="213.1" stroke="#6B7280" stroke-width="1.2" stroke-dasharray="2,2" opacity="0.75" clip-path="url(#plotClip)" />
<circle cx="707.5" cy="213.1" r="5.5" fill="#1F2937" stroke="#FFFFFF" stroke-width="1.5" />
<circle cx="707.5" cy="213.1" r="5.5" fill="none" stroke="#000000" stroke-width="1.2" />
<text x="715.5" y="226.1" fill="#111827" font-size="10.5" font-weight="600" text-anchor="start">MgO <tspan fill="#6B7280" font-size="9.5">(-35.5%)</tspan></text>
<line x1="755.6" y1="161.8" x2="755.6" y2="298.3" stroke="#6B7280" stroke-width="1.2" stroke-dasharray="2,2" opacity="0.75" clip-path="url(#plotClip)" />
<circle cx="755.6" cy="298.3" r="5.5" fill="#1F2937" stroke="#FFFFFF" stroke-width="1.5" />
<circle cx="755.6" cy="298.3" r="5.5" fill="none" stroke="#000000" stroke-width="1.2" />
<text x="763.6" y="311.3" fill="#111827" font-size="10.5" font-weight="600" text-anchor="start">Al2O3 <tspan fill="#6B7280" font-size="9.5">(-89.4%)</tspan></text>
<line x1="739.7" y1="169.9" x2="739.7" y2="376.7" stroke="#6B7280" stroke-width="1.2" stroke-dasharray="2,2" opacity="0.75" clip-path="url(#plotClip)" />
<circle cx="739.7" cy="376.7" r="5.5" fill="#1F2937" stroke="#FFFFFF" stroke-width="1.5" />
<circle cx="739.7" cy="376.7" r="5.5" fill="none" stroke="#000000" stroke-width="1.2" />
<text x="747.7" y="389.7" fill="#111827" font-size="10.5" font-weight="600" text-anchor="start">TiO2 <tspan fill="#6B7280" font-size="9.5">(-96.7%)</tspan></text>
<line x1="745.3" y1="167.1" x2="745.3" y2="178.8" stroke="#6B7280" stroke-width="1.2" stroke-dasharray="2,2" opacity="0.75" clip-path="url(#plotClip)" />
<circle cx="745.3" cy="178.8" r="5.5" fill="#1F2937" stroke="#FFFFFF" stroke-width="1.5" />
<circle cx="745.3" cy="178.8" r="5.5" fill="none" stroke="#000000" stroke-width="1.2" />
<text x="753.3" y="191.8" fill="#111827" font-size="10.5" font-weight="600" text-anchor="start">SiC <tspan fill="#6B7280" font-size="9.5">(-17.6%)</tspan></text>
<line x1="727.9" y1="176.0" x2="727.9" y2="173.3" stroke="#6B7280" stroke-width="1.2" stroke-dasharray="2,2" opacity="0.75" clip-path="url(#plotClip)" />
<circle cx="727.9" cy="173.3" r="5.5" fill="#1F2937" stroke="#FFFFFF" stroke-width="1.5" />
<circle cx="727.9" cy="173.3" r="5.5" fill="none" stroke="#000000" stroke-width="1.2" />
<text x="735.9" y="166.3" fill="#111827" font-size="10.5" font-weight="600" text-anchor="start">GaN <tspan fill="#6B7280" font-size="9.5">(+4.5%)</tspan></text>
<line x1="649.3" y1="216.2" x2="649.3" y2="184.7" stroke="#6B7280" stroke-width="1.2" stroke-dasharray="2,2" opacity="0.75" clip-path="url(#plotClip)" />
<circle cx="649.3" cy="184.7" r="5.5" fill="#1F2937" stroke="#FFFFFF" stroke-width="1.5" />
<circle cx="649.3" cy="184.7" r="5.5" fill="none" stroke="#000000" stroke-width="1.2" />
<text x="657.3" y="177.7" fill="#111827" font-size="10.5" font-weight="600" text-anchor="start">Si <tspan fill="#6B7280" font-size="9.5">(+68.0%)</tspan></text>
<line x1="618.3" y1="232.1" x2="618.3" y2="196.8" stroke="#6B7280" stroke-width="1.2" stroke-dasharray="2,2" opacity="0.75" clip-path="url(#plotClip)" />
<circle cx="618.3" cy="196.8" r="5.5" fill="#1F2937" stroke="#FFFFFF" stroke-width="1.5" />
<circle cx="618.3" cy="196.8" r="5.5" fill="none" stroke="#000000" stroke-width="1.2" />
<text x="626.3" y="189.8" fill="#111827" font-size="10.5" font-weight="600" text-anchor="start">GaAs <tspan fill="#6B7280" font-size="9.5">(+78.7%)</tspan></text>
<line x1="548.7" y1="267.7" x2="548.7" y2="231.9" stroke="#6B7280" stroke-width="1.2" stroke-dasharray="2,2" opacity="0.75" clip-path="url(#plotClip)" />
<circle cx="548.7" cy="231.9" r="5.5" fill="#1F2937" stroke="#FFFFFF" stroke-width="1.5" />
<circle cx="548.7" cy="231.9" r="5.5" fill="none" stroke="#000000" stroke-width="1.2" />
<text x="556.7" y="224.9" fill="#111827" font-size="10.5" font-weight="600" text-anchor="start">CdTe <tspan fill="#6B7280" font-size="9.5">(+80.2%)</tspan></text>
<line x1="536.8" y1="273.8" x2="536.8" y2="221.7" stroke="#6B7280" stroke-width="1.2" stroke-dasharray="2,2" opacity="0.75" clip-path="url(#plotClip)" />
<circle cx="536.8" cy="221.7" r="5.5" fill="#1F2937" stroke="#FFFFFF" stroke-width="1.5" />
<circle cx="536.8" cy="221.7" r="5.5" fill="none" stroke="#000000" stroke-width="1.2" />
<text x="544.8" y="214.7" fill="#111827" font-size="10.5" font-weight="600" text-anchor="start">Bi2Te3 <tspan fill="#6B7280" font-size="9.5">(+135.8%)</tspan></text>
<line x1="516.4" y1="284.3" x2="516.4" y2="309.0" stroke="#6B7280" stroke-width="1.2" stroke-dasharray="2,2" opacity="0.75" clip-path="url(#plotClip)" />
<circle cx="516.4" cy="309.0" r="5.5" fill="#1F2937" stroke="#FFFFFF" stroke-width="1.5" />
<circle cx="516.4" cy="309.0" r="5.5" fill="none" stroke="#000000" stroke-width="1.2" />
<text x="524.4" y="322.0" fill="#111827" font-size="10.5" font-weight="600" text-anchor="start">Mg1.10Sc0.20Zr1.80(PS4)3 <tspan fill="#6B7280" font-size="9.5">(-33.4%)</tspan></text>
<line x1="471.9" y1="307.1" x2="471.9" y2="193.3" stroke="#6B7280" stroke-width="1.2" stroke-dasharray="2,2" opacity="0.75" clip-path="url(#plotClip)" />
<circle cx="471.9" cy="193.3" r="5.5" fill="#1F2937" stroke="#FFFFFF" stroke-width="1.5" />
<circle cx="471.9" cy="193.3" r="5.5" fill="none" stroke="#000000" stroke-width="1.2" />
<text x="479.9" y="186.3" fill="#111827" font-size="10.5" font-weight="600" text-anchor="start">Li10GeP2S12 <tspan fill="#6B7280" font-size="9.5">(+549.1%)</tspan></text>
<g transform="translate(105, 564)" font-size="11" fill="#4B5563"><circle cx="6" cy="-4" r="5" fill="#1F2937" stroke="#000000" stroke-width="1.0" /><text x="18" y="0">First-Principles Evaluation Point</text><line x1="210" y1="-4" x2="235" y2="-4" stroke="#111827" stroke-dasharray="5,3" stroke-width="1.5" /><text x="242" y="0">Ideal 1:1 Parity Line</text><rect x="380" y="-8" width="18" height="10" fill="rgba(0, 0, 0, 0.04)" stroke="#9CA3AF" stroke-dasharray="2,2" stroke-width="0.8" /><text x="405" y="0">±10% Confidence Interval</text><line x1="560" y1="-4" x2="585" y2="-4" stroke="#6B7280" stroke-dasharray="2,2" stroke-width="1.2" /><text x="592" y="0">Residual Drop Stem</text></g>
</svg>