<svg xmlns="http://www.w3.org/2000/svg" viewBox="0 0 980 580" width="100%" height="auto" style="background-color: #FFFFFF; border: 1px solid #E5E7EB; border-radius: 4px; font-family: 'Times New Roman', Times, 'DejaVu Serif', 'TeX Gyre Termes', Georgia, serif;">

        <defs>
          <clipPath id="plotClip">
            <rect x="105" y="75" width="820" height="420" />
          </clipPath>
        </defs>
        
<rect x="0" y="0" width="980" height="580" fill="#FFFFFF" />
<text x="105" y="34" fill="#111827" font-size="18" font-weight="bold" letter-spacing="-0.01em">Predicted vs. Actual Parity (Log-Log): Young&#x27;s Modulus (E) [GPa]</text>
<text x="105" y="54" fill="#4B5563" font-size="12" font-style="italic">Zero-Parameter First-Principles Multiscale Predictions vs. Experimental Benchmark (Logarithmic Axes, N = 24)</text>
<g transform="translate(735, 90)"><rect width="175" height="92" rx="3" fill="#F9FAFB" stroke="#D1D5DB" stroke-width="1.2" /><text x="14" y="22" fill="#111827" font-size="12" font-weight="bold">Statistical Summary</text><line x1="14" y1="28" x2="161" y2="28" stroke="#D1D5DB" stroke-width="0.8" /><text x="14" y="44" fill="#111827" font-size="11.5">Sample Size: <tspan font-weight="bold">N = 24</tspan></text><text x="14" y="60" fill="#111827" font-size="11.5">Determination: <tspan font-weight="bold">R² = 0.7341</tspan></text><text x="14" y="76" fill="#111827" font-size="11.5">Mean Abs % Err: <tspan font-weight="bold">MAPE = 24.06%</tspan></text></g>
<line x1="228.4" y1="75" x2="228.4" y2="495" stroke="#F3F4F6" stroke-width="0.6" />
<line x1="105" y1="431.8" x2="925" y2="431.8" stroke="#F3F4F6" stroke-width="0.6" />
<line x1="102" y1="431.8" x2="105" y2="431.8" stroke="#111827" stroke-width="0.8" opacity="0.6" />
<line x1="228.4" y1="495" x2="228.4" y2="498" stroke="#111827" stroke-width="0.8" opacity="0.6" />
<line x1="300.6" y1="75" x2="300.6" y2="495" stroke="#F3F4F6" stroke-width="0.6" />
<line x1="105" y1="394.8" x2="925" y2="394.8" stroke="#F3F4F6" stroke-width="0.6" />
<line x1="102" y1="394.8" x2="105" y2="394.8" stroke="#111827" stroke-width="0.8" opacity="0.6" />
<line x1="300.6" y1="495" x2="300.6" y2="498" stroke="#111827" stroke-width="0.8" opacity="0.6" />
<line x1="351.8" y1="75" x2="351.8" y2="495" stroke="#F3F4F6" stroke-width="0.6" />
<line x1="105" y1="368.6" x2="925" y2="368.6" stroke="#F3F4F6" stroke-width="0.6" />
<line x1="102" y1="368.6" x2="105" y2="368.6" stroke="#111827" stroke-width="0.8" opacity="0.6" />
<line x1="351.8" y1="495" x2="351.8" y2="498" stroke="#111827" stroke-width="0.8" opacity="0.6" />
<line x1="391.6" y1="75" x2="391.6" y2="495" stroke="#F3F4F6" stroke-width="0.6" />
<line x1="105" y1="348.2" x2="925" y2="348.2" stroke="#F3F4F6" stroke-width="0.6" />
<line x1="102" y1="348.2" x2="105" y2="348.2" stroke="#111827" stroke-width="0.8" opacity="0.6" />
<line x1="391.6" y1="495" x2="391.6" y2="498" stroke="#111827" stroke-width="0.8" opacity="0.6" />
<line x1="424.0" y1="75" x2="424.0" y2="495" stroke="#F3F4F6" stroke-width="0.6" />
<line x1="105" y1="331.6" x2="925" y2="331.6" stroke="#F3F4F6" stroke-width="0.6" />
<line x1="102" y1="331.6" x2="105" y2="331.6" stroke="#111827" stroke-width="0.8" opacity="0.6" />
<line x1="424.0" y1="495" x2="424.0" y2="498" stroke="#111827" stroke-width="0.8" opacity="0.6" />
<line x1="451.5" y1="75" x2="451.5" y2="495" stroke="#F3F4F6" stroke-width="0.6" />
<line x1="105" y1="317.5" x2="925" y2="317.5" stroke="#F3F4F6" stroke-width="0.6" />
<line x1="102" y1="317.5" x2="105" y2="317.5" stroke="#111827" stroke-width="0.8" opacity="0.6" />
<line x1="451.5" y1="495" x2="451.5" y2="498" stroke="#111827" stroke-width="0.8" opacity="0.6" />
<line x1="475.3" y1="75" x2="475.3" y2="495" stroke="#F3F4F6" stroke-width="0.6" />
<line x1="105" y1="305.4" x2="925" y2="305.4" stroke="#F3F4F6" stroke-width="0.6" />
<line x1="102" y1="305.4" x2="105" y2="305.4" stroke="#111827" stroke-width="0.8" opacity="0.6" />
<line x1="475.3" y1="495" x2="475.3" y2="498" stroke="#111827" stroke-width="0.8" opacity="0.6" />
<line x1="496.2" y1="75" x2="496.2" y2="495" stroke="#F3F4F6" stroke-width="0.6" />
<line x1="105" y1="294.6" x2="925" y2="294.6" stroke="#F3F4F6" stroke-width="0.6" />
<line x1="102" y1="294.6" x2="105" y2="294.6" stroke="#111827" stroke-width="0.8" opacity="0.6" />
<line x1="496.2" y1="495" x2="496.2" y2="498" stroke="#111827" stroke-width="0.8" opacity="0.6" />
<line x1="638.4" y1="75" x2="638.4" y2="495" stroke="#F3F4F6" stroke-width="0.6" />
<line x1="105" y1="221.8" x2="925" y2="221.8" stroke="#F3F4F6" stroke-width="0.6" />
<line x1="102" y1="221.8" x2="105" y2="221.8" stroke="#111827" stroke-width="0.8" opacity="0.6" />
<line x1="638.4" y1="495" x2="638.4" y2="498" stroke="#111827" stroke-width="0.8" opacity="0.6" />
<line x1="710.6" y1="75" x2="710.6" y2="495" stroke="#F3F4F6" stroke-width="0.6" />
<line x1="105" y1="184.8" x2="925" y2="184.8" stroke="#F3F4F6" stroke-width="0.6" />
<line x1="102" y1="184.8" x2="105" y2="184.8" stroke="#111827" stroke-width="0.8" opacity="0.6" />
<line x1="710.6" y1="495" x2="710.6" y2="498" stroke="#111827" stroke-width="0.8" opacity="0.6" />
<line x1="761.8" y1="75" x2="761.8" y2="495" stroke="#F3F4F6" stroke-width="0.6" />
<line x1="105" y1="158.6" x2="925" y2="158.6" stroke="#F3F4F6" stroke-width="0.6" />
<line x1="102" y1="158.6" x2="105" y2="158.6" stroke="#111827" stroke-width="0.8" opacity="0.6" />
<line x1="761.8" y1="495" x2="761.8" y2="498" stroke="#111827" stroke-width="0.8" opacity="0.6" />
<line x1="801.6" y1="75" x2="801.6" y2="495" stroke="#F3F4F6" stroke-width="0.6" />
<line x1="105" y1="138.2" x2="925" y2="138.2" stroke="#F3F4F6" stroke-width="0.6" />
<line x1="102" y1="138.2" x2="105" y2="138.2" stroke="#111827" stroke-width="0.8" opacity="0.6" />
<line x1="801.6" y1="495" x2="801.6" y2="498" stroke="#111827" stroke-width="0.8" opacity="0.6" />
<line x1="834.0" y1="75" x2="834.0" y2="495" stroke="#F3F4F6" stroke-width="0.6" />
<line x1="105" y1="121.6" x2="925" y2="121.6" stroke="#F3F4F6" stroke-width="0.6" />
<line x1="102" y1="121.6" x2="105" y2="121.6" stroke="#111827" stroke-width="0.8" opacity="0.6" />
<line x1="834.0" y1="495" x2="834.0" y2="498" stroke="#111827" stroke-width="0.8" opacity="0.6" />
<line x1="861.5" y1="75" x2="861.5" y2="495" stroke="#F3F4F6" stroke-width="0.6" />
<line x1="105" y1="107.5" x2="925" y2="107.5" stroke="#F3F4F6" stroke-width="0.6" />
<line x1="102" y1="107.5" x2="105" y2="107.5" stroke="#111827" stroke-width="0.8" opacity="0.6" />
<line x1="861.5" y1="495" x2="861.5" y2="498" stroke="#111827" stroke-width="0.8" opacity="0.6" />
<line x1="885.3" y1="75" x2="885.3" y2="495" stroke="#F3F4F6" stroke-width="0.6" />
<line x1="105" y1="95.4" x2="925" y2="95.4" stroke="#F3F4F6" stroke-width="0.6" />
<line x1="102" y1="95.4" x2="105" y2="95.4" stroke="#111827" stroke-width="0.8" opacity="0.6" />
<line x1="885.3" y1="495" x2="885.3" y2="498" stroke="#111827" stroke-width="0.8" opacity="0.6" />
<line x1="906.2" y1="75" x2="906.2" y2="495" stroke="#F3F4F6" stroke-width="0.6" />
<line x1="105" y1="84.6" x2="925" y2="84.6" stroke="#F3F4F6" stroke-width="0.6" />
<line x1="102" y1="84.6" x2="105" y2="84.6" stroke="#111827" stroke-width="0.8" opacity="0.6" />
<line x1="906.2" y1="495" x2="906.2" y2="498" stroke="#111827" stroke-width="0.8" opacity="0.6" />
<line x1="105.0" y1="75" x2="105.0" y2="495" stroke="#E5E7EB" stroke-width="1.0" stroke-dasharray="3,3" />
<line x1="105" y1="495.0" x2="925" y2="495.0" stroke="#E5E7EB" stroke-width="1.0" stroke-dasharray="3,3" />
<line x1="99" y1="495.0" x2="105" y2="495.0" stroke="#111827" stroke-width="1.3" />
<text x="95" y="499.0" fill="#111827" font-size="12.5" font-weight="bold" text-anchor="end">10</text>
<line x1="105.0" y1="495" x2="105.0" y2="501" stroke="#111827" stroke-width="1.3" />
<text x="105.0" y="518.0" fill="#111827" font-size="12.5" font-weight="bold" text-anchor="middle">10</text>
<line x1="515.0" y1="75" x2="515.0" y2="495" stroke="#E5E7EB" stroke-width="1.0" stroke-dasharray="3,3" />
<line x1="105" y1="285.0" x2="925" y2="285.0" stroke="#E5E7EB" stroke-width="1.0" stroke-dasharray="3,3" />
<line x1="99" y1="285.0" x2="105" y2="285.0" stroke="#111827" stroke-width="1.3" />
<text x="95" y="289.0" fill="#111827" font-size="12.5" font-weight="bold" text-anchor="end">100</text>
<line x1="515.0" y1="495" x2="515.0" y2="501" stroke="#111827" stroke-width="1.3" />
<text x="515.0" y="518.0" fill="#111827" font-size="12.5" font-weight="bold" text-anchor="middle">100</text>
<line x1="925.0" y1="75" x2="925.0" y2="495" stroke="#E5E7EB" stroke-width="1.0" stroke-dasharray="3,3" />
<line x1="105" y1="75.0" x2="925" y2="75.0" stroke="#E5E7EB" stroke-width="1.0" stroke-dasharray="3,3" />
<line x1="99" y1="75.0" x2="105" y2="75.0" stroke="#111827" stroke-width="1.3" />
<text x="95" y="79.0" fill="#111827" font-size="12.5" font-weight="bold" text-anchor="end">10³</text>
<line x1="925.0" y1="495" x2="925.0" y2="501" stroke="#111827" stroke-width="1.3" />
<text x="925.0" y="518.0" fill="#111827" font-size="12.5" font-weight="bold" text-anchor="middle">10³</text>
<polygon points="105.0,486.3 925.0,66.3 925.0,84.6 105.0,504.6" fill="rgba(0, 0, 0, 0.04)" clip-path="url(#plotClip)" />
<line x1="105.0" y1="486.3" x2="925.0" y2="66.3" stroke="#9CA3AF" stroke-width="1.0" stroke-dasharray="3,3" clip-path="url(#plotClip)" />
<line x1="105.0" y1="504.6" x2="925.0" y2="84.6" stroke="#9CA3AF" stroke-width="1.0" stroke-dasharray="3,3" clip-path="url(#plotClip)" />
<line x1="105.0" y1="495.0" x2="925.0" y2="75.0" stroke="#111827" stroke-width="1.6" stroke-dasharray="6,4" clip-path="url(#plotClip)" />
<text x="535.0" y="273.0" fill="#6B7280" font-size="11" font-style="italic" transform="rotate(-34 515.0 285.0)">Ideal 1:1 Parity (y = x)</text>
<rect x="105" y="75" width="820" height="420" fill="none" stroke="#111827" stroke-width="1.4" />
<text x="515.0" y="547.0" fill="#111827" font-size="14.5" font-weight="bold" text-anchor="middle">Experimental Ground Truth Value [GPa] [Log₁₀ Scale]</text>
<text x="32" y="285.0" fill="#111827" font-size="14.5" font-weight="bold" text-anchor="middle" transform="rotate(-90 32 285.0)">Penziv Predicted Value [GPa] [Log₁₀ Scale]</text>
<line x1="559.0" y1="262.5" x2="559.0" y2="252.3" stroke="#6B7280" stroke-width="1.2" stroke-dasharray="2,2" opacity="0.75" clip-path="url(#plotClip)" />
<circle cx="559.0" cy="252.3" r="5.5" fill="#1F2937" stroke="#FFFFFF" stroke-width="1.5" />
<circle cx="559.0" cy="252.3" r="5.5" fill="none" stroke="#000000" stroke-width="1.2" />
<text x="567.0" y="245.3" fill="#111827" font-size="10.5" font-weight="600" text-anchor="start">Cu <tspan fill="#6B7280" font-size="9.5">(+11.8%)</tspan></text>
<line x1="451.5" y1="317.5" x2="451.5" y2="289.7" stroke="#6B7280" stroke-width="1.2" stroke-dasharray="2,2" opacity="0.75" clip-path="url(#plotClip)" />
<circle cx="451.5" cy="289.7" r="5.5" fill="#1F2937" stroke="#FFFFFF" stroke-width="1.5" />
<circle cx="451.5" cy="289.7" r="5.5" fill="none" stroke="#000000" stroke-width="1.2" />
<text x="459.5" y="282.7" fill="#111827" font-size="10.5" font-weight="600" text-anchor="start">Al <tspan fill="#6B7280" font-size="9.5">(+35.7%)</tspan></text>
<line x1="638.4" y1="221.8" x2="638.4" y2="234.2" stroke="#6B7280" stroke-width="1.2" stroke-dasharray="2,2" opacity="0.75" clip-path="url(#plotClip)" />
<circle cx="638.4" cy="234.2" r="5.5" fill="#1F2937" stroke="#FFFFFF" stroke-width="1.5" />
<circle cx="638.4" cy="234.2" r="5.5" fill="none" stroke="#000000" stroke-width="1.2" />
<text x="646.4" y="247.2" fill="#111827" font-size="10.5" font-weight="600" text-anchor="start">Ni <tspan fill="#6B7280" font-size="9.5">(-12.8%)</tspan></text>
<line x1="541.4" y1="271.5" x2="541.4" y2="286.2" stroke="#6B7280" stroke-width="1.2" stroke-dasharray="2,2" opacity="0.75" clip-path="url(#plotClip)" />
<circle cx="541.4" cy="286.2" r="5.5" fill="#1F2937" stroke="#FFFFFF" stroke-width="1.5" />
<circle cx="541.4" cy="286.2" r="5.5" fill="none" stroke="#000000" stroke-width="1.2" />
<text x="549.4" y="299.2" fill="#111827" font-size="10.5" font-weight="600" text-anchor="start">Ti <tspan fill="#6B7280" font-size="9.5">(-14.9%)</tspan></text>
<line x1="766.7" y1="156.1" x2="766.7" y2="198.0" stroke="#6B7280" stroke-width="1.2" stroke-dasharray="2,2" opacity="0.75" clip-path="url(#plotClip)" />
<circle cx="766.7" cy="198.0" r="5.5" fill="#1F2937" stroke="#FFFFFF" stroke-width="1.5" />
<circle cx="766.7" cy="198.0" r="5.5" fill="none" stroke="#000000" stroke-width="1.2" />
<text x="774.7" y="211.0" fill="#111827" font-size="10.5" font-weight="600" text-anchor="start">W <tspan fill="#6B7280" font-size="9.5">(-36.9%)</tspan></text>
<line x1="648.0" y1="216.9" x2="648.0" y2="214.3" stroke="#6B7280" stroke-width="1.2" stroke-dasharray="2,2" opacity="0.75" clip-path="url(#plotClip)" />
<circle cx="648.0" cy="214.3" r="5.5" fill="#1F2937" stroke="#FFFFFF" stroke-width="1.5" />
<circle cx="648.0" cy="214.3" r="5.5" fill="none" stroke="#000000" stroke-width="1.2" />
<text x="656.0" y="207.3" fill="#111827" font-size="10.5" font-weight="600" text-anchor="start">Fe <tspan fill="#6B7280" font-size="9.5">(+2.9%)</tspan></text>
<line x1="642.8" y1="219.5" x2="642.8" y2="209.5" stroke="#6B7280" stroke-width="1.2" stroke-dasharray="2,2" opacity="0.75" clip-path="url(#plotClip)" />
<circle cx="642.8" cy="209.5" r="5.5" fill="#1F2937" stroke="#FFFFFF" stroke-width="1.5" />
<circle cx="642.8" cy="209.5" r="5.5" fill="none" stroke="#000000" stroke-width="1.2" />
<text x="650.8" y="202.5" fill="#111827" font-size="10.5" font-weight="600" text-anchor="start">Fe0.70Cr0.18Ni0.10Mo0.02 <tspan fill="#6B7280" font-size="9.5">(+11.7%)</tspan></text>
<line x1="648.0" y1="216.9" x2="648.0" y2="220.3" stroke="#6B7280" stroke-width="1.2" stroke-dasharray="2,2" opacity="0.75" clip-path="url(#plotClip)" />
<circle cx="648.0" cy="220.3" r="5.5" fill="#1F2937" stroke="#FFFFFF" stroke-width="1.5" />
<circle cx="648.0" cy="220.3" r="5.5" fill="none" stroke="#000000" stroke-width="1.2" />
<text x="656.0" y="233.3" fill="#111827" font-size="10.5" font-weight="600" text-anchor="start">Ni0.53Cr0.19Fe0.18Nb0.05Mo0.03 <tspan fill="#6B7280" font-size="9.5">(-3.6%)</tspan></text>
<line x1="538.3" y1="273.0" x2="538.3" y2="282.1" stroke="#6B7280" stroke-width="1.2" stroke-dasharray="2,2" opacity="0.75" clip-path="url(#plotClip)" />
<circle cx="538.3" cy="282.1" r="5.5" fill="#1F2937" stroke="#FFFFFF" stroke-width="1.5" />
<circle cx="538.3" cy="282.1" r="5.5" fill="none" stroke="#000000" stroke-width="1.2" />
<text x="546.3" y="295.1" fill="#111827" font-size="10.5" font-weight="600" text-anchor="start">Ti0.90Al0.06V0.04 <tspan fill="#6B7280" font-size="9.5">(-9.5%)</tspan></text>
<line x1="698.3" y1="191.1" x2="698.3" y2="217.4" stroke="#6B7280" stroke-width="1.2" stroke-dasharray="2,2" opacity="0.75" clip-path="url(#plotClip)" />
<circle cx="698.3" cy="217.4" r="5.5" fill="#1F2937" stroke="#FFFFFF" stroke-width="1.5" />
<circle cx="698.3" cy="217.4" r="5.5" fill="none" stroke="#000000" stroke-width="1.2" />
<text x="706.3" y="230.4" fill="#111827" font-size="10.5" font-weight="600" text-anchor="start">Nb0.25Mo0.25Ta0.25W0.25 <tspan fill="#6B7280" font-size="9.5">(-25.1%)</tspan></text>
<line x1="732.9" y1="173.4" x2="732.9" y2="229.0" stroke="#6B7280" stroke-width="1.2" stroke-dasharray="2,2" opacity="0.75" clip-path="url(#plotClip)" />
<circle cx="732.9" cy="229.0" r="5.5" fill="#1F2937" stroke="#FFFFFF" stroke-width="1.5" />
<circle cx="732.9" cy="229.0" r="5.5" fill="none" stroke="#000000" stroke-width="1.2" />
<text x="740.9" y="242.0" fill="#111827" font-size="10.5" font-weight="600" text-anchor="start">Ti3SiC2 <tspan fill="#6B7280" font-size="9.5">(-45.7%)</tspan></text>
<line x1="697.1" y1="191.8" x2="697.1" y2="234.4" stroke="#6B7280" stroke-width="1.2" stroke-dasharray="2,2" opacity="0.75" clip-path="url(#plotClip)" />
<circle cx="697.1" cy="234.4" r="5.5" fill="#1F2937" stroke="#FFFFFF" stroke-width="1.5" />
<circle cx="697.1" cy="234.4" r="5.5" fill="none" stroke="#000000" stroke-width="1.2" />
<text x="705.1" y="247.4" fill="#111827" font-size="10.5" font-weight="600" text-anchor="start">Ti2AlC <tspan fill="#6B7280" font-size="9.5">(-37.3%)</tspan></text>
<line x1="624.5" y1="228.9" x2="624.5" y2="241.9" stroke="#6B7280" stroke-width="1.2" stroke-dasharray="2,2" opacity="0.75" clip-path="url(#plotClip)" />
<circle cx="624.5" cy="241.9" r="5.5" fill="#1F2937" stroke="#FFFFFF" stroke-width="1.5" />
<circle cx="624.5" cy="241.9" r="5.5" fill="none" stroke="#000000" stroke-width="1.2" />
<text x="632.5" y="254.9" fill="#111827" font-size="10.5" font-weight="600" text-anchor="start">CaO <tspan fill="#6B7280" font-size="9.5">(-13.2%)</tspan></text>
<line x1="678.2" y1="201.4" x2="678.2" y2="186.3" stroke="#6B7280" stroke-width="1.2" stroke-dasharray="2,2" opacity="0.75" clip-path="url(#plotClip)" />
<circle cx="678.2" cy="186.3" r="5.5" fill="#1F2937" stroke="#FFFFFF" stroke-width="1.5" />
<circle cx="678.2" cy="186.3" r="5.5" fill="none" stroke="#000000" stroke-width="1.2" />
<text x="686.2" y="179.3" fill="#111827" font-size="10.5" font-weight="600" text-anchor="start">MgO <tspan fill="#6B7280" font-size="9.5">(+18.0%)</tspan></text>
<line x1="752.7" y1="163.2" x2="752.7" y2="165.1" stroke="#6B7280" stroke-width="1.2" stroke-dasharray="2,2" opacity="0.75" clip-path="url(#plotClip)" />
<circle cx="752.7" cy="165.1" r="5.5" fill="#1F2937" stroke="#FFFFFF" stroke-width="1.5" />
<circle cx="752.7" cy="165.1" r="5.5" fill="none" stroke="#000000" stroke-width="1.2" />
<text x="760.7" y="178.1" fill="#111827" font-size="10.5" font-weight="600" text-anchor="start">Al2O3 <tspan fill="#6B7280" font-size="9.5">(-2.0%)</tspan></text>
<line x1="663.3" y1="209.0" x2="663.3" y2="176.2" stroke="#6B7280" stroke-width="1.2" stroke-dasharray="2,2" opacity="0.75" clip-path="url(#plotClip)" />
<circle cx="663.3" cy="176.2" r="5.5" fill="#1F2937" stroke="#FFFFFF" stroke-width="1.5" />
<circle cx="663.3" cy="176.2" r="5.5" fill="none" stroke="#000000" stroke-width="1.2" />
<text x="671.3" y="169.2" fill="#111827" font-size="10.5" font-weight="600" text-anchor="start">TiO2 <tspan fill="#6B7280" font-size="9.5">(+43.4%)</tspan></text>
<line x1="768.4" y1="155.2" x2="768.4" y2="167.3" stroke="#6B7280" stroke-width="1.2" stroke-dasharray="2,2" opacity="0.75" clip-path="url(#plotClip)" />
<circle cx="768.4" cy="167.3" r="5.5" fill="#1F2937" stroke="#FFFFFF" stroke-width="1.5" />
<circle cx="768.4" cy="167.3" r="5.5" fill="none" stroke="#000000" stroke-width="1.2" />
<text x="776.4" y="180.3" fill="#111827" font-size="10.5" font-weight="600" text-anchor="start">SiC <tspan fill="#6B7280" font-size="9.5">(-12.4%)</tspan></text>
<line x1="707.6" y1="186.3" x2="707.6" y2="184.7" stroke="#6B7280" stroke-width="1.2" stroke-dasharray="2,2" opacity="0.75" clip-path="url(#plotClip)" />
<circle cx="707.6" cy="184.7" r="5.5" fill="#1F2937" stroke="#FFFFFF" stroke-width="1.5" />
<circle cx="707.6" cy="184.7" r="5.5" fill="none" stroke="#000000" stroke-width="1.2" />
<text x="715.6" y="177.7" fill="#111827" font-size="10.5" font-weight="600" text-anchor="start">GaN <tspan fill="#6B7280" font-size="9.5">(+1.8%)</tspan></text>
<line x1="604.2" y1="239.3" x2="604.2" y2="246.7" stroke="#6B7280" stroke-width="1.2" stroke-dasharray="2,2" opacity="0.75" clip-path="url(#plotClip)" />
<circle cx="604.2" cy="246.7" r="5.5" fill="#1F2937" stroke="#FFFFFF" stroke-width="1.5" />
<circle cx="604.2" cy="246.7" r="5.5" fill="none" stroke="#000000" stroke-width="1.2" />
<text x="612.2" y="259.7" fill="#111827" font-size="10.5" font-weight="600" text-anchor="start">Si <tspan fill="#6B7280" font-size="9.5">(-7.8%)</tspan></text>
<line x1="487.1" y1="299.3" x2="487.1" y2="261.1" stroke="#6B7280" stroke-width="1.2" stroke-dasharray="2,2" opacity="0.75" clip-path="url(#plotClip)" />
<circle cx="487.1" cy="261.1" r="5.5" fill="#1F2937" stroke="#FFFFFF" stroke-width="1.5" />
<circle cx="487.1" cy="261.1" r="5.5" fill="none" stroke="#000000" stroke-width="1.2" />
<text x="495.1" y="254.1" fill="#111827" font-size="10.5" font-weight="600" text-anchor="start">GaAs <tspan fill="#6B7280" font-size="9.5">(+52.0%)</tspan></text>
<line x1="398.6" y1="344.6" x2="398.6" y2="316.1" stroke="#6B7280" stroke-width="1.2" stroke-dasharray="2,2" opacity="0.75" clip-path="url(#plotClip)" />
<circle cx="398.6" cy="316.1" r="5.5" fill="#1F2937" stroke="#FFFFFF" stroke-width="1.5" />
<circle cx="398.6" cy="316.1" r="5.5" fill="none" stroke="#000000" stroke-width="1.2" />
<text x="406.6" y="309.1" fill="#111827" font-size="10.5" font-weight="600" text-anchor="start">CdTe <tspan fill="#6B7280" font-size="9.5">(+36.7%)</tspan></text>
<line x1="354.1" y1="367.4" x2="354.1" y2="309.7" stroke="#6B7280" stroke-width="1.2" stroke-dasharray="2,2" opacity="0.75" clip-path="url(#plotClip)" />
<circle cx="354.1" cy="309.7" r="5.5" fill="#1F2937" stroke="#FFFFFF" stroke-width="1.5" />
<circle cx="354.1" cy="309.7" r="5.5" fill="none" stroke="#000000" stroke-width="1.2" />
<text x="362.1" y="302.7" fill="#111827" font-size="10.5" font-weight="600" text-anchor="start">Bi2Te3 <tspan fill="#6B7280" font-size="9.5">(+88.4%)</tspan></text>
<line x1="372.8" y1="357.8" x2="372.8" y2="407.9" stroke="#6B7280" stroke-width="1.2" stroke-dasharray="2,2" opacity="0.75" clip-path="url(#plotClip)" />
<circle cx="372.8" cy="407.9" r="5.5" fill="#1F2937" stroke="#FFFFFF" stroke-width="1.5" />
<circle cx="372.8" cy="407.9" r="5.5" fill="none" stroke="#000000" stroke-width="1.2" />
<text x="380.8" y="420.9" fill="#111827" font-size="10.5" font-weight="600" text-anchor="start">Mg1.10Sc0.20Zr1.80(PS4)3 <tspan fill="#6B7280" font-size="9.5">(-42.2%)</tspan></text>
<line x1="300.6" y1="394.8" x2="300.6" y2="384.7" stroke="#6B7280" stroke-width="1.2" stroke-dasharray="2,2" opacity="0.75" clip-path="url(#plotClip)" />
<circle cx="300.6" cy="384.7" r="5.5" fill="#1F2937" stroke="#FFFFFF" stroke-width="1.5" />
<circle cx="300.6" cy="384.7" r="5.5" fill="none" stroke="#000000" stroke-width="1.2" />
<text x="308.6" y="377.7" fill="#111827" font-size="10.5" font-weight="600" text-anchor="start">Li10GeP2S12 <tspan fill="#6B7280" font-size="9.5">(+11.7%)</tspan></text>
<g transform="translate(105, 564)" font-size="11" fill="#4B5563"><circle cx="6" cy="-4" r="5" fill="#1F2937" stroke="#000000" stroke-width="1.0" /><text x="18" y="0">First-Principles Evaluation Point</text><line x1="210" y1="-4" x2="235" y2="-4" stroke="#111827" stroke-dasharray="5,3" stroke-width="1.5" /><text x="242" y="0">Ideal 1:1 Parity Line</text><rect x="380" y="-8" width="18" height="10" fill="rgba(0, 0, 0, 0.04)" stroke="#9CA3AF" stroke-dasharray="2,2" stroke-width="0.8" /><text x="405" y="0">±10% Confidence Interval</text><line x1="560" y1="-4" x2="585" y2="-4" stroke="#6B7280" stroke-dasharray="2,2" stroke-width="1.2" /><text x="592" y="0">Residual Drop Stem</text></g>
</svg>