<svg xmlns="http://www.w3.org/2000/svg" viewBox="0 0 980 580" width="100%" height="auto" style="background-color: #FFFFFF; border: 1px solid #E5E7EB; border-radius: 4px; font-family: 'Times New Roman', Times, 'DejaVu Serif', 'TeX Gyre Termes', Georgia, serif;">

        <defs>
          <clipPath id="plotClip">
            <rect x="105" y="75" width="820" height="420" />
          </clipPath>
        </defs>
        
<rect x="0" y="0" width="980" height="580" fill="#FFFFFF" />
<text x="105" y="34" fill="#111827" font-size="18" font-weight="bold" letter-spacing="-0.01em">Predicted vs. Actual Parity: Yield Strength (σ_y) [MPa]</text>
<text x="105" y="54" fill="#4B5563" font-size="12" font-style="italic">Zero-Parameter First-Principles Multiscale Predictions vs. Experimental Benchmark (N = 24)</text>
<g transform="translate(735, 90)"><rect width="175" height="92" rx="3" fill="#F9FAFB" stroke="#D1D5DB" stroke-width="1.2" /><text x="14" y="22" fill="#111827" font-size="12" font-weight="bold">Statistical Summary</text><line x1="14" y1="28" x2="161" y2="28" stroke="#D1D5DB" stroke-width="0.8" /><text x="14" y="44" fill="#111827" font-size="11.5">Sample Size: <tspan font-weight="bold">N = 24</tspan></text><text x="14" y="60" fill="#111827" font-size="11.5">Determination: <tspan font-weight="bold">R² = 0.6120</tspan></text><text x="14" y="76" fill="#111827" font-size="11.5">Mean Abs % Err: <tspan font-weight="bold">MAPE = 54.82%</tspan></text></g>
<line x1="105.0" y1="75" x2="105.0" y2="495" stroke="#E5E7EB" stroke-width="0.8" stroke-dasharray="2,2" />
<line x1="105" y1="495.0" x2="925" y2="495.0" stroke="#E5E7EB" stroke-width="0.8" stroke-dasharray="2,2" />
<line x1="100" y1="495.0" x2="105" y2="495.0" stroke="#111827" stroke-width="1.2" />
<text x="95" y="499.0" fill="#111827" font-size="12" font-weight="500" text-anchor="end">0</text>
<line x1="105.0" y1="495" x2="105.0" y2="500" stroke="#111827" stroke-width="1.2" />
<text x="105.0" y="517.0" fill="#111827" font-size="12" font-weight="500" text-anchor="middle">0</text>
<line x1="310.0" y1="75" x2="310.0" y2="495" stroke="#E5E7EB" stroke-width="0.8" stroke-dasharray="2,2" />
<line x1="105" y1="390.0" x2="925" y2="390.0" stroke="#E5E7EB" stroke-width="0.8" stroke-dasharray="2,2" />
<line x1="100" y1="390.0" x2="105" y2="390.0" stroke="#111827" stroke-width="1.2" />
<text x="95" y="394.0" fill="#111827" font-size="12" font-weight="500" text-anchor="end">350</text>
<line x1="310.0" y1="495" x2="310.0" y2="500" stroke="#111827" stroke-width="1.2" />
<text x="310.0" y="517.0" fill="#111827" font-size="12" font-weight="500" text-anchor="middle">350</text>
<line x1="515.0" y1="75" x2="515.0" y2="495" stroke="#E5E7EB" stroke-width="0.8" stroke-dasharray="2,2" />
<line x1="105" y1="285.0" x2="925" y2="285.0" stroke="#E5E7EB" stroke-width="0.8" stroke-dasharray="2,2" />
<line x1="100" y1="285.0" x2="105" y2="285.0" stroke="#111827" stroke-width="1.2" />
<text x="95" y="289.0" fill="#111827" font-size="12" font-weight="500" text-anchor="end">700</text>
<line x1="515.0" y1="495" x2="515.0" y2="500" stroke="#111827" stroke-width="1.2" />
<text x="515.0" y="517.0" fill="#111827" font-size="12" font-weight="500" text-anchor="middle">700</text>
<line x1="720.0" y1="75" x2="720.0" y2="495" stroke="#E5E7EB" stroke-width="0.8" stroke-dasharray="2,2" />
<line x1="105" y1="180.0" x2="925" y2="180.0" stroke="#E5E7EB" stroke-width="0.8" stroke-dasharray="2,2" />
<line x1="100" y1="180.0" x2="105" y2="180.0" stroke="#111827" stroke-width="1.2" />
<text x="95" y="184.0" fill="#111827" font-size="12" font-weight="500" text-anchor="end">1050</text>
<line x1="720.0" y1="495" x2="720.0" y2="500" stroke="#111827" stroke-width="1.2" />
<text x="720.0" y="517.0" fill="#111827" font-size="12" font-weight="500" text-anchor="middle">1050</text>
<line x1="925.0" y1="75" x2="925.0" y2="495" stroke="#E5E7EB" stroke-width="0.8" stroke-dasharray="2,2" />
<line x1="105" y1="75.0" x2="925" y2="75.0" stroke="#E5E7EB" stroke-width="0.8" stroke-dasharray="2,2" />
<line x1="100" y1="75.0" x2="105" y2="75.0" stroke="#111827" stroke-width="1.2" />
<text x="95" y="79.0" fill="#111827" font-size="12" font-weight="500" text-anchor="end">1400</text>
<line x1="925.0" y1="495" x2="925.0" y2="500" stroke="#111827" stroke-width="1.2" />
<text x="925.0" y="517.0" fill="#111827" font-size="12" font-weight="500" text-anchor="middle">1400</text>
<polygon points="105.0,495.0 925.0,33.0 925.0,117.0 105.0,495.0" fill="rgba(0, 0, 0, 0.04)" clip-path="url(#plotClip)" />
<line x1="105.0" y1="495.0" x2="925.0" y2="33.0" stroke="#9CA3AF" stroke-width="1.0" stroke-dasharray="3,3" clip-path="url(#plotClip)" />
<line x1="105.0" y1="495.0" x2="925.0" y2="117.0" stroke="#9CA3AF" stroke-width="1.0" stroke-dasharray="3,3" clip-path="url(#plotClip)" />
<line x1="105.0" y1="495.0" x2="925.0" y2="75.0" stroke="#111827" stroke-width="1.6" stroke-dasharray="6,4" clip-path="url(#plotClip)" />
<text x="535.0" y="273.0" fill="#6B7280" font-size="11" font-style="italic" transform="rotate(-34 515.0 285.0)">Ideal 1:1 Parity (y = x)</text>
<rect x="105" y="75" width="820" height="420" fill="none" stroke="#111827" stroke-width="1.4" />
<text x="515.0" y="547.0" fill="#111827" font-size="14.5" font-weight="bold" text-anchor="middle">Experimental / Literature Ground Truth Value [MPa]</text>
<text x="32" y="285.0" fill="#111827" font-size="14.5" font-weight="bold" text-anchor="middle" transform="rotate(-90 32 285.0)">Penziv First-Principles Predicted Value [MPa]</text>
<line x1="146.0" y1="474.0" x2="146.0" y2="466.7" stroke="#6B7280" stroke-width="1.2" stroke-dasharray="2,2" opacity="0.75" clip-path="url(#plotClip)" />
<circle cx="146.0" cy="466.7" r="5.5" fill="#1F2937" stroke="#FFFFFF" stroke-width="1.5" />
<circle cx="146.0" cy="466.7" r="5.5" fill="none" stroke="#000000" stroke-width="1.2" />
<text x="154.0" y="459.7" fill="#111827" font-size="10.5" font-weight="600" text-anchor="start">Cu <tspan fill="#6B7280" font-size="9.5">(+34.9%)</tspan></text>
<line x1="125.5" y1="484.5" x2="125.5" y2="475.8" stroke="#6B7280" stroke-width="1.2" stroke-dasharray="2,2" opacity="0.75" clip-path="url(#plotClip)" />
<circle cx="125.5" cy="475.8" r="5.5" fill="#1F2937" stroke="#FFFFFF" stroke-width="1.5" />
<circle cx="125.5" cy="475.8" r="5.5" fill="none" stroke="#000000" stroke-width="1.2" />
<text x="133.5" y="468.8" fill="#111827" font-size="10.5" font-weight="600" text-anchor="start">Al <tspan fill="#6B7280" font-size="9.5">(+83.1%)</tspan></text>
<line x1="187.0" y1="453.0" x2="187.0" y2="460.6" stroke="#6B7280" stroke-width="1.2" stroke-dasharray="2,2" opacity="0.75" clip-path="url(#plotClip)" />
<circle cx="187.0" cy="460.6" r="5.5" fill="#1F2937" stroke="#FFFFFF" stroke-width="1.5" />
<circle cx="187.0" cy="460.6" r="5.5" fill="none" stroke="#000000" stroke-width="1.2" />
<text x="195.0" y="473.6" fill="#111827" font-size="10.5" font-weight="600" text-anchor="start">Ni <tspan fill="#6B7280" font-size="9.5">(-18.1%)</tspan></text>
<line x1="187.0" y1="453.0" x2="187.0" y2="456.0" stroke="#6B7280" stroke-width="1.2" stroke-dasharray="2,2" opacity="0.75" clip-path="url(#plotClip)" />
<circle cx="187.0" cy="456.0" r="5.5" fill="#1F2937" stroke="#FFFFFF" stroke-width="1.5" />
<circle cx="187.0" cy="456.0" r="5.5" fill="none" stroke="#000000" stroke-width="1.2" />
<text x="195.0" y="469.0" fill="#111827" font-size="10.5" font-weight="600" text-anchor="start">Ti <tspan fill="#6B7280" font-size="9.5">(-7.2%)</tspan></text>
<line x1="544.1" y1="270.1" x2="544.1" y2="319.1" stroke="#6B7280" stroke-width="1.2" stroke-dasharray="2,2" opacity="0.75" clip-path="url(#plotClip)" />
<circle cx="544.1" cy="319.1" r="5.5" fill="#1F2937" stroke="#FFFFFF" stroke-width="1.5" />
<circle cx="544.1" cy="319.1" r="5.5" fill="none" stroke="#000000" stroke-width="1.2" />
<text x="552.1" y="332.1" fill="#111827" font-size="10.5" font-weight="600" text-anchor="start">W <tspan fill="#6B7280" font-size="9.5">(-21.8%)</tspan></text>
<line x1="181.1" y1="456.0" x2="181.1" y2="347.4" stroke="#6B7280" stroke-width="1.2" stroke-dasharray="2,2" opacity="0.75" clip-path="url(#plotClip)" />
<circle cx="181.1" cy="347.4" r="5.5" fill="#1F2937" stroke="#FFFFFF" stroke-width="1.5" />
<circle cx="181.1" cy="347.4" r="5.5" fill="none" stroke="#000000" stroke-width="1.2" />
<text x="189.1" y="340.4" fill="#111827" font-size="10.5" font-weight="600" text-anchor="start">Fe <tspan fill="#6B7280" font-size="9.5">(+278.5%)</tspan></text>
<line x1="274.8" y1="408.0" x2="274.8" y2="304.6" stroke="#6B7280" stroke-width="1.2" stroke-dasharray="2,2" opacity="0.75" clip-path="url(#plotClip)" />
<circle cx="274.8" cy="304.6" r="5.5" fill="#1F2937" stroke="#FFFFFF" stroke-width="1.5" />
<circle cx="274.8" cy="304.6" r="5.5" fill="none" stroke="#000000" stroke-width="1.2" />
<text x="282.8" y="297.6" fill="#111827" font-size="10.5" font-weight="600" text-anchor="start">Fe0.70Cr0.18Ni0.10Mo0.02 <tspan fill="#6B7280" font-size="9.5">(+118.9%)</tspan></text>
<line x1="719.8" y1="180.1" x2="719.8" y2="132.9" stroke="#6B7280" stroke-width="1.2" stroke-dasharray="2,2" opacity="0.75" clip-path="url(#plotClip)" />
<circle cx="719.8" cy="132.9" r="5.5" fill="#1F2937" stroke="#FFFFFF" stroke-width="1.5" />
<circle cx="719.8" cy="132.9" r="5.5" fill="none" stroke="#000000" stroke-width="1.2" />
<text x="727.8" y="125.9" fill="#111827" font-size="10.5" font-weight="600" text-anchor="start">Ni0.53Cr0.19Fe0.18Nb0.05Mo0.03 <tspan fill="#6B7280" font-size="9.5">(+15.0%)</tspan></text>
<line x1="620.3" y1="231.1" x2="620.3" y2="380.6" stroke="#6B7280" stroke-width="1.2" stroke-dasharray="2,2" opacity="0.75" clip-path="url(#plotClip)" />
<circle cx="620.3" cy="380.6" r="5.5" fill="#1F2937" stroke="#FFFFFF" stroke-width="1.5" />
<circle cx="620.3" cy="380.6" r="5.5" fill="none" stroke="#000000" stroke-width="1.2" />
<text x="628.3" y="393.6" fill="#111827" font-size="10.5" font-weight="600" text-anchor="start">Ti0.90Al0.06V0.04 <tspan fill="#6B7280" font-size="9.5">(-56.6%)</tspan></text>
<line x1="719.8" y1="180.1" x2="719.8" y2="146.3" stroke="#6B7280" stroke-width="1.2" stroke-dasharray="2,2" opacity="0.75" clip-path="url(#plotClip)" />
<circle cx="719.8" cy="146.3" r="5.5" fill="#1F2937" stroke="#FFFFFF" stroke-width="1.5" />
<circle cx="719.8" cy="146.3" r="5.5" fill="none" stroke="#000000" stroke-width="1.2" />
<text x="727.8" y="139.3" fill="#111827" font-size="10.5" font-weight="600" text-anchor="start">Nb0.25Mo0.25Ta0.25W0.25 <tspan fill="#6B7280" font-size="9.5">(+10.7%)</tspan></text>
<line x1="368.5" y1="360.0" x2="368.5" y2="458.7" stroke="#6B7280" stroke-width="1.2" stroke-dasharray="2,2" opacity="0.75" clip-path="url(#plotClip)" />
<circle cx="368.5" cy="458.7" r="5.5" fill="#1F2937" stroke="#FFFFFF" stroke-width="1.5" />
<circle cx="368.5" cy="458.7" r="5.5" fill="none" stroke="#000000" stroke-width="1.2" />
<text x="376.5" y="471.7" fill="#111827" font-size="10.5" font-weight="600" text-anchor="start">Ti3SiC2 <tspan fill="#6B7280" font-size="9.5">(-73.1%)</tspan></text>
<line x1="327.5" y1="381.0" x2="327.5" y2="461.8" stroke="#6B7280" stroke-width="1.2" stroke-dasharray="2,2" opacity="0.75" clip-path="url(#plotClip)" />
<circle cx="327.5" cy="461.8" r="5.5" fill="#1F2937" stroke="#FFFFFF" stroke-width="1.5" />
<circle cx="327.5" cy="461.8" r="5.5" fill="none" stroke="#000000" stroke-width="1.2" />
<text x="335.5" y="474.8" fill="#111827" font-size="10.5" font-weight="600" text-anchor="start">Ti2AlC <tspan fill="#6B7280" font-size="9.5">(-70.8%)</tspan></text>
<line x1="292.4" y1="399.0" x2="292.4" y2="437.6" stroke="#6B7280" stroke-width="1.2" stroke-dasharray="2,2" opacity="0.75" clip-path="url(#plotClip)" />
<circle cx="292.4" cy="437.6" r="5.5" fill="#1F2937" stroke="#FFFFFF" stroke-width="1.5" />
<circle cx="292.4" cy="437.6" r="5.5" fill="none" stroke="#000000" stroke-width="1.2" />
<text x="300.4" y="450.6" fill="#111827" font-size="10.5" font-weight="600" text-anchor="start">CaO <tspan fill="#6B7280" font-size="9.5">(-40.2%)</tspan></text>
<line x1="309.9" y1="390.0" x2="309.9" y2="398.3" stroke="#6B7280" stroke-width="1.2" stroke-dasharray="2,2" opacity="0.75" clip-path="url(#plotClip)" />
<circle cx="309.9" cy="398.3" r="5.5" fill="#1F2937" stroke="#FFFFFF" stroke-width="1.5" />
<circle cx="309.9" cy="398.3" r="5.5" fill="none" stroke="#000000" stroke-width="1.2" />
<text x="317.9" y="411.3" fill="#111827" font-size="10.5" font-weight="600" text-anchor="start">MgO <tspan fill="#6B7280" font-size="9.5">(-7.9%)</tspan></text>
<line x1="339.2" y1="375.0" x2="339.2" y2="356.0" stroke="#6B7280" stroke-width="1.2" stroke-dasharray="2,2" opacity="0.75" clip-path="url(#plotClip)" />
<circle cx="339.2" cy="356.0" r="5.5" fill="#1F2937" stroke="#FFFFFF" stroke-width="1.5" />
<circle cx="339.2" cy="356.0" r="5.5" fill="none" stroke="#000000" stroke-width="1.2" />
<text x="347.2" y="349.0" fill="#111827" font-size="10.5" font-weight="600" text-anchor="start">Al2O3 <tspan fill="#6B7280" font-size="9.5">(+15.8%)</tspan></text>
<line x1="268.9" y1="411.0" x2="268.9" y2="353.0" stroke="#6B7280" stroke-width="1.2" stroke-dasharray="2,2" opacity="0.75" clip-path="url(#plotClip)" />
<circle cx="268.9" cy="353.0" r="5.5" fill="#1F2937" stroke="#FFFFFF" stroke-width="1.5" />
<circle cx="268.9" cy="353.0" r="5.5" fill="none" stroke="#000000" stroke-width="1.2" />
<text x="276.9" y="346.0" fill="#111827" font-size="10.5" font-weight="600" text-anchor="start">TiO2 <tspan fill="#6B7280" font-size="9.5">(+69.1%)</tspan></text>
<line x1="427.0" y1="330.1" x2="427.0" y2="392.3" stroke="#6B7280" stroke-width="1.2" stroke-dasharray="2,2" opacity="0.75" clip-path="url(#plotClip)" />
<circle cx="427.0" cy="392.3" r="5.5" fill="#1F2937" stroke="#FFFFFF" stroke-width="1.5" />
<circle cx="427.0" cy="392.3" r="5.5" fill="none" stroke="#000000" stroke-width="1.2" />
<text x="435.0" y="405.3" fill="#111827" font-size="10.5" font-weight="600" text-anchor="start">SiC <tspan fill="#6B7280" font-size="9.5">(-37.7%)</tspan></text>
<line x1="309.9" y1="390.0" x2="309.9" y2="410.4" stroke="#6B7280" stroke-width="1.2" stroke-dasharray="2,2" opacity="0.75" clip-path="url(#plotClip)" />
<circle cx="309.9" cy="410.4" r="5.5" fill="#1F2937" stroke="#FFFFFF" stroke-width="1.5" />
<circle cx="309.9" cy="410.4" r="5.5" fill="none" stroke="#000000" stroke-width="1.2" />
<text x="317.9" y="423.4" fill="#111827" font-size="10.5" font-weight="600" text-anchor="start">GaN <tspan fill="#6B7280" font-size="9.5">(-19.4%)</tspan></text>
<line x1="175.3" y1="459.0" x2="175.3" y2="446.7" stroke="#6B7280" stroke-width="1.2" stroke-dasharray="2,2" opacity="0.75" clip-path="url(#plotClip)" />
<circle cx="175.3" cy="446.7" r="5.5" fill="#1F2937" stroke="#FFFFFF" stroke-width="1.5" />
<circle cx="175.3" cy="446.7" r="5.5" fill="none" stroke="#000000" stroke-width="1.2" />
<text x="183.3" y="439.7" fill="#111827" font-size="10.5" font-weight="600" text-anchor="start">Si <tspan fill="#6B7280" font-size="9.5">(+34.3%)</tspan></text>
<line x1="175.3" y1="459.0" x2="175.3" y2="452.7" stroke="#6B7280" stroke-width="1.2" stroke-dasharray="2,2" opacity="0.75" clip-path="url(#plotClip)" />
<circle cx="175.3" cy="452.7" r="5.5" fill="#1F2937" stroke="#FFFFFF" stroke-width="1.5" />
<circle cx="175.3" cy="452.7" r="5.5" fill="none" stroke="#000000" stroke-width="1.2" />
<text x="183.3" y="445.7" fill="#111827" font-size="10.5" font-weight="600" text-anchor="start">GaAs <tspan fill="#6B7280" font-size="9.5">(+17.5%)</tspan></text>
<line x1="143.1" y1="475.5" x2="143.1" y2="467.8" stroke="#6B7280" stroke-width="1.2" stroke-dasharray="2,2" opacity="0.75" clip-path="url(#plotClip)" />
<circle cx="143.1" cy="467.8" r="5.5" fill="#1F2937" stroke="#FFFFFF" stroke-width="1.5" />
<circle cx="143.1" cy="467.8" r="5.5" fill="none" stroke="#000000" stroke-width="1.2" />
<text x="151.1" y="460.8" fill="#111827" font-size="10.5" font-weight="600" text-anchor="start">CdTe <tspan fill="#6B7280" font-size="9.5">(+39.5%)</tspan></text>
<line x1="137.2" y1="478.5" x2="137.2" y2="467.8" stroke="#6B7280" stroke-width="1.2" stroke-dasharray="2,2" opacity="0.75" clip-path="url(#plotClip)" />
<circle cx="137.2" cy="467.8" r="5.5" fill="#1F2937" stroke="#FFFFFF" stroke-width="1.5" />
<circle cx="137.2" cy="467.8" r="5.5" fill="none" stroke="#000000" stroke-width="1.2" />
<text x="145.2" y="460.8" fill="#111827" font-size="10.5" font-weight="600" text-anchor="start">Bi2Te3 <tspan fill="#6B7280" font-size="9.5">(+64.9%)</tspan></text>
<line x1="151.8" y1="471.0" x2="151.8" y2="485.9" stroke="#6B7280" stroke-width="1.2" stroke-dasharray="2,2" opacity="0.75" clip-path="url(#plotClip)" />
<circle cx="151.8" cy="485.9" r="5.5" fill="#1F2937" stroke="#FFFFFF" stroke-width="1.5" />
<circle cx="151.8" cy="485.9" r="5.5" fill="none" stroke="#000000" stroke-width="1.2" />
<text x="159.8" y="498.9" fill="#111827" font-size="10.5" font-weight="600" text-anchor="start">Mg1.10Sc0.20Zr1.80(PS4)3 <tspan fill="#6B7280" font-size="9.5">(-62.2%)</tspan></text>
<line x1="140.1" y1="477.0" x2="140.1" y2="455.7" stroke="#6B7280" stroke-width="1.2" stroke-dasharray="2,2" opacity="0.75" clip-path="url(#plotClip)" />
<circle cx="140.1" cy="455.7" r="5.5" fill="#1F2937" stroke="#FFFFFF" stroke-width="1.5" />
<circle cx="140.1" cy="455.7" r="5.5" fill="none" stroke="#000000" stroke-width="1.2" />
<text x="148.1" y="448.7" fill="#111827" font-size="10.5" font-weight="600" text-anchor="start">Li10GeP2S12 <tspan fill="#6B7280" font-size="9.5">(+118.3%)</tspan></text>
<g transform="translate(105, 564)" font-size="11" fill="#4B5563"><circle cx="6" cy="-4" r="5" fill="#1F2937" stroke="#000000" stroke-width="1.0" /><text x="18" y="0">First-Principles Evaluation Point</text><line x1="210" y1="-4" x2="235" y2="-4" stroke="#111827" stroke-dasharray="5,3" stroke-width="1.5" /><text x="242" y="0">Ideal 1:1 Parity Line</text><rect x="380" y="-8" width="18" height="10" fill="rgba(0, 0, 0, 0.04)" stroke="#9CA3AF" stroke-dasharray="2,2" stroke-width="0.8" /><text x="405" y="0">±10% Confidence Interval</text><line x1="560" y1="-4" x2="585" y2="-4" stroke="#6B7280" stroke-dasharray="2,2" stroke-width="1.2" /><text x="592" y="0">Residual Drop Stem</text></g>
</svg>