<svg xmlns="http://www.w3.org/2000/svg" viewBox="0 0 980 580" width="100%" height="auto" style="background-color: #FFFFFF; border: 1px solid #E5E7EB; border-radius: 4px; font-family: 'Times New Roman', Times, 'DejaVu Serif', 'TeX Gyre Termes', Georgia, serif;">

        <defs>
          <clipPath id="plotClip">
            <rect x="105" y="75" width="820" height="420" />
          </clipPath>
        </defs>
        
<rect x="0" y="0" width="980" height="580" fill="#FFFFFF" />
<text x="105" y="34" fill="#111827" font-size="18" font-weight="bold" letter-spacing="-0.01em">Predicted vs. Actual Parity: Fracture Toughness (K_Ic) [MPa√m]</text>
<text x="105" y="54" fill="#4B5563" font-size="12" font-style="italic">Zero-Parameter First-Principles Multiscale Predictions vs. Experimental Benchmark (N = 24)</text>
<g transform="translate(735, 90)"><rect width="175" height="92" rx="3" fill="#F9FAFB" stroke="#D1D5DB" stroke-width="1.2" /><text x="14" y="22" fill="#111827" font-size="12" font-weight="bold">Statistical Summary</text><line x1="14" y1="28" x2="161" y2="28" stroke="#D1D5DB" stroke-width="0.8" /><text x="14" y="44" fill="#111827" font-size="11.5">Sample Size: <tspan font-weight="bold">N = 24</tspan></text><text x="14" y="60" fill="#111827" font-size="11.5">Determination: <tspan font-weight="bold">R² = 0.3402</tspan></text><text x="14" y="76" fill="#111827" font-size="11.5">Mean Abs % Err: <tspan font-weight="bold">MAPE = 67.48%</tspan></text></g>
<line x1="105.0" y1="75" x2="105.0" y2="495" stroke="#E5E7EB" stroke-width="0.8" stroke-dasharray="2,2" />
<line x1="105" y1="495.0" x2="925" y2="495.0" stroke="#E5E7EB" stroke-width="0.8" stroke-dasharray="2,2" />
<line x1="100" y1="495.0" x2="105" y2="495.0" stroke="#111827" stroke-width="1.2" />
<text x="95" y="499.0" fill="#111827" font-size="12" font-weight="500" text-anchor="end">0</text>
<line x1="105.0" y1="495" x2="105.0" y2="500" stroke="#111827" stroke-width="1.2" />
<text x="105.0" y="517.0" fill="#111827" font-size="12" font-weight="500" text-anchor="middle">0</text>
<line x1="310.0" y1="75" x2="310.0" y2="495" stroke="#E5E7EB" stroke-width="0.8" stroke-dasharray="2,2" />
<line x1="105" y1="390.0" x2="925" y2="390.0" stroke="#E5E7EB" stroke-width="0.8" stroke-dasharray="2,2" />
<line x1="100" y1="390.0" x2="105" y2="390.0" stroke="#111827" stroke-width="1.2" />
<text x="95" y="394.0" fill="#111827" font-size="12" font-weight="500" text-anchor="end">32.7</text>
<line x1="310.0" y1="495" x2="310.0" y2="500" stroke="#111827" stroke-width="1.2" />
<text x="310.0" y="517.0" fill="#111827" font-size="12" font-weight="500" text-anchor="middle">32.7</text>
<line x1="515.0" y1="75" x2="515.0" y2="495" stroke="#E5E7EB" stroke-width="0.8" stroke-dasharray="2,2" />
<line x1="105" y1="285.0" x2="925" y2="285.0" stroke="#E5E7EB" stroke-width="0.8" stroke-dasharray="2,2" />
<line x1="100" y1="285.0" x2="105" y2="285.0" stroke="#111827" stroke-width="1.2" />
<text x="95" y="289.0" fill="#111827" font-size="12" font-weight="500" text-anchor="end">65.5</text>
<line x1="515.0" y1="495" x2="515.0" y2="500" stroke="#111827" stroke-width="1.2" />
<text x="515.0" y="517.0" fill="#111827" font-size="12" font-weight="500" text-anchor="middle">65.5</text>
<line x1="720.0" y1="75" x2="720.0" y2="495" stroke="#E5E7EB" stroke-width="0.8" stroke-dasharray="2,2" />
<line x1="105" y1="180.0" x2="925" y2="180.0" stroke="#E5E7EB" stroke-width="0.8" stroke-dasharray="2,2" />
<line x1="100" y1="180.0" x2="105" y2="180.0" stroke="#111827" stroke-width="1.2" />
<text x="95" y="184.0" fill="#111827" font-size="12" font-weight="500" text-anchor="end">98.2</text>
<line x1="720.0" y1="495" x2="720.0" y2="500" stroke="#111827" stroke-width="1.2" />
<text x="720.0" y="517.0" fill="#111827" font-size="12" font-weight="500" text-anchor="middle">98.2</text>
<line x1="925.0" y1="75" x2="925.0" y2="495" stroke="#E5E7EB" stroke-width="0.8" stroke-dasharray="2,2" />
<line x1="105" y1="75.0" x2="925" y2="75.0" stroke="#E5E7EB" stroke-width="0.8" stroke-dasharray="2,2" />
<line x1="100" y1="75.0" x2="105" y2="75.0" stroke="#111827" stroke-width="1.2" />
<text x="95" y="79.0" fill="#111827" font-size="12" font-weight="500" text-anchor="end">131</text>
<line x1="925.0" y1="495" x2="925.0" y2="500" stroke="#111827" stroke-width="1.2" />
<text x="925.0" y="517.0" fill="#111827" font-size="12" font-weight="500" text-anchor="middle">131</text>
<polygon points="105.0,495.0 925.0,33.0 925.0,117.0 105.0,495.0" fill="rgba(0, 0, 0, 0.04)" clip-path="url(#plotClip)" />
<line x1="105.0" y1="495.0" x2="925.0" y2="33.0" stroke="#9CA3AF" stroke-width="1.0" stroke-dasharray="3,3" clip-path="url(#plotClip)" />
<line x1="105.0" y1="495.0" x2="925.0" y2="117.0" stroke="#9CA3AF" stroke-width="1.0" stroke-dasharray="3,3" clip-path="url(#plotClip)" />
<line x1="105.0" y1="495.0" x2="925.0" y2="75.0" stroke="#111827" stroke-width="1.6" stroke-dasharray="6,4" clip-path="url(#plotClip)" />
<text x="535.0" y="273.0" fill="#6B7280" font-size="11" font-style="italic" transform="rotate(-34 515.0 285.0)">Ideal 1:1 Parity (y = x)</text>
<rect x="105" y="75" width="820" height="420" fill="none" stroke="#111827" stroke-width="1.4" />
<text x="515.0" y="547.0" fill="#111827" font-size="14.5" font-weight="bold" text-anchor="middle">Experimental / Literature Ground Truth Value [MPa√m]</text>
<text x="32" y="285.0" fill="#111827" font-size="14.5" font-weight="bold" text-anchor="middle" transform="rotate(-90 32 285.0)">Penziv First-Principles Predicted Value [MPa√m]</text>
<line x1="512.0" y1="286.5" x2="512.0" y2="375.7" stroke="#6B7280" stroke-width="1.2" stroke-dasharray="2,2" opacity="0.75" clip-path="url(#plotClip)" />
<circle cx="512.0" cy="375.7" r="5.5" fill="#1F2937" stroke="#FFFFFF" stroke-width="1.5" />
<circle cx="512.0" cy="375.7" r="5.5" fill="none" stroke="#000000" stroke-width="1.2" />
<text x="520.0" y="388.7" fill="#111827" font-size="10.5" font-weight="600" text-anchor="start">Cu <tspan fill="#6B7280" font-size="9.5">(-42.8%)</tspan></text>
<line x1="324.1" y1="382.8" x2="324.1" y2="401.7" stroke="#6B7280" stroke-width="1.2" stroke-dasharray="2,2" opacity="0.75" clip-path="url(#plotClip)" />
<circle cx="324.1" cy="401.7" r="5.5" fill="#1F2937" stroke="#FFFFFF" stroke-width="1.5" />
<circle cx="324.1" cy="401.7" r="5.5" fill="none" stroke="#000000" stroke-width="1.2" />
<text x="332.1" y="414.7" fill="#111827" font-size="10.5" font-weight="600" text-anchor="start">Al <tspan fill="#6B7280" font-size="9.5">(-16.9%)</tspan></text>
<line x1="668.5" y1="206.4" x2="668.5" y2="353.3" stroke="#6B7280" stroke-width="1.2" stroke-dasharray="2,2" opacity="0.75" clip-path="url(#plotClip)" />
<circle cx="668.5" cy="353.3" r="5.5" fill="#1F2937" stroke="#FFFFFF" stroke-width="1.5" />
<circle cx="668.5" cy="353.3" r="5.5" fill="none" stroke="#000000" stroke-width="1.2" />
<text x="676.5" y="366.3" fill="#111827" font-size="10.5" font-weight="600" text-anchor="start">Ni <tspan fill="#6B7280" font-size="9.5">(-50.9%)</tspan></text>
<line x1="449.4" y1="318.6" x2="449.4" y2="367.4" stroke="#6B7280" stroke-width="1.2" stroke-dasharray="2,2" opacity="0.75" clip-path="url(#plotClip)" />
<circle cx="449.4" cy="367.4" r="5.5" fill="#1F2937" stroke="#FFFFFF" stroke-width="1.5" />
<circle cx="449.4" cy="367.4" r="5.5" fill="none" stroke="#000000" stroke-width="1.2" />
<text x="457.4" y="380.4" fill="#111827" font-size="10.5" font-weight="600" text-anchor="start">Ti <tspan fill="#6B7280" font-size="9.5">(-27.6%)</tspan></text>
<line x1="292.8" y1="398.8" x2="292.8" y2="149.9" stroke="#6B7280" stroke-width="1.2" stroke-dasharray="2,2" opacity="0.75" clip-path="url(#plotClip)" />
<circle cx="292.8" cy="149.9" r="5.5" fill="#1F2937" stroke="#FFFFFF" stroke-width="1.5" />
<circle cx="292.8" cy="149.9" r="5.5" fill="none" stroke="#000000" stroke-width="1.2" />
<text x="300.8" y="142.9" fill="#111827" font-size="10.5" font-weight="600" text-anchor="start">W <tspan fill="#6B7280" font-size="9.5">(+258.7%)</tspan></text>
<line x1="418.1" y1="334.7" x2="418.1" y2="219.2" stroke="#6B7280" stroke-width="1.2" stroke-dasharray="2,2" opacity="0.75" clip-path="url(#plotClip)" />
<circle cx="418.1" cy="219.2" r="5.5" fill="#1F2937" stroke="#FFFFFF" stroke-width="1.5" />
<circle cx="418.1" cy="219.2" r="5.5" fill="none" stroke="#000000" stroke-width="1.2" />
<text x="426.1" y="212.2" fill="#111827" font-size="10.5" font-weight="600" text-anchor="start">Fe <tspan fill="#6B7280" font-size="9.5">(+72.0%)</tspan></text>
<line x1="731.1" y1="174.3" x2="731.1" y2="192.3" stroke="#6B7280" stroke-width="1.2" stroke-dasharray="2,2" opacity="0.75" clip-path="url(#plotClip)" />
<circle cx="731.1" cy="192.3" r="5.5" fill="#1F2937" stroke="#FFFFFF" stroke-width="1.5" />
<circle cx="731.1" cy="192.3" r="5.5" fill="none" stroke="#000000" stroke-width="1.2" />
<text x="739.1" y="205.3" fill="#111827" font-size="10.5" font-weight="600" text-anchor="start">Fe0.70Cr0.18Ni0.10Mo0.02 <tspan fill="#6B7280" font-size="9.5">(-5.6%)</tspan></text>
<line x1="699.8" y1="190.3" x2="699.8" y2="156.3" stroke="#6B7280" stroke-width="1.2" stroke-dasharray="2,2" opacity="0.75" clip-path="url(#plotClip)" />
<circle cx="699.8" cy="156.3" r="5.5" fill="#1F2937" stroke="#FFFFFF" stroke-width="1.5" />
<circle cx="699.8" cy="156.3" r="5.5" fill="none" stroke="#000000" stroke-width="1.2" />
<text x="707.8" y="149.3" fill="#111827" font-size="10.5" font-weight="600" text-anchor="start">Ni0.53Cr0.19Fe0.18Nb0.05Mo0.03 <tspan fill="#6B7280" font-size="9.5">(+11.2%)</tspan></text>
<line x1="574.6" y1="254.5" x2="574.6" y2="324.4" stroke="#6B7280" stroke-width="1.2" stroke-dasharray="2,2" opacity="0.75" clip-path="url(#plotClip)" />
<circle cx="574.6" cy="324.4" r="5.5" fill="#1F2937" stroke="#FFFFFF" stroke-width="1.5" />
<circle cx="574.6" cy="324.4" r="5.5" fill="none" stroke="#000000" stroke-width="1.2" />
<text x="582.6" y="337.4" fill="#111827" font-size="10.5" font-weight="600" text-anchor="start">Ti0.90Al0.06V0.04 <tspan fill="#6B7280" font-size="9.5">(-29.1%)</tspan></text>
<line x1="292.8" y1="398.8" x2="292.8" y2="132.9" stroke="#6B7280" stroke-width="1.2" stroke-dasharray="2,2" opacity="0.75" clip-path="url(#plotClip)" />
<circle cx="292.8" cy="132.9" r="5.5" fill="#1F2937" stroke="#FFFFFF" stroke-width="1.5" />
<circle cx="292.8" cy="132.9" r="5.5" fill="none" stroke="#000000" stroke-width="1.2" />
<text x="300.8" y="125.9" fill="#111827" font-size="10.5" font-weight="600" text-anchor="start">Nb0.25Mo0.25Ta0.25W0.25 <tspan fill="#6B7280" font-size="9.5">(+276.3%)</tspan></text>
<line x1="158.2" y1="467.7" x2="158.2" y2="490.5" stroke="#6B7280" stroke-width="1.2" stroke-dasharray="2,2" opacity="0.75" clip-path="url(#plotClip)" />
<circle cx="158.2" cy="490.5" r="5.5" fill="#1F2937" stroke="#FFFFFF" stroke-width="1.5" />
<circle cx="158.2" cy="490.5" r="5.5" fill="none" stroke="#000000" stroke-width="1.2" />
<text x="166.2" y="503.5" fill="#111827" font-size="10.5" font-weight="600" text-anchor="start">Ti3SiC2 <tspan fill="#6B7280" font-size="9.5">(-83.5%)</tspan></text>
<line x1="148.8" y1="472.6" x2="148.8" y2="490.8" stroke="#6B7280" stroke-width="1.2" stroke-dasharray="2,2" opacity="0.75" clip-path="url(#plotClip)" />
<circle cx="148.8" cy="490.8" r="5.5" fill="#1F2937" stroke="#FFFFFF" stroke-width="1.5" />
<circle cx="148.8" cy="490.8" r="5.5" fill="none" stroke="#000000" stroke-width="1.2" />
<text x="156.8" y="503.8" fill="#111827" font-size="10.5" font-weight="600" text-anchor="start">Ti2AlC <tspan fill="#6B7280" font-size="9.5">(-81.4%)</tspan></text>
<line x1="116.3" y1="489.2" x2="116.3" y2="487.6" stroke="#6B7280" stroke-width="1.2" stroke-dasharray="2,2" opacity="0.75" clip-path="url(#plotClip)" />
<circle cx="116.3" cy="487.6" r="5.5" fill="#1F2937" stroke="#FFFFFF" stroke-width="1.5" />
<circle cx="116.3" cy="487.6" r="5.5" fill="none" stroke="#000000" stroke-width="1.2" />
<text x="124.3" y="480.6" fill="#111827" font-size="10.5" font-weight="600" text-anchor="start">CaO <tspan fill="#6B7280" font-size="9.5">(+27.8%)</tspan></text>
<line x1="120.7" y1="487.0" x2="120.7" y2="482.5" stroke="#6B7280" stroke-width="1.2" stroke-dasharray="2,2" opacity="0.75" clip-path="url(#plotClip)" />
<circle cx="120.7" cy="482.5" r="5.5" fill="#1F2937" stroke="#FFFFFF" stroke-width="1.5" />
<circle cx="120.7" cy="482.5" r="5.5" fill="none" stroke="#000000" stroke-width="1.2" />
<text x="128.7" y="475.5" fill="#111827" font-size="10.5" font-weight="600" text-anchor="start">MgO <tspan fill="#6B7280" font-size="9.5">(+56.0%)</tspan></text>
<line x1="130.0" y1="482.2" x2="130.0" y2="477.4" stroke="#6B7280" stroke-width="1.2" stroke-dasharray="2,2" opacity="0.75" clip-path="url(#plotClip)" />
<circle cx="130.0" cy="477.4" r="5.5" fill="#1F2937" stroke="#FFFFFF" stroke-width="1.5" />
<circle cx="130.0" cy="477.4" r="5.5" fill="none" stroke="#000000" stroke-width="1.2" />
<text x="138.0" y="470.4" fill="#111827" font-size="10.5" font-weight="600" text-anchor="start">Al2O3 <tspan fill="#6B7280" font-size="9.5">(+37.5%)</tspan></text>
<line x1="122.5" y1="486.0" x2="122.5" y2="477.0" stroke="#6B7280" stroke-width="1.2" stroke-dasharray="2,2" opacity="0.75" clip-path="url(#plotClip)" />
<circle cx="122.5" cy="477.0" r="5.5" fill="#1F2937" stroke="#FFFFFF" stroke-width="1.5" />
<circle cx="122.5" cy="477.0" r="5.5" fill="none" stroke="#000000" stroke-width="1.2" />
<text x="130.5" y="470.0" fill="#111827" font-size="10.5" font-weight="600" text-anchor="start">TiO2 <tspan fill="#6B7280" font-size="9.5">(+100.0%)</tspan></text>
<line x1="133.2" y1="480.6" x2="133.2" y2="482.5" stroke="#6B7280" stroke-width="1.2" stroke-dasharray="2,2" opacity="0.75" clip-path="url(#plotClip)" />
<circle cx="133.2" cy="482.5" r="5.5" fill="#1F2937" stroke="#FFFFFF" stroke-width="1.5" />
<circle cx="133.2" cy="482.5" r="5.5" fill="none" stroke="#000000" stroke-width="1.2" />
<text x="141.2" y="495.5" fill="#111827" font-size="10.5" font-weight="600" text-anchor="start">SiC <tspan fill="#6B7280" font-size="9.5">(-13.3%)</tspan></text>
<line x1="117.5" y1="488.6" x2="117.5" y2="483.1" stroke="#6B7280" stroke-width="1.2" stroke-dasharray="2,2" opacity="0.75" clip-path="url(#plotClip)" />
<circle cx="117.5" cy="483.1" r="5.5" fill="#1F2937" stroke="#FFFFFF" stroke-width="1.5" />
<circle cx="117.5" cy="483.1" r="5.5" fill="none" stroke="#000000" stroke-width="1.2" />
<text x="125.5" y="476.1" fill="#111827" font-size="10.5" font-weight="600" text-anchor="start">GaN <tspan fill="#6B7280" font-size="9.5">(+85.0%)</tspan></text>
<line x1="110.6" y1="492.1" x2="110.6" y2="489.9" stroke="#6B7280" stroke-width="1.2" stroke-dasharray="2,2" opacity="0.75" clip-path="url(#plotClip)" />
<circle cx="110.6" cy="489.9" r="5.5" fill="#1F2937" stroke="#FFFFFF" stroke-width="1.5" />
<circle cx="110.6" cy="489.9" r="5.5" fill="none" stroke="#000000" stroke-width="1.2" />
<text x="118.6" y="482.9" fill="#111827" font-size="10.5" font-weight="600" text-anchor="start">Si <tspan fill="#6B7280" font-size="9.5">(+77.8%)</tspan></text>
<line x1="110.6" y1="492.1" x2="110.6" y2="490.5" stroke="#6B7280" stroke-width="1.2" stroke-dasharray="2,2" opacity="0.75" clip-path="url(#plotClip)" />
<circle cx="110.6" cy="490.5" r="5.5" fill="#1F2937" stroke="#FFFFFF" stroke-width="1.5" />
<circle cx="110.6" cy="490.5" r="5.5" fill="none" stroke="#000000" stroke-width="1.2" />
<text x="118.6" y="483.5" fill="#111827" font-size="10.5" font-weight="600" text-anchor="start">GaAs <tspan fill="#6B7280" font-size="9.5">(+55.6%)</tspan></text>
<line x1="109.4" y1="492.8" x2="109.4" y2="492.1" stroke="#6B7280" stroke-width="1.2" stroke-dasharray="2,2" opacity="0.75" clip-path="url(#plotClip)" />
<circle cx="109.4" cy="492.1" r="5.5" fill="#1F2937" stroke="#FFFFFF" stroke-width="1.5" />
<circle cx="109.4" cy="492.1" r="5.5" fill="none" stroke="#000000" stroke-width="1.2" />
<text x="117.4" y="485.1" fill="#111827" font-size="10.5" font-weight="600" text-anchor="start">CdTe <tspan fill="#6B7280" font-size="9.5">(+28.6%)</tspan></text>
<line x1="111.9" y1="491.5" x2="111.9" y2="492.1" stroke="#6B7280" stroke-width="1.2" stroke-dasharray="2,2" opacity="0.75" clip-path="url(#plotClip)" />
<circle cx="111.9" cy="492.1" r="5.5" fill="#1F2937" stroke="#FFFFFF" stroke-width="1.5" />
<circle cx="111.9" cy="492.1" r="5.5" fill="none" stroke="#000000" stroke-width="1.2" />
<text x="119.9" y="505.1" fill="#111827" font-size="10.5" font-weight="600" text-anchor="start">Bi2Te3 <tspan fill="#6B7280" font-size="9.5">(-18.2%)</tspan></text>
<line x1="112.5" y1="491.2" x2="112.5" y2="494.0" stroke="#6B7280" stroke-width="1.2" stroke-dasharray="2,2" opacity="0.75" clip-path="url(#plotClip)" />
<circle cx="112.5" cy="494.0" r="5.5" fill="#1F2937" stroke="#FFFFFF" stroke-width="1.5" />
<circle cx="112.5" cy="494.0" r="5.5" fill="none" stroke="#000000" stroke-width="1.2" />
<text x="120.5" y="507.0" fill="#111827" font-size="10.5" font-weight="600" text-anchor="start">Mg1.10Sc0.20Zr1.80(PS4)3 <tspan fill="#6B7280" font-size="9.5">(-75.0%)</tspan></text>
<line x1="110.6" y1="492.1" x2="110.6" y2="489.5" stroke="#6B7280" stroke-width="1.2" stroke-dasharray="2,2" opacity="0.75" clip-path="url(#plotClip)" />
<circle cx="110.6" cy="489.5" r="5.5" fill="#1F2937" stroke="#FFFFFF" stroke-width="1.5" />
<circle cx="110.6" cy="489.5" r="5.5" fill="none" stroke="#000000" stroke-width="1.2" />
<text x="118.6" y="482.5" fill="#111827" font-size="10.5" font-weight="600" text-anchor="start">Li10GeP2S12 <tspan fill="#6B7280" font-size="9.5">(+88.9%)</tspan></text>
<g transform="translate(105, 564)" font-size="11" fill="#4B5563"><circle cx="6" cy="-4" r="5" fill="#1F2937" stroke="#000000" stroke-width="1.0" /><text x="18" y="0">First-Principles Evaluation Point</text><line x1="210" y1="-4" x2="235" y2="-4" stroke="#111827" stroke-dasharray="5,3" stroke-width="1.5" /><text x="242" y="0">Ideal 1:1 Parity Line</text><rect x="380" y="-8" width="18" height="10" fill="rgba(0, 0, 0, 0.04)" stroke="#9CA3AF" stroke-dasharray="2,2" stroke-width="0.8" /><text x="405" y="0">±10% Confidence Interval</text><line x1="560" y1="-4" x2="585" y2="-4" stroke="#6B7280" stroke-dasharray="2,2" stroke-width="1.2" /><text x="592" y="0">Residual Drop Stem</text></g>
</svg>