<svg xmlns="http://www.w3.org/2000/svg" viewBox="0 0 980 580" width="100%" height="auto" style="background-color: #FFFFFF; border: 1px solid #E5E7EB; border-radius: 4px; font-family: 'Times New Roman', Times, 'DejaVu Serif', 'TeX Gyre Termes', Georgia, serif;">

        <defs>
          <clipPath id="plotClip">
            <rect x="105" y="75" width="820" height="420" />
          </clipPath>
        </defs>
        
<rect x="0" y="0" width="980" height="580" fill="#FFFFFF" />
<text x="105" y="34" fill="#111827" font-size="18" font-weight="bold" letter-spacing="-0.01em">Predicted vs. Actual Parity (Log-Log): Yield Strength (σ_y) [MPa]</text>
<text x="105" y="54" fill="#4B5563" font-size="12" font-style="italic">Zero-Parameter First-Principles Multiscale Predictions vs. Experimental Benchmark (Logarithmic Axes, N = 24)</text>
<g transform="translate(735, 90)"><rect width="175" height="92" rx="3" fill="#F9FAFB" stroke="#D1D5DB" stroke-width="1.2" /><text x="14" y="22" fill="#111827" font-size="12" font-weight="bold">Statistical Summary</text><line x1="14" y1="28" x2="161" y2="28" stroke="#D1D5DB" stroke-width="0.8" /><text x="14" y="44" fill="#111827" font-size="11.5">Sample Size: <tspan font-weight="bold">N = 24</tspan></text><text x="14" y="60" fill="#111827" font-size="11.5">Determination: <tspan font-weight="bold">R² = 0.4209</tspan></text><text x="14" y="76" fill="#111827" font-size="11.5">Mean Abs % Err: <tspan font-weight="bold">MAPE = 50.63%</tspan></text></g>
<line x1="187.3" y1="75" x2="187.3" y2="495" stroke="#F3F4F6" stroke-width="0.6" />
<line x1="105" y1="452.9" x2="925" y2="452.9" stroke="#F3F4F6" stroke-width="0.6" />
<line x1="102" y1="452.9" x2="105" y2="452.9" stroke="#111827" stroke-width="0.8" opacity="0.6" />
<line x1="187.3" y1="495" x2="187.3" y2="498" stroke="#111827" stroke-width="0.8" opacity="0.6" />
<line x1="235.4" y1="75" x2="235.4" y2="495" stroke="#F3F4F6" stroke-width="0.6" />
<line x1="105" y1="428.2" x2="925" y2="428.2" stroke="#F3F4F6" stroke-width="0.6" />
<line x1="102" y1="428.2" x2="105" y2="428.2" stroke="#111827" stroke-width="0.8" opacity="0.6" />
<line x1="235.4" y1="495" x2="235.4" y2="498" stroke="#111827" stroke-width="0.8" opacity="0.6" />
<line x1="269.6" y1="75" x2="269.6" y2="495" stroke="#F3F4F6" stroke-width="0.6" />
<line x1="105" y1="410.7" x2="925" y2="410.7" stroke="#F3F4F6" stroke-width="0.6" />
<line x1="102" y1="410.7" x2="105" y2="410.7" stroke="#111827" stroke-width="0.8" opacity="0.6" />
<line x1="269.6" y1="495" x2="269.6" y2="498" stroke="#111827" stroke-width="0.8" opacity="0.6" />
<line x1="296.1" y1="75" x2="296.1" y2="495" stroke="#F3F4F6" stroke-width="0.6" />
<line x1="105" y1="397.1" x2="925" y2="397.1" stroke="#F3F4F6" stroke-width="0.6" />
<line x1="102" y1="397.1" x2="105" y2="397.1" stroke="#111827" stroke-width="0.8" opacity="0.6" />
<line x1="296.1" y1="495" x2="296.1" y2="498" stroke="#111827" stroke-width="0.8" opacity="0.6" />
<line x1="317.7" y1="75" x2="317.7" y2="495" stroke="#F3F4F6" stroke-width="0.6" />
<line x1="105" y1="386.1" x2="925" y2="386.1" stroke="#F3F4F6" stroke-width="0.6" />
<line x1="102" y1="386.1" x2="105" y2="386.1" stroke="#111827" stroke-width="0.8" opacity="0.6" />
<line x1="317.7" y1="495" x2="317.7" y2="498" stroke="#111827" stroke-width="0.8" opacity="0.6" />
<line x1="336.0" y1="75" x2="336.0" y2="495" stroke="#F3F4F6" stroke-width="0.6" />
<line x1="105" y1="376.7" x2="925" y2="376.7" stroke="#F3F4F6" stroke-width="0.6" />
<line x1="102" y1="376.7" x2="105" y2="376.7" stroke="#111827" stroke-width="0.8" opacity="0.6" />
<line x1="336.0" y1="495" x2="336.0" y2="498" stroke="#111827" stroke-width="0.8" opacity="0.6" />
<line x1="351.8" y1="75" x2="351.8" y2="495" stroke="#F3F4F6" stroke-width="0.6" />
<line x1="105" y1="368.6" x2="925" y2="368.6" stroke="#F3F4F6" stroke-width="0.6" />
<line x1="102" y1="368.6" x2="105" y2="368.6" stroke="#111827" stroke-width="0.8" opacity="0.6" />
<line x1="351.8" y1="495" x2="351.8" y2="498" stroke="#111827" stroke-width="0.8" opacity="0.6" />
<line x1="365.8" y1="75" x2="365.8" y2="495" stroke="#F3F4F6" stroke-width="0.6" />
<line x1="105" y1="361.4" x2="925" y2="361.4" stroke="#F3F4F6" stroke-width="0.6" />
<line x1="102" y1="361.4" x2="105" y2="361.4" stroke="#111827" stroke-width="0.8" opacity="0.6" />
<line x1="365.8" y1="495" x2="365.8" y2="498" stroke="#111827" stroke-width="0.8" opacity="0.6" />
<line x1="460.6" y1="75" x2="460.6" y2="495" stroke="#F3F4F6" stroke-width="0.6" />
<line x1="105" y1="312.9" x2="925" y2="312.9" stroke="#F3F4F6" stroke-width="0.6" />
<line x1="102" y1="312.9" x2="105" y2="312.9" stroke="#111827" stroke-width="0.8" opacity="0.6" />
<line x1="460.6" y1="495" x2="460.6" y2="498" stroke="#111827" stroke-width="0.8" opacity="0.6" />
<line x1="508.7" y1="75" x2="508.7" y2="495" stroke="#F3F4F6" stroke-width="0.6" />
<line x1="105" y1="288.2" x2="925" y2="288.2" stroke="#F3F4F6" stroke-width="0.6" />
<line x1="102" y1="288.2" x2="105" y2="288.2" stroke="#111827" stroke-width="0.8" opacity="0.6" />
<line x1="508.7" y1="495" x2="508.7" y2="498" stroke="#111827" stroke-width="0.8" opacity="0.6" />
<line x1="542.9" y1="75" x2="542.9" y2="495" stroke="#F3F4F6" stroke-width="0.6" />
<line x1="105" y1="270.7" x2="925" y2="270.7" stroke="#F3F4F6" stroke-width="0.6" />
<line x1="102" y1="270.7" x2="105" y2="270.7" stroke="#111827" stroke-width="0.8" opacity="0.6" />
<line x1="542.9" y1="495" x2="542.9" y2="498" stroke="#111827" stroke-width="0.8" opacity="0.6" />
<line x1="569.4" y1="75" x2="569.4" y2="495" stroke="#F3F4F6" stroke-width="0.6" />
<line x1="105" y1="257.1" x2="925" y2="257.1" stroke="#F3F4F6" stroke-width="0.6" />
<line x1="102" y1="257.1" x2="105" y2="257.1" stroke="#111827" stroke-width="0.8" opacity="0.6" />
<line x1="569.4" y1="495" x2="569.4" y2="498" stroke="#111827" stroke-width="0.8" opacity="0.6" />
<line x1="591.0" y1="75" x2="591.0" y2="495" stroke="#F3F4F6" stroke-width="0.6" />
<line x1="105" y1="246.1" x2="925" y2="246.1" stroke="#F3F4F6" stroke-width="0.6" />
<line x1="102" y1="246.1" x2="105" y2="246.1" stroke="#111827" stroke-width="0.8" opacity="0.6" />
<line x1="591.0" y1="495" x2="591.0" y2="498" stroke="#111827" stroke-width="0.8" opacity="0.6" />
<line x1="609.3" y1="75" x2="609.3" y2="495" stroke="#F3F4F6" stroke-width="0.6" />
<line x1="105" y1="236.7" x2="925" y2="236.7" stroke="#F3F4F6" stroke-width="0.6" />
<line x1="102" y1="236.7" x2="105" y2="236.7" stroke="#111827" stroke-width="0.8" opacity="0.6" />
<line x1="609.3" y1="495" x2="609.3" y2="498" stroke="#111827" stroke-width="0.8" opacity="0.6" />
<line x1="625.2" y1="75" x2="625.2" y2="495" stroke="#F3F4F6" stroke-width="0.6" />
<line x1="105" y1="228.6" x2="925" y2="228.6" stroke="#F3F4F6" stroke-width="0.6" />
<line x1="102" y1="228.6" x2="105" y2="228.6" stroke="#111827" stroke-width="0.8" opacity="0.6" />
<line x1="625.2" y1="495" x2="625.2" y2="498" stroke="#111827" stroke-width="0.8" opacity="0.6" />
<line x1="639.2" y1="75" x2="639.2" y2="495" stroke="#F3F4F6" stroke-width="0.6" />
<line x1="105" y1="221.4" x2="925" y2="221.4" stroke="#F3F4F6" stroke-width="0.6" />
<line x1="102" y1="221.4" x2="105" y2="221.4" stroke="#111827" stroke-width="0.8" opacity="0.6" />
<line x1="639.2" y1="495" x2="639.2" y2="498" stroke="#111827" stroke-width="0.8" opacity="0.6" />
<line x1="733.9" y1="75" x2="733.9" y2="495" stroke="#F3F4F6" stroke-width="0.6" />
<line x1="105" y1="172.9" x2="925" y2="172.9" stroke="#F3F4F6" stroke-width="0.6" />
<line x1="102" y1="172.9" x2="105" y2="172.9" stroke="#111827" stroke-width="0.8" opacity="0.6" />
<line x1="733.9" y1="495" x2="733.9" y2="498" stroke="#111827" stroke-width="0.8" opacity="0.6" />
<line x1="782.1" y1="75" x2="782.1" y2="495" stroke="#F3F4F6" stroke-width="0.6" />
<line x1="105" y1="148.2" x2="925" y2="148.2" stroke="#F3F4F6" stroke-width="0.6" />
<line x1="102" y1="148.2" x2="105" y2="148.2" stroke="#111827" stroke-width="0.8" opacity="0.6" />
<line x1="782.1" y1="495" x2="782.1" y2="498" stroke="#111827" stroke-width="0.8" opacity="0.6" />
<line x1="816.2" y1="75" x2="816.2" y2="495" stroke="#F3F4F6" stroke-width="0.6" />
<line x1="105" y1="130.7" x2="925" y2="130.7" stroke="#F3F4F6" stroke-width="0.6" />
<line x1="102" y1="130.7" x2="105" y2="130.7" stroke="#111827" stroke-width="0.8" opacity="0.6" />
<line x1="816.2" y1="495" x2="816.2" y2="498" stroke="#111827" stroke-width="0.8" opacity="0.6" />
<line x1="842.7" y1="75" x2="842.7" y2="495" stroke="#F3F4F6" stroke-width="0.6" />
<line x1="105" y1="117.1" x2="925" y2="117.1" stroke="#F3F4F6" stroke-width="0.6" />
<line x1="102" y1="117.1" x2="105" y2="117.1" stroke="#111827" stroke-width="0.8" opacity="0.6" />
<line x1="842.7" y1="495" x2="842.7" y2="498" stroke="#111827" stroke-width="0.8" opacity="0.6" />
<line x1="864.4" y1="75" x2="864.4" y2="495" stroke="#F3F4F6" stroke-width="0.6" />
<line x1="105" y1="106.1" x2="925" y2="106.1" stroke="#F3F4F6" stroke-width="0.6" />
<line x1="102" y1="106.1" x2="105" y2="106.1" stroke="#111827" stroke-width="0.8" opacity="0.6" />
<line x1="864.4" y1="495" x2="864.4" y2="498" stroke="#111827" stroke-width="0.8" opacity="0.6" />
<line x1="882.7" y1="75" x2="882.7" y2="495" stroke="#F3F4F6" stroke-width="0.6" />
<line x1="105" y1="96.7" x2="925" y2="96.7" stroke="#F3F4F6" stroke-width="0.6" />
<line x1="102" y1="96.7" x2="105" y2="96.7" stroke="#111827" stroke-width="0.8" opacity="0.6" />
<line x1="882.7" y1="495" x2="882.7" y2="498" stroke="#111827" stroke-width="0.8" opacity="0.6" />
<line x1="898.5" y1="75" x2="898.5" y2="495" stroke="#F3F4F6" stroke-width="0.6" />
<line x1="105" y1="88.6" x2="925" y2="88.6" stroke="#F3F4F6" stroke-width="0.6" />
<line x1="102" y1="88.6" x2="105" y2="88.6" stroke="#111827" stroke-width="0.8" opacity="0.6" />
<line x1="898.5" y1="495" x2="898.5" y2="498" stroke="#111827" stroke-width="0.8" opacity="0.6" />
<line x1="912.5" y1="75" x2="912.5" y2="495" stroke="#F3F4F6" stroke-width="0.6" />
<line x1="105" y1="81.4" x2="925" y2="81.4" stroke="#F3F4F6" stroke-width="0.6" />
<line x1="102" y1="81.4" x2="105" y2="81.4" stroke="#111827" stroke-width="0.8" opacity="0.6" />
<line x1="912.5" y1="495" x2="912.5" y2="498" stroke="#111827" stroke-width="0.8" opacity="0.6" />
<line x1="105.0" y1="75" x2="105.0" y2="495" stroke="#E5E7EB" stroke-width="1.0" stroke-dasharray="3,3" />
<line x1="105" y1="495.0" x2="925" y2="495.0" stroke="#E5E7EB" stroke-width="1.0" stroke-dasharray="3,3" />
<line x1="99" y1="495.0" x2="105" y2="495.0" stroke="#111827" stroke-width="1.3" />
<text x="95" y="499.0" fill="#111827" font-size="12.5" font-weight="bold" text-anchor="end">10</text>
<line x1="105.0" y1="495" x2="105.0" y2="501" stroke="#111827" stroke-width="1.3" />
<text x="105.0" y="518.0" fill="#111827" font-size="12.5" font-weight="bold" text-anchor="middle">10</text>
<line x1="378.3" y1="75" x2="378.3" y2="495" stroke="#E5E7EB" stroke-width="1.0" stroke-dasharray="3,3" />
<line x1="105" y1="355.0" x2="925" y2="355.0" stroke="#E5E7EB" stroke-width="1.0" stroke-dasharray="3,3" />
<line x1="99" y1="355.0" x2="105" y2="355.0" stroke="#111827" stroke-width="1.3" />
<text x="95" y="359.0" fill="#111827" font-size="12.5" font-weight="bold" text-anchor="end">100</text>
<line x1="378.3" y1="495" x2="378.3" y2="501" stroke="#111827" stroke-width="1.3" />
<text x="378.3" y="518.0" fill="#111827" font-size="12.5" font-weight="bold" text-anchor="middle">100</text>
<line x1="651.7" y1="75" x2="651.7" y2="495" stroke="#E5E7EB" stroke-width="1.0" stroke-dasharray="3,3" />
<line x1="105" y1="215.0" x2="925" y2="215.0" stroke="#E5E7EB" stroke-width="1.0" stroke-dasharray="3,3" />
<line x1="99" y1="215.0" x2="105" y2="215.0" stroke="#111827" stroke-width="1.3" />
<text x="95" y="219.0" fill="#111827" font-size="12.5" font-weight="bold" text-anchor="end">10³</text>
<line x1="651.7" y1="495" x2="651.7" y2="501" stroke="#111827" stroke-width="1.3" />
<text x="651.7" y="518.0" fill="#111827" font-size="12.5" font-weight="bold" text-anchor="middle">10³</text>
<line x1="925.0" y1="75" x2="925.0" y2="495" stroke="#E5E7EB" stroke-width="1.0" stroke-dasharray="3,3" />
<line x1="105" y1="75.0" x2="925" y2="75.0" stroke="#E5E7EB" stroke-width="1.0" stroke-dasharray="3,3" />
<line x1="99" y1="75.0" x2="105" y2="75.0" stroke="#111827" stroke-width="1.3" />
<text x="95" y="79.0" fill="#111827" font-size="12.5" font-weight="bold" text-anchor="end">10⁴</text>
<line x1="925.0" y1="495" x2="925.0" y2="501" stroke="#111827" stroke-width="1.3" />
<text x="925.0" y="518.0" fill="#111827" font-size="12.5" font-weight="bold" text-anchor="middle">10⁴</text>
<polygon points="105.0,489.2 925.0,69.2 925.0,81.4 105.0,501.4" fill="rgba(0, 0, 0, 0.04)" clip-path="url(#plotClip)" />
<line x1="105.0" y1="489.2" x2="925.0" y2="69.2" stroke="#9CA3AF" stroke-width="1.0" stroke-dasharray="3,3" clip-path="url(#plotClip)" />
<line x1="105.0" y1="501.4" x2="925.0" y2="81.4" stroke="#9CA3AF" stroke-width="1.0" stroke-dasharray="3,3" clip-path="url(#plotClip)" />
<line x1="105.0" y1="495.0" x2="925.0" y2="75.0" stroke="#111827" stroke-width="1.6" stroke-dasharray="6,4" clip-path="url(#plotClip)" />
<text x="535.0" y="273.0" fill="#6B7280" font-size="11" font-style="italic" transform="rotate(-34 515.0 285.0)">Ideal 1:1 Parity (y = x)</text>
<rect x="105" y="75" width="820" height="420" fill="none" stroke="#111827" stroke-width="1.4" />
<text x="515.0" y="547.0" fill="#111827" font-size="14.5" font-weight="bold" text-anchor="middle">Experimental Ground Truth Value [MPa] [Log₁₀ Scale]</text>
<text x="32" y="285.0" fill="#111827" font-size="14.5" font-weight="bold" text-anchor="middle" transform="rotate(-90 32 285.0)">Penziv Predicted Value [MPa] [Log₁₀ Scale]</text>
<line x1="336.0" y1="376.7" x2="336.0" y2="363.3" stroke="#6B7280" stroke-width="1.2" stroke-dasharray="2,2" opacity="0.75" clip-path="url(#plotClip)" />
<circle cx="336.0" cy="363.3" r="5.5" fill="#1F2937" stroke="#FFFFFF" stroke-width="1.5" />
<circle cx="336.0" cy="363.3" r="5.5" fill="none" stroke="#000000" stroke-width="1.2" />
<text x="344.0" y="356.3" fill="#111827" font-size="10.5" font-weight="600" text-anchor="start">Cu <tspan fill="#6B7280" font-size="9.5">(+24.6%)</tspan></text>
<line x1="253.7" y1="418.8" x2="253.7" y2="379.4" stroke="#6B7280" stroke-width="1.2" stroke-dasharray="2,2" opacity="0.75" clip-path="url(#plotClip)" />
<circle cx="253.7" cy="379.4" r="5.5" fill="#1F2937" stroke="#FFFFFF" stroke-width="1.5" />
<circle cx="253.7" cy="379.4" r="5.5" fill="none" stroke="#000000" stroke-width="1.2" />
<text x="261.7" y="372.4" fill="#111827" font-size="10.5" font-weight="600" text-anchor="start">Al <tspan fill="#6B7280" font-size="9.5">(+91.1%)</tspan></text>
<line x1="418.3" y1="334.5" x2="418.3" y2="352.3" stroke="#6B7280" stroke-width="1.2" stroke-dasharray="2,2" opacity="0.75" clip-path="url(#plotClip)" />
<circle cx="418.3" cy="352.3" r="5.5" fill="#1F2937" stroke="#FFFFFF" stroke-width="1.5" />
<circle cx="418.3" cy="352.3" r="5.5" fill="none" stroke="#000000" stroke-width="1.2" />
<text x="426.3" y="365.3" fill="#111827" font-size="10.5" font-weight="600" text-anchor="start">Ni <tspan fill="#6B7280" font-size="9.5">(-25.3%)</tspan></text>
<line x1="418.3" y1="334.5" x2="418.3" y2="376.4" stroke="#6B7280" stroke-width="1.2" stroke-dasharray="2,2" opacity="0.75" clip-path="url(#plotClip)" />
<circle cx="418.3" cy="376.4" r="5.5" fill="#1F2937" stroke="#FFFFFF" stroke-width="1.5" />
<circle cx="418.3" cy="376.4" r="5.5" fill="none" stroke="#000000" stroke-width="1.2" />
<text x="426.3" y="389.4" fill="#111827" font-size="10.5" font-weight="600" text-anchor="start">Ti <tspan fill="#6B7280" font-size="9.5">(-49.8%)</tspan></text>
<line x1="617.5" y1="232.5" x2="617.5" y2="319.3" stroke="#6B7280" stroke-width="1.2" stroke-dasharray="2,2" opacity="0.75" clip-path="url(#plotClip)" />
<circle cx="617.5" cy="319.3" r="5.5" fill="#1F2937" stroke="#FFFFFF" stroke-width="1.5" />
<circle cx="617.5" cy="319.3" r="5.5" fill="none" stroke="#000000" stroke-width="1.2" />
<text x="625.5" y="332.3" fill="#111827" font-size="10.5" font-weight="600" text-anchor="start">W <tspan fill="#6B7280" font-size="9.5">(-76.0%)</tspan></text>
<line x1="409.5" y1="339.0" x2="409.5" y2="333.9" stroke="#6B7280" stroke-width="1.2" stroke-dasharray="2,2" opacity="0.75" clip-path="url(#plotClip)" />
<circle cx="409.5" cy="333.9" r="5.5" fill="#1F2937" stroke="#FFFFFF" stroke-width="1.5" />
<circle cx="409.5" cy="333.9" r="5.5" fill="none" stroke="#000000" stroke-width="1.2" />
<text x="417.5" y="326.9" fill="#111827" font-size="10.5" font-weight="600" text-anchor="start">Fe <tspan fill="#6B7280" font-size="9.5">(+8.8%)</tspan></text>
<line x1="504.7" y1="290.3" x2="504.7" y2="244.4" stroke="#6B7280" stroke-width="1.2" stroke-dasharray="2,2" opacity="0.75" clip-path="url(#plotClip)" />
<circle cx="504.7" cy="244.4" r="5.5" fill="#1F2937" stroke="#FFFFFF" stroke-width="1.5" />
<circle cx="504.7" cy="244.4" r="5.5" fill="none" stroke="#000000" stroke-width="1.2" />
<text x="512.7" y="237.4" fill="#111827" font-size="10.5" font-weight="600" text-anchor="start">Fe0.70Cr0.18Ni0.10Mo0.02 <tspan fill="#6B7280" font-size="9.5">(+112.6%)</tspan></text>
<line x1="657.5" y1="212.0" x2="657.5" y2="205.5" stroke="#6B7280" stroke-width="1.2" stroke-dasharray="2,2" opacity="0.75" clip-path="url(#plotClip)" />
<circle cx="657.5" cy="205.5" r="5.5" fill="#1F2937" stroke="#FFFFFF" stroke-width="1.5" />
<circle cx="657.5" cy="205.5" r="5.5" fill="none" stroke="#000000" stroke-width="1.2" />
<text x="665.5" y="198.5" fill="#111827" font-size="10.5" font-weight="600" text-anchor="start">Ni0.53Cr0.19Fe0.18Nb0.05Mo0.03 <tspan fill="#6B7280" font-size="9.5">(+11.3%)</tspan></text>
<line x1="636.5" y1="222.8" x2="636.5" y2="273.4" stroke="#6B7280" stroke-width="1.2" stroke-dasharray="2,2" opacity="0.75" clip-path="url(#plotClip)" />
<circle cx="636.5" cy="273.4" r="5.5" fill="#1F2937" stroke="#FFFFFF" stroke-width="1.5" />
<circle cx="636.5" cy="273.4" r="5.5" fill="none" stroke="#000000" stroke-width="1.2" />
<text x="644.5" y="286.4" fill="#111827" font-size="10.5" font-weight="600" text-anchor="start">Ti0.90Al0.06V0.04 <tspan fill="#6B7280" font-size="9.5">(-56.5%)</tspan></text>
<line x1="657.5" y1="212.0" x2="657.5" y2="197.6" stroke="#6B7280" stroke-width="1.2" stroke-dasharray="2,2" opacity="0.75" clip-path="url(#plotClip)" />
<circle cx="657.5" cy="197.6" r="5.5" fill="#1F2937" stroke="#FFFFFF" stroke-width="1.5" />
<circle cx="657.5" cy="197.6" r="5.5" fill="none" stroke="#000000" stroke-width="1.2" />
<text x="665.5" y="190.6" fill="#111827" font-size="10.5" font-weight="600" text-anchor="start">Nb0.25Mo0.25Ta0.25W0.25 <tspan fill="#6B7280" font-size="9.5">(+26.9%)</tspan></text>
<line x1="556.9" y1="263.6" x2="556.9" y2="356.5" stroke="#6B7280" stroke-width="1.2" stroke-dasharray="2,2" opacity="0.75" clip-path="url(#plotClip)" />
<circle cx="556.9" cy="356.5" r="5.5" fill="#1F2937" stroke="#FFFFFF" stroke-width="1.5" />
<circle cx="556.9" cy="356.5" r="5.5" fill="none" stroke="#000000" stroke-width="1.2" />
<text x="564.9" y="369.5" fill="#111827" font-size="10.5" font-weight="600" text-anchor="start">Ti3SiC2 <tspan fill="#6B7280" font-size="9.5">(-78.3%)</tspan></text>
<line x1="536.8" y1="273.8" x2="536.8" y2="366.6" stroke="#6B7280" stroke-width="1.2" stroke-dasharray="2,2" opacity="0.75" clip-path="url(#plotClip)" />
<circle cx="536.8" cy="366.6" r="5.5" fill="#1F2937" stroke="#FFFFFF" stroke-width="1.5" />
<circle cx="536.8" cy="366.6" r="5.5" fill="none" stroke="#000000" stroke-width="1.2" />
<text x="544.8" y="379.6" fill="#111827" font-size="10.5" font-weight="600" text-anchor="start">Ti2AlC <tspan fill="#6B7280" font-size="9.5">(-78.3%)</tspan></text>
<line x1="516.4" y1="284.3" x2="516.4" y2="352.0" stroke="#6B7280" stroke-width="1.2" stroke-dasharray="2,2" opacity="0.75" clip-path="url(#plotClip)" />
<circle cx="516.4" cy="352.0" r="5.5" fill="#1F2937" stroke="#FFFFFF" stroke-width="1.5" />
<circle cx="516.4" cy="352.0" r="5.5" fill="none" stroke="#000000" stroke-width="1.2" />
<text x="524.4" y="365.0" fill="#111827" font-size="10.5" font-weight="600" text-anchor="start">CaO <tspan fill="#6B7280" font-size="9.5">(-67.2%)</tspan></text>
<line x1="527.0" y1="278.8" x2="527.0" y2="321.8" stroke="#6B7280" stroke-width="1.2" stroke-dasharray="2,2" opacity="0.75" clip-path="url(#plotClip)" />
<circle cx="527.0" cy="321.8" r="5.5" fill="#1F2937" stroke="#FFFFFF" stroke-width="1.5" />
<circle cx="527.0" cy="321.8" r="5.5" fill="none" stroke="#000000" stroke-width="1.2" />
<text x="535.0" y="334.8" fill="#111827" font-size="10.5" font-weight="600" text-anchor="start">MgO <tspan fill="#6B7280" font-size="9.5">(-50.7%)</tspan></text>
<line x1="542.9" y1="270.7" x2="542.9" y2="347.8" stroke="#6B7280" stroke-width="1.2" stroke-dasharray="2,2" opacity="0.75" clip-path="url(#plotClip)" />
<circle cx="542.9" cy="347.8" r="5.5" fill="#1F2937" stroke="#FFFFFF" stroke-width="1.5" />
<circle cx="542.9" cy="347.8" r="5.5" fill="none" stroke="#000000" stroke-width="1.2" />
<text x="550.9" y="360.8" fill="#111827" font-size="10.5" font-weight="600" text-anchor="start">Al2O3 <tspan fill="#6B7280" font-size="9.5">(-71.8%)</tspan></text>
<line x1="500.6" y1="292.4" x2="500.6" y2="386.0" stroke="#6B7280" stroke-width="1.2" stroke-dasharray="2,2" opacity="0.75" clip-path="url(#plotClip)" />
<circle cx="500.6" cy="386.0" r="5.5" fill="#1F2937" stroke="#FFFFFF" stroke-width="1.5" />
<circle cx="500.6" cy="386.0" r="5.5" fill="none" stroke="#000000" stroke-width="1.2" />
<text x="508.6" y="399.0" fill="#111827" font-size="10.5" font-weight="600" text-anchor="start">TiO2 <tspan fill="#6B7280" font-size="9.5">(-78.5%)</tspan></text>
<line x1="580.7" y1="251.3" x2="580.7" y2="292.9" stroke="#6B7280" stroke-width="1.2" stroke-dasharray="2,2" opacity="0.75" clip-path="url(#plotClip)" />
<circle cx="580.7" cy="292.9" r="5.5" fill="#1F2937" stroke="#FFFFFF" stroke-width="1.5" />
<circle cx="580.7" cy="292.9" r="5.5" fill="none" stroke="#000000" stroke-width="1.2" />
<text x="588.7" y="305.9" fill="#111827" font-size="10.5" font-weight="600" text-anchor="start">SiC <tspan fill="#6B7280" font-size="9.5">(-49.5%)</tspan></text>
<line x1="527.0" y1="278.8" x2="527.0" y2="291.2" stroke="#6B7280" stroke-width="1.2" stroke-dasharray="2,2" opacity="0.75" clip-path="url(#plotClip)" />
<circle cx="527.0" cy="291.2" r="5.5" fill="#1F2937" stroke="#FFFFFF" stroke-width="1.5" />
<circle cx="527.0" cy="291.2" r="5.5" fill="none" stroke="#000000" stroke-width="1.2" />
<text x="535.0" y="304.2" fill="#111827" font-size="10.5" font-weight="600" text-anchor="start">GaN <tspan fill="#6B7280" font-size="9.5">(-18.5%)</tspan></text>
<line x1="400.0" y1="343.9" x2="400.0" y2="321.8" stroke="#6B7280" stroke-width="1.2" stroke-dasharray="2,2" opacity="0.75" clip-path="url(#plotClip)" />
<circle cx="400.0" cy="321.8" r="5.5" fill="#1F2937" stroke="#FFFFFF" stroke-width="1.5" />
<circle cx="400.0" cy="321.8" r="5.5" fill="none" stroke="#000000" stroke-width="1.2" />
<text x="408.0" y="314.8" fill="#111827" font-size="10.5" font-weight="600" text-anchor="start">Si <tspan fill="#6B7280" font-size="9.5">(+43.9%)</tspan></text>
<line x1="400.0" y1="343.9" x2="400.0" y2="333.4" stroke="#6B7280" stroke-width="1.2" stroke-dasharray="2,2" opacity="0.75" clip-path="url(#plotClip)" />
<circle cx="400.0" cy="333.4" r="5.5" fill="#1F2937" stroke="#FFFFFF" stroke-width="1.5" />
<circle cx="400.0" cy="333.4" r="5.5" fill="none" stroke="#000000" stroke-width="1.2" />
<text x="408.0" y="326.4" fill="#111827" font-size="10.5" font-weight="600" text-anchor="start">GaAs <tspan fill="#6B7280" font-size="9.5">(+18.9%)</tspan></text>
<line x1="327.2" y1="381.2" x2="327.2" y2="366.6" stroke="#6B7280" stroke-width="1.2" stroke-dasharray="2,2" opacity="0.75" clip-path="url(#plotClip)" />
<circle cx="327.2" cy="366.6" r="5.5" fill="#1F2937" stroke="#FFFFFF" stroke-width="1.5" />
<circle cx="327.2" cy="366.6" r="5.5" fill="none" stroke="#000000" stroke-width="1.2" />
<text x="335.2" y="359.6" fill="#111827" font-size="10.5" font-weight="600" text-anchor="start">CdTe <tspan fill="#6B7280" font-size="9.5">(+27.1%)</tspan></text>
<line x1="307.4" y1="391.3" x2="307.4" y2="356.5" stroke="#6B7280" stroke-width="1.2" stroke-dasharray="2,2" opacity="0.75" clip-path="url(#plotClip)" />
<circle cx="307.4" cy="356.5" r="5.5" fill="#1F2937" stroke="#FFFFFF" stroke-width="1.5" />
<circle cx="307.4" cy="356.5" r="5.5" fill="none" stroke="#000000" stroke-width="1.2" />
<text x="315.4" y="349.5" fill="#111827" font-size="10.5" font-weight="600" text-anchor="start">Bi2Te3 <tspan fill="#6B7280" font-size="9.5">(+77.5%)</tspan></text>
<line x1="351.8" y1="368.6" x2="351.8" y2="445.7" stroke="#6B7280" stroke-width="1.2" stroke-dasharray="2,2" opacity="0.75" clip-path="url(#plotClip)" />
<circle cx="351.8" cy="445.7" r="5.5" fill="#1F2937" stroke="#FFFFFF" stroke-width="1.5" />
<circle cx="351.8" cy="445.7" r="5.5" fill="none" stroke="#000000" stroke-width="1.2" />
<text x="359.8" y="458.7" fill="#111827" font-size="10.5" font-weight="600" text-anchor="start">Mg1.10Sc0.20Zr1.80(PS4)3 <tspan fill="#6B7280" font-size="9.5">(-71.9%)</tspan></text>
<line x1="317.7" y1="386.1" x2="317.7" y2="386.0" stroke="#6B7280" stroke-width="1.2" stroke-dasharray="2,2" opacity="0.75" clip-path="url(#plotClip)" />
<circle cx="317.7" cy="386.0" r="5.5" fill="#1F2937" stroke="#FFFFFF" stroke-width="1.5" />
<circle cx="317.7" cy="386.0" r="5.5" fill="none" stroke="#000000" stroke-width="1.2" />
<text x="325.7" y="379.0" fill="#111827" font-size="10.5" font-weight="600" text-anchor="start">Li10GeP2S12 <tspan fill="#6B7280" font-size="9.5">(+0.2%)</tspan></text>
<g transform="translate(105, 564)" font-size="11" fill="#4B5563"><circle cx="6" cy="-4" r="5" fill="#1F2937" stroke="#000000" stroke-width="1.0" /><text x="18" y="0">First-Principles Evaluation Point</text><line x1="210" y1="-4" x2="235" y2="-4" stroke="#111827" stroke-dasharray="5,3" stroke-width="1.5" /><text x="242" y="0">Ideal 1:1 Parity Line</text><rect x="380" y="-8" width="18" height="10" fill="rgba(0, 0, 0, 0.04)" stroke="#9CA3AF" stroke-dasharray="2,2" stroke-width="0.8" /><text x="405" y="0">±10% Confidence Interval</text><line x1="560" y1="-4" x2="585" y2="-4" stroke="#6B7280" stroke-dasharray="2,2" stroke-width="1.2" /><text x="592" y="0">Residual Drop Stem</text></g>
</svg>